<svg xmlns="http://www.w3.org/2000/svg" width="79.004" height="80.427"><defs><style>.a{fill:#fff}</style></defs><path class="a" d="M35.644 30.176c2.329.709 4.962-1.215 5.975-4.354s-.1-6.177-2.329-6.987c-2.329-.709-4.962 1.215-5.974 4.354s-.006 6.278 2.328 6.987zm-6.582.203c2.126-.608 3.038-3.747 2.025-6.987-1.114-3.24-3.747-5.266-5.873-4.557-2.126.608-3.038 3.747-2.025 6.987 1.114 3.139 3.747 5.266 5.873 4.557zm-5.568.81c-1.013-3.038-3.544-4.962-5.569-4.354s-2.937 3.544-1.924 6.582 3.544 4.962 5.569 4.354c2.124-.608 2.935-3.544 1.924-6.582zm9.011-.102h-.506s-8.81 1.418-8.81 11.645c0 5.974 4.962 3.443 4.962 3.443s2.127-2.126 3.848-2.126h.405c1.722 0 3.848 2.126 3.848 2.126s4.962 2.633 4.962-3.342c.101-10.328-8.709-11.746-8.709-11.746zm14.177-4.052c-2.025-.709-4.557 1.215-5.468 4.152s0 5.873 2.025 6.582 4.557-1.215 5.468-4.152c.911-3.036.002-5.973-2.025-6.582zm29.67 42.431l-.309-.405-8.4 8.2.2.2 2.127 2.228c1.418 1.418 4.456.709 6.683-1.519 2.329-2.228 3.038-5.266 1.62-6.683z"/><path class="a" d="M58.53 51.543A32.389 32.389 0 1032.4 64.808a31.915 31.915 0 0017.62-5.266l15.7 15.7 8.4-8.2zM32.3 55.8a23.29 23.29 0 1123.29-23.29A23.294 23.294 0 0132.3 55.8z"/></svg>