<svg version="1.0" xmlns="http://www.w3.org/2000/svg" width="1649.333" height="1706.667" viewBox="0 0 1237 1280"><path d="M523.7 1.5c-16.2 3.1-30.5 11.2-39.2 22.2-6 7.6-15.7 27.5-19 38.8-4.5 15.6-5.8 26.4-5.8 46.5 0 11.9.6 22.3 1.6 29.3 8.4 55.5 34.7 115.8 76.2 174.7 16.9 24 39.5 51.4 48.6 59 16 13.3 38.5 22.4 70.9 28.7 18.1 3.5 42.3 3.7 54.1.5 16.6-4.5 33.5-15.5 50.9-33.1 20.4-20.6 33.6-45 40.2-74.2 2-9.1 2.3-13 2.3-31.4-.1-23.1-1.3-31.2-7.5-49.7-6.7-20-15.2-34.4-33.8-57.8-71-88.9-138.4-140.8-198.3-152.5-11.9-2.3-31.5-2.8-41.2-1zM215.2 115c-10.3 2.7-18.2 7.3-25.6 14.6-17.3 17.1-28.9 44.5-35.5 83.4-5.9 34.6-5.5 79.1 1 112.9 15.5 81 59.1 142.5 122.7 173.3 14.1 6.8 34.1 13.7 49.2 17 9 1.9 13.4 2.2 30.5 2.2s21.3-.3 29.1-2.2c47.4-11.3 84.2-44.2 104-93 14.6-36 15.8-72.1 3.4-102.2-19.4-47-63.2-100.4-116.1-141.6-43.1-33.6-80.2-54.2-112.8-62.6-9.8-2.6-13.9-3.1-27.1-3.4-13.2-.4-16.6-.1-22.8 1.6zm697.5 183.4c-12.7 2.9-30.9 14.6-39.3 25.2-19.9 25.3-33.8 63-42.9 116.7-4.6 27.4-5.9 42.7-6 70.2 0 24.2.2 26.6 2.4 35 13 49.5 53.7 92.4 103.4 109 13.8 4.6 25.8 6.5 40.7 6.5 21 0 35.4-3.2 52.5-11.5 12.3-5.9 21.8-12.7 31.7-22.6 16.6-16.6 32.9-44 42.3-71.1 11.1-31.8 13.2-54.7 6.7-74.3-15-45.5-45.3-93.7-84.2-133.8-25.4-26.3-48.6-41.5-72.6-47.8-10.1-2.6-26.8-3.3-34.7-1.5zM123 652.6c-1.4.2-6.5.9-11.5 1.5-26.9 3.2-54.3 12.9-75.4 26.6C22 689.8 14 698.5 7.9 711.1.5 726.3-2 761.5 2.5 786.7c7.9 44.4 30.7 85.7 69.5 125.7 44.6 46 106.4 85 158.4 100.1 18.3 5.3 34.7 5.4 52.9.3 28.4-7.8 57.9-32.3 75.8-62.9 16.8-28.9 29.8-63.1 34.6-91.4 2.7-15.5 2.4-41-.6-54.4-7.8-35.2-27.7-64.7-58.2-86.3C298 691.7 253.6 671 212 660.6c-22.7-5.7-38.3-7.7-64-8.1-12.4-.2-23.6-.2-25 .1zm627.5 85.8c-29.4 4.3-60.9 19.5-89.6 43.4-22.9 19-38.8 43-42 63.1-1.3 8.9-.9 11.8 4.6 34.1 13.9 55.5 21.1 97.3 23.7 136.7 2 30.6-.1 42.6-12.1 69.8-5.3 11.8-6.3 13.8-25.2 49-6.4 12.1-12.6 24.7-13.6 28-2.3 7.9-2.3 28.8.1 39.4 4.8 21.4 16.4 44.6 28.9 57.8 7 7.5 18.4 14.8 27 17.5 9.4 3 26.2 3.2 35.2.5 5.9-1.8 24.8-10.8 265.5-126.2 67.4-32.3 152-72.9 188-90.2 36-17.2 68-33 71-35s8.1-6.3 11.2-9.6c29.8-30.7 7.9-81.4-39.2-91.1-16.4-3.3-44.9-4.9-95-5.1l-48.5-.3-9-3c-17.8-6-40.2-17.9-68-36-19.9-12.9-33.4-23.5-52-40.7-21.8-20.2-51.9-46.9-81-71.9-24.8-21.3-31.6-25.6-45.6-29-9.3-2.3-23.7-2.8-34.4-1.2z"/></svg>