<svg version="1.0" xmlns="http://www.w3.org/2000/svg" width="1706.667" height="1706.667" viewBox="0 0 1280 1280"><path d="M625.9 24.7c-1.8 2.1-1.8 16.5 0 25.6 1.3 6.6 1.7 7.2 9 14.6 11.7 12 18.7 25.1 23.7 44.9 1.3 5.3 2.7 12.5 3 16.2l.7 6.7-5 .7c-6.6.8-30.6 6.2-36.8 8.3-20.4 6.6-34.7 20.8-38.4 38.1-2.5 11.9-.8 28 4.5 44.2 3.7 11.2 12.8 28.9 17.4 34 5.3 5.7 8.6 12.2 11.3 21.8 1.9 6.9 2.1 10.2 2.1 32.7 0 19.3-.4 27.4-1.8 35.5-2.6 15.7-3 22.6-1.6 34 4.4 38.5 21.3 65.7 49.6 79.8 28.1 14.1 68.1 15.4 114.3 3.6 12.1-3.1 14.2-4 23-9.7 34.5-22.7 57.7-49.7 68.5-79.7 18.6-51.7-.6-115.5-52.1-172.5-14.4-15.9-30.8-30.2-47.5-41.4-8.7-5.8-26-15-32.8-17.5-4.1-1.5-4.7-2.2-6.4-6.9-5.6-15.9-18.5-36.9-33.9-55.2-15.2-18-49.6-50-61.7-57.4-4.2-2.5-7.3-2.7-9.1-.4zm-310.7 85c-2.2.9-4.1 5.8-7.7 19.9-11.6 45.9-13.6 91.6-5.3 120.9l2.3 7.9-6.4 9.6c-22 32.6-34.2 79.4-32.8 126 2 69.6 30.7 119.7 83.2 145 23.7 11.4 48.4 17.3 79 18.6 13.1.6 14.6.5 23.7-2 49.3-13.5 85.3-36.9 99.3-64.5 6.2-12.4 8-20.1 7.9-34.1 0-14.5-2.2-25.2-8.1-39-6.6-15.4-13.7-26.8-24-38-19.7-21.5-33.1-39.9-40.8-56.1-5.6-11.9-6.9-18.1-6.1-28.4 1.4-19.3-6.8-50.2-17.9-67-13.1-19.7-33-28.7-56.8-25.7-9.5 1.2-37.8 9.5-47.7 14-.4.1-3-3.9-5.8-9-12.9-23.4-17.7-45.4-13.8-63.7l1.3-6.5-4.6-9c-2.7-5.4-6.6-11.2-9.7-14.4-4.8-4.9-6.3-5.7-9.2-4.5zm820.4 157.2c-2.9 3.2-5.6 11.7-6.8 21.6-1.2 9.2-1.1 9.6 1.1 13.2 3.5 6 6.8 13.6 8.6 19.9 2.3 8.3 3 26.2 1.5 36.7-1.1 8.1-1.4 8.7-3.4 8.2-10-2.1-14-2.5-22.8-2.5-15.7 0-26.5 3.6-39.3 13.3-16.2 12.2-30.1 36.8-37.4 66.3-3.9 15.8-11.9 33.8-39.3 88.4-27.1 53.9-30.2 62.7-30.1 85.5.1 7.8.7 13.3 2.1 18.6 9.2 34.5 42.8 60.6 96.7 74.9 20.2 5.4 25.6 6 39.1 4.5 58.4-6.8 99.4-28.5 124.5-65.8 29.8-44.4 35.1-110.6 13.9-174.7-8.9-27.2-21.2-48.9-38-67.3-5.1-5.6-5.1-5.7-6-14.4-2.4-23.2-9.7-45.8-24.1-74.4-10.1-20.3-28-48.8-32.8-52.6-2.3-1.8-5.6-1.6-7.5.6zM28.8 586.7c-3.5.8-4.1 5.6-3.5 24.6 1.7 49 12.2 91.6 29.1 118.6 1.9 3 2.4 5.7 3 15.5 3.6 60.8 39.2 128.8 87 166.1 51.7 40.3 113.5 45.3 181.1 14.7 10.5-4.8 20-12.6 33-27.2 10.8-12.2 15.4-18.4 22.1-29.6 9.9-16.8 14.3-30.4 15.1-46.7 1.2-23.8-6.6-42-26.6-61.7-11.3-11.2-20.4-17.6-47.8-33.3-49.7-28.7-87.2-52.6-96.8-61.6-18.2-17.2-38.8-30.2-58.5-36.7-7.7-2.5-9.8-2.8-23-2.8-13.3 0-15.1.2-21.2 2.5-13 5-26.2 15-36.9 27.6-6.1 7.3-5.8 7.4-12.9-3.2-8.7-12.9-12.7-23.5-13.7-35.9-.6-7.8-.6-7.9-6.4-14.6-9.4-10.9-18.5-17.3-23.1-16.3zm736.7 104.4c-21.2 2-48.5 7.8-67.4 14.3-4.1 1.4-11.5 3.3-16.5 4.2-34.8 6-71.2 20-97.5 37.5C540.7 775.9 519 814.9 519 864c0 15.8 1.1 26.2 4.6 41.7 2.4 10.9 2.4 11.3.9 19-5.8 28.1-19.9 54.6-40 74.9-11.3 11.3-20.1 18.2-32.5 25.1-15.5 8.7-25.4 20.9-31.7 38.8-2.6 7.5-2.8 9-2.8 25 0 15.5.3 17.9 2.8 26.9 3.6 13 9.3 26.4 17.1 40.1 3.5 6 7.8 13.7 9.6 17 11.4 20.9 33.6 42.1 59.3 56.7 24.4 13.9 64.6 24.8 91.5 24.8 32.3 0 103.1-8.4 157.2-18.6 34.1-6.4 110.8-25.5 148.3-36.8 50.5-15.3 106.5-37.4 157.3-62 23-11.2 28.2-14.4 42.5-26.5 28-23.4 47.8-53.9 55.4-85.5 4.5-18.1 5-30.1 2.5-53.6-2.6-24.6-4.2-33.3-8.2-45.4-9-27-24-45.8-46-57.5-12.2-6.6-18.9-8.1-35.2-8.1-29.5-.1-52.7-5.7-78.6-19.1-14.8-7.7-28.1-17.2-38.9-27.9-8.2-8.1-8.9-9-13-19.2-15.6-38.9-45.5-71.9-79.3-87.8-27.4-12.8-61.7-18.1-96.3-14.9z"/></svg>