<svg version="1.0" xmlns="http://www.w3.org/2000/svg" width="1706.667" height="1648" viewBox="0 0 1280 1236"><path d="M393.1 1c-12.8 2.7-25.8 9-47.3 22.7-1.6 1-2.8 2.1-2.8 2.4 0 .9 4.5 1.6 17.9 3 9.8.9 18.3 2.6 14.3 2.8-3 .2-18.5 12.2-27.3 21.2-10 10.3-23.4 28.3-33 44.1-10.5 17.4-15.2 31.4-18.4 54.4-2 14.3-2 50 0 69.9 1.6 15.8 2.1 19.2 5.5 37s3.4 17.5 2 17.5c-2.1 0-10.2-5.5-14.2-9.7-4.3-4.6-13.9-18.7-17.5-26.1-1.4-2.9-2.7-5.1-2.9-4.9-.9.8 1.7 55.8 3.1 67.2 3.6 30.3 10.5 58 20.2 81.5 11.9 29 32.4 59.5 52.7 78.8 15.3 14.4 25.5 19.9 53.1 28.6 18.1 5.8 23.3 8.5 27.4 14.2 4.2 5.7 5.9 10 8.1 20.1 1 4.7 2 8.7 2.3 8.9.2.2 3.2-2.6 6.7-6.3 3.5-3.8 18.1-18.7 32.5-33.3 14.4-14.6 27.9-28.8 30.2-31.5 9-11.1 21.3-27.8 21.3-29 0-.6.9-2 1.9-2.9 1.8-1.7 1.9-1.6 2.9 3.1.6 2.6 1.8 10.1 2.8 16.5 1 6.8 2.3 11.8 2.9 11.8 1 0 32-61.7 36.4-72.8 13.8-33.8 21.4-67.2 25.7-111.7 2.3-24 2.3-86.2 0-111.3-3.3-36.4-9-61.3-16.7-73.2-2.1-3.3-4.3-6-4.8-6-.9 0-19.7-21.1-38.3-43-5.8-6.9-11.5-13.4-12.7-14.4-1.1-1.1-2.1-2.5-2.1-3.3 0-.7-.9-1.3-2-1.3-2.4 0-2.4.2-.3 4.3 3.9 7.6 11.8 45.5 9.9 47.5-.4.3-7.8-6.4-16.4-15-10.7-10.7-20.4-19.3-30.6-26.9C448.4 8.1 434 1.4 409.5.5c-6.6-.2-14 0-16.4.5zm28.6 46.1c17.3 7.6 36.7 17.4 45.8 23.3 11 7.2 19.4 14.4 45.2 38.7 12.2 11.5 22.4 20.9 22.6 20.9.3 0 .8-1.8 1.2-4 1.4-8.4 2.9-5.4 7.1 14.5 11.6 55.1 12.4 60.9 12.4 87.1 0 29.9-1.7 47.5-7.5 78.9-6 32.6-15.5 73.8-17.5 75.9-.8.8-3.9-7.9-5.5-15.4-1.1-5.3-2.5-7.6-3.6-5.9-.5.8-.9 2.7-.9 4.3 0 7.8-13.8 38-23 50.7-6 8.1-20.6 23.9-22.2 23.9-2.2 0 .5-21.2 4.2-32 3.3-9.7 10.4-23.9 14.7-29.2 2.1-2.5 7.4-8.6 11.7-13.5 16-17.9 22.6-32.8 22.6-51 0-6.1-.1-6.3-2.5-6.3-1.4 0-12.5 2.3-24.6 5.1-12.2 2.7-22.4 4.8-22.7 4.5-.2-.3 1.3-2.9 3.5-5.8 4.5-5.9 14.8-24.2 19.4-34.6 7-15.4 12.2-33.2 15.5-52.7 2.6-14.8 2.6-49.9 0-61.5-6-27.4-21-52.5-42.3-70.6-3.5-3-6.8-5.2-7.3-4.9-.7.5 4.8 12.1 8.4 17.7 2 3.1 19.3 43.6 22.1 51.9 2.9 8.3 4.5 32.4 2.5 38.3-.6 2-1.5 3.6-1.8 3.6-.8 0-6.7-9.9-11.9-20l-3.8-7.5-.3 4.3c-.2 2.4.2 7.5.7 11.2 2.4 15 1 51.4-2.4 65.5-3.6 14.5-17.2 35.4-33.8 51.8-6.1 5.9-10.7 11-10.4 11.3.3.4 3.5-.1 7-1.1 3.6-1 6.9-1.6 7.5-1.4.9.4-5.8 10-14.4 20.6-1.9 2.3-3.4 4.3-3.4 4.5 0 .7 21.2-1.2 35.4-3.1 21.5-3 21.2-3.1 14.9 2.7-12 10.8-25.7 29-33.1 43.7-8 16.2-10.9 27.2-13.2 51.5-.6 6.3-1.2 11.6-1.4 11.7-.1.2-5.9-1.2-12.7-3.1-14.6-4.1-32.8-11.4-49.3-19.9-13.3-6.9-23.4-15.4-31.2-26.3-8.2-11.5-17.1-33-22.3-53.9-2.4-9.7-10.1-49.1-10.1-51.7 0-2.1-.3-2.1 16.9 1.3 9.1 1.9 16.1 2.4 16.1 1.4 0-.4-.7-1.9-1.5-3.5-2-3.9-8.1-28.9-10-41.5-1.1-6.6-1.8-20.6-2.2-41.6l-.6-31.5 4.3-14.5c8.7-29.1 15-42.4 29.8-62.2 14.2-19.1 26.7-30.4 46.5-41.9 2.6-1.5 4.7-3.5 4.7-4.4 0-.9-1.4-3.4-3.1-5.5-1.7-2.1-2.8-3.9-2.5-3.9.3 0 5.8 2.3 12.3 5.1zm345.4-34.5c-11 1.6-26.6 5.5-35.4 8.8-13.8 5.2-31.9 15.6-46.2 26.4-14.4 11-39.6 38.2-35.4 38.2 1.2 0 8.4-4.1 15.2-8.5 4.2-2.9 4.8-1.8 1.3 2.8-9 12.1-23.1 42-31.1 66.3-7.2 21.8-20.1 76.2-20.8 87.4-.4 6.4-.3 6.4 1.4 4 1-1.4 4.5-6.2 7.8-10.8 3.4-4.5 6.1-8.7 6.1-9.2 0-.6.5-1 1-1 1.3 0 1.3 1.2-.4 6.2-1.4 4.1-10.1 35.7-16.7 60.4-2.8 10.9-3.2 13.6-3.6 31.4-.7 26.8.8 35.4 11.9 67 2.8 8 6.1 16.6 7.4 19.2 1.4 2.7 2.1 4.8 1.8 4.8-.4 0-2.6-1.7-4.9-3.8C615 392 612 389.8 612 391.8c0 3.5 2.2 8.5 9.8 22.2 9.8 17.8 16.5 27.2 29.1 40.2 20.5 21.4 37.5 31.3 76.7 44.8 34.5 11.8 93.5 29 99.8 29 3.1 0 3.6-.3 3.2-1.8-.3-.9-1-4.6-1.6-8.1-1.1-6-1-6.6 1.5-11.6 3-6.2 10.2-13.2 26.5-26 23.7-18.4 47.2-45.6 64.2-74.3 7.9-13.2 23.5-43.8 29.5-57.7 3.6-8.2 11.3-31 11.3-33.2 0-.7-.7-1.3-1.5-1.3s-1.5.7-1.5 1.6c0 .9-.9 2.8-2.1 4.2-3.8 5-14.5 19.7-17.8 24.4-1.7 2.7-3.7 4.8-4.2 4.8-.6 0-.8-.3-.5-.8.6-1 9.8-31.6 12.4-41.2 2.5-9.1 7.7-33.8 9.8-46.9 1.3-7.3 1.8-19.3 2.1-49.5.5-42.1.1-50.6-2.3-50.6-.9 0-1.4 1-1.4 2.7 0 3.7-8.2 35.2-12.5 48.1-6 17.7-12.4 31-14.5 29.7-1.1-.7-2.8-14.3-3.5-28-1.5-27.5-5.5-52.7-12-75.1-5.9-20.8-13-35.6-25.2-52.6-5.8-8.3-29.3-32.6-41.1-42.6-8.6-7.4-8.3-8.4 2.3-9.7 8-1 10.5-1.6 10.5-2.5 0-1.2-12.8-7.2-22-10.3-23.3-7.8-47.8-10.3-69.9-7.1zm26.2 44.3c1.7.6 1.6.8-.7 1.9-4.8 2.2-4.6 2.4 15.7 11.2 30.7 13.4 52.3 33.6 64.8 60.5 13.5 29.2 18.2 52.7 22.8 112.7.7 9.5 1.3 12.3 3.1 14.7 2 2.9 2.6 3.1 8.4 3.1 8.7 0 10.2 1.7 9.9 11.4-.2 13-4.8 27.7-12.8 41.1-4.6 7.8-17.2 25.2-19.8 27.4-2.9 2.4-1.9 3.9 3.3 5 2.8.6 5.8 1.1 6.6 1.1 2.3 0 .1 3.5-7 10.9l-6.1 6.4 6-.6c3.3-.4 8.3-1 11.2-1.3l5.2-.7-1.4 5.9c-1.8 7.7-8 21-14.4 30.7-10.2 15.6-26.6 30.3-65.3 58.7-9.9 7.3-18.3 12.8-18.8 12.4-.8-1-5-21.7-5-25.1 0-1.5.5-2 1.8-1.8.9.2 3.8.7 6.5 1 4.2.6 4.7.9 4.7 3.1 0 1.7.5 2.4 2 2.4s5.3-5.6 16.3-24.3c23.6-39.7 31.2-54 41-77.3 4.8-11.6 8.6-24.8 7.4-26.1-.3-.2-4.1.1-8.5.7-4.4.7-8.7 1-9.5.8-1.3-.2-.5-3.1 4.4-15.8 3.3-8.5 6.7-16.5 7.5-17.8 1.4-2.1 1.3-2.2-1.3-2.2-1.6 0-5.7.9-9.2 2-3.6 1.1-6.7 1.8-6.9 1.5-.2-.2.7-1.9 2.1-3.7 6-7.9 9.7-27.5 9.7-50.8 0-25.2-3.1-35.2-18-58-10.3-15.8-36-40.1-36-34 0 .5.7 1.3 1.5 1.7 2.5 1.4 18.1 25.6 22.4 34.8 5.2 10.8 11.4 29.7 13.2 39.5.7 4.1 1.3 13.6 1.2 21 0 22.8-5.3 38.3-19.3 57-8.2 10.9-15.2 18.3-22.9 24.3-2.9 2.3-4.9 4.3-4.4 4.4 1 .4 20.4-6.6 31.5-11.3 3.2-1.3 6.2-2.4 6.8-2.4 1.3 0-9.8 13.4-23.8 28.7-6.7 7.4-8.8 10.3-7.5 10.3 1.1 0 9.8-2.5 19.4-5.5 9.5-3 18-5.5 18.7-5.5 1.9 0 1.5 9.3-.8 18.4-3.9 15.5-10.4 23.1-27.6 32.5-12 6.6-25.4 15.1-31.2 19.8-2.4 1.9-4.4 3.4-4.6 3.2-.1-.2-2.3-5.8-4.9-12.4-6.4-16.7-7.6-19.5-8.5-19.5-2.9 0-8.7 20.7-10.2 35.8-1 10.8.2 35.6 2.2 45.3.6 3.2.9 6.2.5 6.5-1.8 1.8-49.8-21.4-75.7-36.5-14-8.2-20-12.7-20-15.1 0-.4 2.4-1.1 5.3-1.5 9.1-1.1 9.2-1.2 6.3-4.9-3.9-5.2-14.8-25.2-18.9-34.7-13.7-31.9-16.1-60-8.1-94.4 3.4-14.6 14.9-53.6 22.4-75.7 1.7-4.8 3-9.1 3-9.6s-3.6-.2-8 .6c-4.5.8-8.3 1.2-8.6.9-1.3-1.3 15-56.1 21.7-73 7.6-19.1 18.3-38.2 25.7-46 8.6-9 31.2-21 44.5-23.7 5.2-1 36.5-1.1 39-.1zm263.4 185.9c-17.1 11.3-34.6 34.1-50.6 66.2-16.4 33-25.5 60-31 91.9-1.1 6.2-2.2 11.5-2.5 11.8-.2.3-1-1.4-1.6-3.7-2.8-10.5-4-21.9-4.6-46.2l-.7-26.1-2.4 2.9c-4.9 6.2-16.9 36.3-21.6 54.6-2.9 10.8-6.2 27.9-7.7 39.3-2.9 22.9-2.9 64.4 0 87.5 5.3 41.1 18.4 81.5 53.5 165.5 13.7 32.9 19.4 49.4 20.2 58.7.3 3.8.3 6.8 0 6.8-.7 0-13-15.2-17-20.9-1.6-2.3-3.2-4.1-3.7-4.1-1.1 0 0 4.1 1.6 6 .7.9 5 9.1 9.4 18.2l8.1 16.7 1 13.3c.5 7.3 1.1 13.8 1.4 14.5.2.8 2.4.5 7.7-.9 10.6-2.8 30.5-2 43.3 1.8 7.5 2.2 11.5 2.7 24.7 3.1 30.6 1 47.5-4.1 78.2-23.5 9.5-6 14.2-9.8 23.2-19.1 34.3-35.2 58.5-77.5 78.1-136.1 8.4-25.2 16.4-56.7 16.3-64.2-.1-2.1-.3-2.1-3.1 1.2-1.7 1.9-8.2 9.9-14.5 17.7-6.3 7.8-11.9 14.5-12.5 14.9-.8.5-1-.4-.6-2.7.3-1.9 1.7-10.4 3-18.9 4.1-25.4 5-39.2 5.1-78 .1-51.1-1.8-67.8-15-134-5-24.7-7.3-34-8.4-34-.5 0-1.3 2.2-2 4.9-2.1 8.7-5.8 19.5-6.8 19.9-.5.1-1.3-1-1.6-2.5-2.3-8.9-22.5-50-32.5-65.7-8.5-13.2-10.3-17.2-9.9-21.4.5-5.6 4.4-7.2 18-7.2 5.9 0 10.9-.4 11.2-.9 1.2-1.9-.8-4.2-6.2-6.8-5.7-2.8-5.8-2.8-26.2-2.8-15.5 0-22.7.5-29.2 1.8-23.9 4.8-51.2 17.9-74.7 35.9-8.5 6.5-12.7 8.6-14.3 7-1.9-1.9-1-13.4 2.2-28.2 4.5-20.2 4.3-20.6-5.3-14.2zm92.8 59.6c7.7 4.5 19 21.6 26.6 40.1 2.2 5.5 7.1 19 10.9 30 8.5 24.9 8.6 25.3 11.6 29.2 1.9 2.6 3.3 3.3 5.8 3.3s3.5.6 4.4 2.4c3.1 6.8 4.5 17.4 6.7 49.6 2.9 43.1 1.8 64.4-6 113-3.3 20.5-4.3 31.1-3.4 37.7 1 7.3 2 8.3 8.5 8.3 6.3 0 7.2 1.4 4.9 8-5.1 14.4-32.1 56.2-48.4 74.9-11.6 13.2-27.3 23.9-46.6 31.8-6.4 2.6-14.5 4.3-14.5 3 0-.1 3.8-4.1 8.4-8.9 6.8-7.1 9.4-10.8 13.9-19.5 6.2-12.1 17.7-39.3 19.6-46.5 1.5-5.2 3.1-5.5 3.2-.5 0 1.8.6 5 1.3 7.2l1.1 3.9 2.2-3c3.9-5.4 22.1-54.5 28.2-75.8 8.1-28.3 9.5-40 9.5-81.1 0-34.6-.3-39.9-4.6-66.3-2-12.5-2.2-13.2-4.4-13.2-1.3 0-2.6.5-2.9 1-.7 1.2-14.8 10.8-17 11.6-1.2.5-1.5-.6-1.5-6.4 0-8.1-3.5-19.5-10.2-32.7-5.8-11.6-23.5-38.2-25.9-38.8-1-.3-1.9-1.1-1.9-1.9 0-1.3-5.7-4.4-6.6-3.5-.2.2 1.3 3.8 3.5 7.8 5.9 11 19.4 41.2 22.5 50.4 3.5 10.1 4.4 27.6 2.7 51-.6 8.8-1.4 20.3-1.7 25.5l-.5 9.5 3.1-3.5c1.7-1.9 9-11.8 16.2-21.8 7.1-10.1 13.4-18 13.8-17.5 1 1-.6 51.4-2 64.3-3.8 34.7-9.2 53.7-25.1 88.3-3.4 7.3-6.4 13.6-6.8 14-.4.4-2.7-6.6-5-15.5-5.5-20.9-5.5-21.1-6.8-21.5-.6-.2-1.2 4.2-1.6 12.1-.7 13.5-3.4 26.1-11.2 52.1-5.4 18.1-7.4 22.3-13.9 29.3-8.2 8.8-28.5 26.5-37.7 32.8-4.4 3.1-11 6.4-16.3 8.3-5 1.8-9.6 3.7-10.3 4.3-1.8 1.4-1.9.8-3.3-16.7-2.6-32-4.4-37.7-32.4-98.5-33.6-72.8-36.3-82.1-37.3-127.7-.6-25.8.2-35.7 3.4-46.5l1.5-5.3 2.1 4c2 3.9 12.9 29.9 16.9 40.5 2 5.1 2.2 5.3 2.8 2.9.4-1.4 1.1-6.6 1.4-11.5 1.1-12.8 6.2-48.8 8.7-60.2 3.9-17.8 9.3-29.3 22.7-48.4 8.7-12.3 13.3-17.3 15.4-16.6.9.3 1.6 4.3 2.3 13.8 1.1 14.2 2.3 16.9 4.8 10.8 2.1-5 14.3-24.4 19.8-31.4 11.3-14.3 25.7-23.9 51.9-34.5 11.6-4.7 17.3-5.1 23.5-1.5zM144.3 317.2c.3 1.8.8 4 1.1 4.8.5 1.3-1 1.5-9.7 1.6-12 .2-18.4 1.8-39.9 9.7-17 6.3-16.3 6.6-12.7-5.5 1.1-3.9 1.8-7.3 1.5-7.6-1.9-1.8-23.8 15-35.7 27.4-7.8 8.1-13 16-16.9 25.4-3.5 8.5-6.7 21.3-7.6 30.7-.3 4-1 7.3-1.4 7.3-.5 0-2.4-2.8-4.4-6.3-5.6-9.8-5.2-9.5-7-5.2-.9 2.1-2.9 10-4.3 17.4-2.5 12.8-2.7 15.4-2.7 42.1-.1 39.6 3.5 66.5 13.3 100 6.7 23.2 22.6 55.4 32.4 65.7 3.8 4 2 4.3-2.5.5-1.8-1.5-5.7-4.5-8.5-6.6-2.9-2.1-5.3-4.1-5.3-4.6 0-.4-3.6-4.3-7.9-8.6-8.4-8.3-20.9-25.9-21.8-30.7-.5-2.6-2.7-4.6-3.8-3.5-.2.2.9 6.2 2.5 13.3 3.6 15.8 3.8 20 1 21.5-2.6 1.4-2.6 6.5-.1 18.5C9.6 651.1 19.8 672 37 692.6c9.5 11.3 28.9 27.7 38.5 32.7 6.4 3.2 2.5 3.1-11-.3-6.9-1.7-13-3-13.7-2.8-.6.2.8 1.6 3.3 3 2.4 1.3 11.1 6.6 19.3 11.6 17.2 10.6 17.6 10.1-6.9 7.7-22.1-2.2-20.8-2.3-20 2.7 1.4 8.5 15.2 28.8 26.8 39.4 15.8 14.3 52.8 35.1 81.2 45.5 29.6 10.8 43.9 13.7 70.1 14.2l13.2.2-.2-19.5c-.1-22.7.9-27.4 9.1-41.9 8.4-14.8 18.7-23.1 34.7-28 6.5-2 19.5-2.9 20.9-1.4.9.8-12.2 8.2-14.6 8.3-1.2 0-1.7.6-1.5 1.7.3 1.5 1.6 1.9 7.5 2.1 9.1.4 13.3-1.6 21.8-10.2 10.2-10.3 16.5-25.3 20.1-47.9 3.1-19.6 3.4-94.4.4-114.2-2.6-17.6-9.9-40.5-19.1-60.4-2.1-4.6-3.9-8.6-3.9-8.8 0-.7 8.7 9.1 13.4 15.1 2.3 2.8 4.5 5.3 4.9 5.5.4.1 1.9 2.1 3.3 4.2 1.3 2.1 2.8 3.9 3.4 3.9 3 0 4.1-24.2 1.6-36-5.8-27.2-24.4-63.1-49.6-96-15.1-19.7-50.6-52.5-77.5-71.6-22.9-16.3-60.4-37.4-66.4-37.4-2.1 0-2.3.3-1.8 3.2zm17.2 73.3c18.5 3.9 36.3 13.6 66.3 36.3 17 12.8 20.4 15.8 26.5 23.7 17.1 22 24.6 36.3 26.8 50.8 1.4 9.2.2 12.6-4.9 14.1-6 1.7-5.6 6.9 2.4 30.8 12.4 37.1 14.4 47.7 14.4 75.9 0 23.7-1.5 35.8-7.2 58.4l-4.3 17-4 1.9c-5.9 2.9-11.3 2.7-13.7-.6-4.1-5.4-2.1-21.2 4.9-38.5 1.9-4.8 4.1-12 4.9-16.1 1.5-7.9 1.9-22.8.6-23.6-.4-.2-3.4 4.7-6.7 11-3.3 6.2-6.3 11.4-6.6 11.4-.3 0-.7-6-.8-13.3-.3-22.6-2-49.5-3.7-57.5-2.4-11.6-8.8-30.3-14.5-42.1-4.9-10.3-20.9-37.9-25.1-43.3-1.2-1.5-1.9-3-1.6-3.3.3-.3 6.8 1 14.4 2.8 20.2 5 20.4 5.1 20.4 2.6 0-1.2-1.7-5.3-3.7-9.3-3-5.6-6.7-10.1-18.3-21.7-8-8-17.6-16.9-21.5-19.7-14.2-10.4-51.6-26.6-59.9-26l-4.1.4 6.7 3.2c9.2 4.4 38.2 21.1 47.2 27.1 10.3 7 21.2 16.8 24.1 21.8 1.4 2.3 2.5 4.5 2.5 4.9 0 .4-8.8.4-19.5.1L184 469l1.7 2.8c1 1.5 3 4.3 4.4 6.2 7.4 9.5 28.4 48.6 35.8 66.4 9.8 23.5 13.1 39 13.1 61.2 0 21.2-4.7 50.4-10.1 63.1-1 2.4-1.4 4.3-.9 4.3 1.5 0 14.8-3.8 16-4.5 1.7-1 1.1 2.2-.7 3.6-2.2 1.9-7.9 14.4-9.8 21.5-.8 3.2-1.9 9.3-2.5 13.7-1.2 10.1-4.3 16.7-11.3 24.6-3.1 3.4-7.2 8.7-9.2 11.7-6.3 9.5-12.8 25.6-14 34.7l-.6 4.8-3.7-.7c-11.2-1.8-27.7-7.2-37.4-12-6.5-3.3-29.5-18-33-21.1-3.1-2.8-2-3.3 6.2-3.3 9.5 0 9.8-.5 5-10-4.6-9.2-4.8-9 8.5-9 14.4 0 14.9-1.2 2.2-5.9-14.4-5.3-31.3-12.7-37.9-16.7C95.2 698 79 681.3 79 676.9c0-1.8.9-1.9 12-1.9 7 0 12-.4 12-1 0-1.7-6-7.7-9-9-1.6-.7-3.2-2-3.5-2.9-.3-.9-2.7-3.2-5.3-5.1C78 651.7 72 646.6 72 645.9c0-2 7.9-2.8 32.5-3.3 25.8-.4 32.5-.9 32.5-2.6 0-.4-2.6-2.3-5.7-4.3-19.2-11.8-37.7-28.5-50.1-45.1-15.9-21.4-22.7-41-25.2-73-1.1-14.2-1.4-63.9-.3-64.9.3-.4 2.7.9 5.3 2.7l4.8 3.4-.6-16.7c-.4-15.4-.3-17.3 1.8-23.7 2.1-6.6 7.8-17.4 9.1-17.4.9 0 1.9 8.1 1.9 14.6 0 6.2 1.1 6.9 2.8 2 2.5-6.8 13.9-20.1 20.7-24.1 3.5-2.1 9.1-3.5 19-4.9 6.5-.9 33.3.3 41 1.9z"/><path d="M559.5 525.6c-1.6.2-6.6.9-11 1.5s-14.7 2.4-23 4c-23.4 4.6-25.4 5.7-14.9 8 3 .7 5.1 1.5 4.7 1.9-.4.4-5.3 1.9-10.8 3.5-27.4 7.6-46.2 19.1-70 43-15.5 15.4-23.4 26.1-30.6 41-9.2 19.1-15.1 39.4-23.9 81.5-6.9 33.1-15.7 63.7-18.7 64.7-.7.3-1.3-1.6-1.7-5.1-.3-3.1-.9-8.1-1.2-11.1-.3-3-.9-5.5-1.3-5.5s-1.3 2.2-1.9 4.8c-1.4 6.3-9.9 21-16.5 28.9-7.4 8.7-15.6 15.7-45.7 39.2-31.9 24.8-51.6 43.7-62.2 59.6-12.1 18.1-22.2 41.4-26.5 60.8-2.7 12.5-2.5 42.5.6 56.7 7 32.9 25.7 68.7 47.1 90.1 10.6 10.7 14.9 13.3 33.1 20 16.9 6.2 26.3 11.2 42.7 22.9 4.8 3.3 7.4 4 5 1.2-.8-.9-3.6-5.5-6.3-10.2-9.9-17.5-9.5-16-3.7-13.1 2 1 12.8 4.8 24 8.5l20.2 6.6 12.3-.1 12.2-.1-7-2.2c-3.8-1.3-11.7-4.5-17.5-7.3-9.6-4.5-10.6-5.3-11.8-8.7-.8-2.1-1.1-4-.8-4.3.9-.9 42.4 14.6 52.9 19.7 14.1 7 24.6 14.4 40.3 28.6 44.6 40.3 90.6 69.4 122.9 77.9 17.4 4.5 49.6 4.5 72 0 10.7-2.1 26.9-7.1 32.7-10.1 5.2-2.6 12.8-9.4 12.8-11.4 0-1.7-4.8-.7-13.9 3-5.2 2.1-10.3 3.3-17 4-9 .9-31.4 1.9-30.9 1.5.2-.2 8.4-3.8 18.3-8 42.6-18.4 51.1-23.2 98.1-55.3 15.2-10.3 28.1-17.8 55.2-32.2 18.2-9.6 39.2-19.5 39.2-18.4 0 .3-.7 1.9-1.7 3.7-3 5.8-9.3 26-10.8 34.6-.8 4.6-1.5 13.8-1.5 20.4v12.1l3.8-6.3c10.9-18 38.7-37.5 66.7-46.6 11-3.6 26.5-6.9 52.4-11 25-4 37.8-8.7 53.9-19.8 8.7-6 11.2-8.9 15.8-18 6-11.7 7.5-19.7 8.1-41.3.5-15.2.2-21.2-1.1-29.5-1-5.7-1.9-11.2-2.2-12.2-.5-1.6-.1-1.6 4.8.4 2.9 1.1 5.9 2.5 6.5 3.1 2.5 2 1.4-5.1-2.3-14.3-4.6-11.9-4.3-13.6 1.6-8.4 2.5 2.2 6.9 6 9.9 8.4l5.4 4.5-.6-18.5c-.6-19.5-1.2-23.1-7.9-44.4-10.9-35.1-21.3-53.3-68.1-119.5-8.8-12.4-16.1-23-16.4-23.6-.2-.6 3.9-1.5 11.4-2.3 6.5-.6 12.2-1.6 12.6-2 .5-.5-.9-1.9-3-3.1-6.9-4.2-19.4-17.6-26.6-28.5-3.9-6-11.6-24.6-19.7-48-12.8-36.7-23.3-60.8-33.7-77-15.7-24.3-37.8-38.5-72.3-46.4-12.8-2.9-21.7-4.1-41.6-5.5-10-.7-18.6-1.6-19.3-2-.6-.4-.8-1.8-.5-3 .5-2.1.1-2.4-3.3-2.9-2.1-.2-10.3 0-18.3.6-8 .5-31.3 1-51.8 1.1l-37.4.1-2.4-2.8c-3.8-4.5-2.2-6.1 10.9-10.9 7.7-2.8 6.6-3.3-25.3-11.3-11.8-3-26.7-6.4-33-7.5-10.8-2-33.9-3.4-40.5-2.4zm29.1 73.8c4.5.8 9.8 2.1 11.8 3 3.5 1.5 3.6 1.6 3.6 7.2 0 5.5.2 5.9 4.4 10 4.5 4.3 14.8 9.7 24.1 12.7 11.9 3.9 33.3 4.6 75.1 2.6 16.3-.8 22.9-.8 23.7 0 .8.8.5 2.3-1.1 5.6-2.7 5.7-2.7 5.7 13.1.5 15.2-5 26.9-7 41.7-7 26.9 0 39.2 5.2 58.6 24.5C859.3 674 864 683.6 874 720c6.2 22.6 9.5 33 12.6 39.2 3.1 6.2 3 7.4-.8 9.4-5.8 3-6.2 5.7-1.9 14.2 5.4 10.7 25.5 37.2 39.2 51.6 18 19.1 32.1 40.6 40.3 61.3 3.8 9.5 9.3 29.3 9.8 35.3l.3 3.5-9.2 1.1c-16 2-15.4 1.1-7.1 10.9 3.9 4.7 7.5 8.5 8 8.5.4 0 .8.4.8 1s-3.2 1-7.6 1c-4.1 0-7.3.4-7 .8.3.5 2.1 8 4.1 16.8 8.2 36 5.1 59-9.8 73.2-6.7 6.2-13.7 9.8-29.7 15-16.7 5.5-20.9 6.1-45.2 6.9-19.4.6-20.8.5-20.8-1.1 0-1 4.1-7.5 9.2-14.4 13.9-19.2 14.8-20.5 14.4-21.1-.2-.3-6.9-.3-14.8 0-23.4 1-47.6 7.8-72.8 20.4-6.3 3.1-14.5 7.5-18.2 9.6-3.6 2.2-7.1 3.9-7.7 3.9-2.6 0-.7-30.6 2.5-41.8 2-7.2 8.1-19.8 10.8-22.4 3-3 24.8-13.2 33.4-15.7 3.9-1.2 10.9-2.6 15.5-3.1 10.8-1.3 32.4-.2 34.3 1.7 1 1.1 1.4 4.2 1.4 11.9 0 5.7.2 10.4.5 10.4 1.9 0 12.6-6.4 14.3-8.4 1-1.4 2.9-5.7 4.2-9.6 2.7-8.5 2.4-16.1-1.2-26-2.6-7-11.7-21.3-14.8-23.3-1.1-.6-2-1.7-2-2.4s-.6-1.3-1.3-1.3c-.8 0-2.2-.9-3.2-2-1.8-2-1.7-2 1.6-2 1.9.1 6.8.5 10.9 1 4.1.4 7.7.6 8 .4.2-.3-7.1-7.9-16.4-17-9.2-9-16.3-16.4-15.8-16.4s7.9 2.7 16.3 5.9c42.5 16.3 50.2 19.2 50.6 18.8.7-.7-3.6-10.6-9.9-23-5.5-10.8-6.6-12.2-12.2-16.3-17.5-12.9-30.2-20.6-68.9-41.6-27.4-14.8-41.6-23.1-50.4-29.4-13.2-9.4-22.1-23.1-24.2-37.1-1.3-8.2-1.5-22-.3-22.6.4-.2 4.8.4 9.7 1.4 14.7 2.9 17.2 2.2 9-2.7-6-3.5-18.6-17.3-22.7-24.9-3.2-5.9-3.3-6.3-3.2-18 0-10.1.4-12.8 2.2-16.9 2.6-5.7 2.6-5.6.8-5.6-1.7 0-7.3 6.2-8.9 9.9-.6 1.5-1.3 11.2-1.6 22.2-.5 16.6-.9 20-2.3 21.6-5.2 5.8-4.7 37.4.8 52.2 8.5 22.5 33.4 46.1 74.9 70.7 5.5 3.3 11.2 6.6 12.8 7.3 4.9 2.5 4.4 2.7-16 6.2-10.1 1.7-10.5 2.1-6.2 6.6 2 2.1 7 8.1 11.1 13.3 4.1 5.2 8.2 10.1 9.1 10.9.9.7 1.7 1.7 1.7 2.1 0 .4-4.4 1-9.7 1.4-5.4.4-11.5 1-13.5 1.3l-3.7.5 3.2 2.3c5.6 3.9 25 17.4 30.2 21.1 2.8 1.9 5.7 3.9 6.5 4.4.8.5 1.2 1.1 1 1.3-.3.3-8.4 1.5-18 2.7-31.8 3.9-51.1 9.1-71.6 19.1-31.2 15.2-59.8 42.4-67.5 64.3-5.2 15-4.6 33.4 1.6 45.7 4.4 8.8 21.7 27.5 29.2 31.7.8.5 1.3 1.4.9 2-.3.5-5.7 4.4-11.8 8.5-13.3 8.8-39.8 22.6-55 28.5-11.5 4.5-40.8 13.2-44.5 13.2-4.9 0-2 1.8 4 2.5 5.3.6 10.6 1.6 21.7 4.1 2.4.5 2.4.6.5 1.7-3.2 1.8-36.4 1.3-44.8-.7-13.5-3.2-16.1-5.1-65.8-47.7-15.2-13-31.8-27-37-31.1-30.9-24.6-64.5-42.6-106.7-57.2-9-3.1-16.5-5.6-16.8-5.6-.2 0-.4 2.9-.4 6.5s-.4 6.5-.9 6.5c-.4 0-5.6-2.3-11.5-5-5.9-2.8-11.1-4.8-11.6-4.5-.4.3-1.6 2.7-2.6 5.5-1.3 3.5-2.3 5-3.6 5-4.6 0-15.4-16.3-18.3-27.8-3.8-14.7-3.5-51.5.6-68.2 2.9-12.1 10.9-28.1 23-46s21.9-28.4 35.6-37.9c6.9-4.7 11-8.5 16-14.7l6.8-8.4.9 7c.5 3.8 1.3 7 1.9 7 3.5 0 17.3-21.2 22.9-35.4 3.9-9.8 11.5-32.6 17.7-53.1 26.2-86.9 32.8-103.3 48.9-120.6 14-15.2 40.5-27 75.2-33.4 18-3.3 17.4-3.1 16.5-5.3-2.2-5.3-2.4-5.2 7.1-5.2 4.9 0 12.6.6 17 1.4z"/></svg>