<svg version="1.0" xmlns="http://www.w3.org/2000/svg" width="1706.667" height="1693.333" viewBox="0 0 1280 1270"><path d="M130.2 2c-4.1 1.1-14.6 5.2-23.5 9.1C91.8 17.7 90 18.3 84 18.3c-3.6-.1-9.8-.8-13.8-1.7-9.4-2.1-17.6-2-23.8.1-6.7 2.2-16.8 12.2-18.4 18.2-3.1 11.6 6.9 30.9 26.3 50.5 22.6 22.8 43.9 32.5 59.8 27.1 22.3-7.7 50.8-53.6 53.5-86.3.7-8.7-.5-14.5-3.8-18.7-5.2-6.6-20.4-9.1-33.6-5.5zm502.3 8.4c-4.6 2-11 9.6-13.5 16.2-3.1 8.2-3.9 24.3-1.6 34.6 3.5 15.5 11.8 28.2 21.9 33.3 5.7 2.8 8.2 3 13.8 1.4 16.1-4.9 23.6-32.9 15.4-57.6-7.4-22-22.6-33.8-36-27.9zm514.5 2.1c-25.5 5.7-43.3 28.2-35.1 44.3 4.5 8.8 12.5 12.7 26.1 12.7 15.5 0 29.9-6.1 39.3-16.5 6.6-7.4 8.2-11.2 8.2-20.1 0-6.8-.3-7.9-2.9-11.3-3.2-4.3-7.5-7.1-12.6-8.6-6.3-1.8-16.2-2-23-.5zM893 16c0 1.1.9 2.7 1.9 3.6 1 .9 3.6 3.2 5.7 5.1l3.7 3.4-3.1 2.8c-3.9 3.7-4.8 8.3-2.7 14.1 2.4 6.6 7 20.6 9 27.5 3.9 13.5 11.2 17.2 25.3 12.8 13.6-4.3 20.2-20.9 13.8-34.8-4.5-9.9-15.8-19.8-25.6-22.6-2.5-.7-5.6-2.2-7-3.4-4-3.5-7-5.2-14.2-7.9-6.6-2.5-6.8-2.5-6.8-.6zM360.2 33.5c-4.1 1.9-8.9 4.8-10.8 6.5-1.9 1.6-4.3 3-5.3 3-4.1 0-14.1 6.2-19.9 12.5-12.6 13.4-13.5 28-2.3 39.6 9.3 9.5 25.3 9.9 30.9.7 1.1-1.8 3.4-8.3 5.1-14.3 1.7-6.1 4.3-13.6 5.6-16.8 3.9-9 3.2-14.8-2.2-19.2l-2.5-2.1 4.3-3.7c2.4-2 5.2-4.4 6.2-5.2.9-.8 1.7-2.2 1.7-3 0-2.3-2.8-1.8-10.8 2zM799 35.8c0 1.7 4.6 5 7.8 5.7 1.8.4 4.6 1.8 6.2 3.1l2.9 2.5-2.6 4c-5.3 8-2.8 13.2 9 19.4 6.3 3.3 8.5 5.1 12.1 10 7.1 9.9 11 12.5 18.3 12.5 7.9 0 18.6-10 19.9-18.7 2.2-14.8-4.4-25.5-19.5-31.5-4.5-1.8-7.8-2.3-16.7-2.4-6.4-.1-12-.6-13.3-1.3-5.2-2.8-24.1-5.4-24.1-3.3zm-242.8 6.3c-26.5 13.4.7 74 34.4 76.7 8 .6 12.6-1 16.7-5.9 8.1-9.4 7.5-24.7-1.5-42.3-5.4-10.4-17.5-22.9-26.3-27.2-8.1-3.9-17.2-4.4-23.3-1.3zm488.2 5.3c-1.7.8-4.5 3.1-6.2 5.2-8.3 10-8.9 24.4-2.3 51.3 5.2 20.6 5.1 23.9-.5 38.1-5 12.9-5.7 21.5-2.1 29.3 2.8 6.2 8.7 13.1 13 15.4 6.9 3.5 21.7.8 36.8-6.7 24.3-12.3 45.6-32.1 52.5-48.8 5.7-13.9.6-28.3-16.6-46.5-16.7-17.6-38.2-31.7-56.2-36.7-8.4-2.3-14-2.5-18.4-.6zM448.3 52c-2.3.5-5.6 1.6-7.3 2.5-2.4 1.3-4.6 1.5-9.9.9-7.9-.7-16.3.7-23.9 4.3-7.2 3.4-10.8 6.7-13.9 12.7-2.2 4.2-2.7 6.4-2.6 12.2.1 7.8 1.3 10.9 6.6 16.6 4.5 4.8 9 7 14.3 7 5.8 0 9.9-2.5 15.1-9.2 7.2-9.2 9.8-11.5 14.1-12.8 2.3-.7 6-3 8.2-5.1 4.9-4.7 5.2-7.9 1.1-14.3l-2.9-4.6 3.6-2.5c2-1.4 5.1-2.8 6.7-3.2 3.1-.7 6.5-3.1 6.5-4.7 0-1-10-.9-15.7.2zm253.6 10.8C691.3 68.3 685 81.7 685 98.4c.1 44.2 40.4 57.1 52.4 16.7 3.4-11.4 1.5-28.9-4.1-39.3-7.7-14.2-19.7-19.1-31.4-13zm500.2.3c-23.2 4.5-39.2 18.6-37.9 33.1 1.3 13.2 16.1 21.8 37.4 21.8 35.2 0 61-25.3 45.3-44.4-7.4-8.8-28.3-13.8-44.8-10.5zm-1032 12.6c-4.2 2.2-6 3.9-8.4 8.2-2.7 4.7-3.1 6.4-3.1 13-.1 24.5 20.5 49.5 40.8 49.5 11.4-.1 18.4-6.1 20.8-17.8 4.7-23.5-16.4-53.3-39-55.3-4.9-.4-6.5-.1-11.1 2.4zm599.9 7c0 2.4 7.2 13.1 12 17.8 2.2 2.1 4 4.8 4 6 0 1.1 1.1 4.4 2.5 7.3 8 17.3 22.1 26.4 35.8 23.3 9.8-2.2 16.3-8.6 19.3-18.7 1.2-4.1 1.3-6.2.4-9.2-1.3-4.9-7.4-10.7-12.7-12.1-2.1-.6-6.4-1.7-9.6-2.6-4.3-1.2-7.2-2.8-11.3-6.6-8.7-7.9-12.8-8.7-17.8-3.7-1.8 1.8-3.7 4.2-4.3 5.2-1 1.7-1.4 1.8-4.1.7-1.7-.7-4.7-3-6.7-5.2-3.7-4.1-7.5-5.2-7.5-2.2zM26.8 85C19.2 87.3 10.9 95.3 6 104.9c-11.7 23.2-5.1 52.8 12.8 57 4.3 1.1 6 1 10.8-.4 10.7-3.1 20.9-15.9 24.9-31.1 6.9-26.6-8.2-51.3-27.7-45.4zm462.8 12.2c-1 .6-3.2 2.5-4.8 4.3-1.6 1.8-4.2 3.8-5.8 4.4-2.6.9-3.1.7-4.1-1.2-5.3-10.3-13.8-10.2-23.7.2-2.4 2.5-5.2 4.2-7.7 4.8-2.2.6-6.2 1.5-9 2.2-6.4 1.5-10.9 4.6-13.4 9.2-2.6 4.6-2.6 9.4-.1 16.2 3.6 9.7 12.5 15.6 23.5 15.7 8.1 0 14.5-3.1 21.6-10.7 6.2-6.4 9.2-11.6 10.9-18.6.8-3.1 2.7-6 6-9.5 7-7.3 12.9-18.2 9.8-18.2-.7 0-2.2.6-3.2 1.2zm464.4 6.9c-8.3 6.7-17.7 8.1-27 4-3-1.3-8.2-2.6-11.5-2.9-11.4-.9-18.8 4.2-29.8 20.6-8.9 13-10.7 22.3-6.3 31.9 1.4 2.9 4.5 7.1 6.9 9.5 7.9 7.7 9.4 13.7 7.3 28.9l-.9 5.7 4.2 4.4c8.6 9.4 24.1 12.8 35.5 7.9 14-6.1 42.3-44.4 52.2-70.9 5.6-14.9.5-29.5-13.5-38.4-5.6-3.5-13.2-3.9-17.1-.7zm-658.8 14.4c-5.3 2.3-13.8 11-16.2 16.8-4.6 10.5-2.3 22.3 7.7 40.7 8.2 15.1 26.1 39 35.4 47.4 12.4 11.1 30 11.3 42.4.4 5.3-4.7 7.1-9.2 5.6-14.5-2.9-10.3-.8-18.8 6.5-26.2 7.1-7.3 9.4-12.1 9.4-19.8 0-8.2-1.8-12.7-9.5-23.8-8-11.4-13.2-16.1-20.3-18.1-6.5-1.9-11.6-1.3-19.1 2.1-9 4.2-17.1 3.2-26.5-3.2-5.4-3.7-9.8-4.2-15.4-1.8zm241.3 4.8c-5.8 2.8-7.8 4.8-10 10-3.2 7.6-.8 20.8 5.5 30.7 4.7 7.3 14.9 16.4 22.7 20.1 5.6 2.7 8.3 3.3 15.3 3.7 7.5.3 9 .1 13-2 2.5-1.4 5.9-4.4 7.5-6.7 2.7-3.9 3-5 3-12.5s-.3-8.9-3.9-16.1c-5.2-10.6-14.4-19.8-25-25-6.4-3.2-8.9-3.9-15.4-4.2-6.6-.3-8.4-.1-12.7 2z"/><path d="M641 128.3c-13.5 3.8-24.3 17.5-31.9 40.3-5.3 16-7.4 28.3-7.5 44.9-.1 16.3 1.2 22.9 5.7 29.6 3.4 5.1 6.9 6.4 16.8 6.4 8 0 9.1-.3 17-4.2 5.3-2.6 13.6-8.3 22.4-15.4 7.7-6.2 15.9-12.1 18.3-13.1 2.7-1.2 8.4-2.2 15.8-2.8 13.2-1.1 15.5-1.6 20.6-4.1 8.2-4.2 16.8-16.9 16.8-25 0-24.5-66.3-64.4-94-56.6zm539.9 4c-6.7 1.9-13.5 6.3-16.4 10.5-3.2 4.7-3.4 13.6-.5 20 4.1 9 17 18.6 31.5 23.4 5.7 1.9 9.2 2.3 19 2.3 14 0 19.9-1.6 26.3-7 16.2-13.9 2.9-37.5-26.8-47.5-8.1-2.7-26.2-3.7-33.1-1.7zm-1046.5 4.1c-4.2 1.8-9 8-11.1 14.1-2.2 6.7-2.2 21.8.1 30.5 4 14.9 14.1 29.7 24.2 35.6 6.4 3.8 14.5 4.2 20.4 1.2 23.3-12.1 12.6-67.5-15.6-80.7-5.1-2.4-13.3-2.7-18-.7zM80 142.9c-7.7 2.4-15 9.3-19.5 18.5-11 22.7-7.1 55.1 7.9 65.3 4 2.7 5.8 3.3 10.3 3.3 6.8 0 11.5-2.3 17.4-8.7 8.6-9.1 13.2-22.7 13.2-38.8 0-19.6-6.3-33.3-17.8-38.6-4.2-2-7.4-2.2-11.5-1zM835.5 167c-2.7.5-8.8.9-13.3.9-12.7.1-18.2 3.8-18.2 12.1 0 3.7-1.4 3.8-6.3.4-2.6-1.7-4.8-2.4-7-2.2l-3.2.3 6 6.1c3.4 3.4 8.1 7.2 10.5 8.4 2.5 1.3 6.7 4.2 9.3 6.6 11.3 10.2 29.4 14.2 39.6 9 4.5-2.4 10.1-8.3 12.2-13 4.2-9.3 1.3-22.5-6-27.3-2.8-1.9-4.6-2.3-11-2.2-4.2.1-9.8.5-12.6.9zm279.8 6c-18 3.8-25 18.4-16.2 33.9 8.5 14.8 25.8 24.3 44.3 24.3 13.1 0 23.4-5.2 26.5-13.5 1.7-4.5 1.3-13.7-.9-18.5-2.4-5.3-10.7-14.1-17.1-18.3-10.1-6.4-26.6-10-36.6-7.9zm-707.9 9.1c-7.1 2-12.5 13.4-10.9 22.9 1.1 6.6 6.4 14.1 12.5 17.8 5.3 3.2 5.8 3.3 14.5 3 7.5-.3 10.1-.9 15.5-3.4 3.6-1.7 8.8-5.1 11.5-7.5 2.8-2.4 6.8-5.3 8.9-6.4 4.5-2.3 15.6-12.4 15.6-14.3 0-1.5-5.6-1.6-6.5-.2-.4.6-2.4 1.9-4.5 3l-3.8 1.9-.7-4.6c-.4-2.7-1.6-5.5-3-6.9-2.7-2.7-9.1-4.6-13.1-3.8-1.6.3-8.5-.2-15.4-1-13.8-1.8-16.1-1.8-20.6-.5zM111 247.7c0 1.6 1.1 4.5 2.5 6.5 1.6 2.4 2.5 5.1 2.5 7.6 0 3.8-.2 4-3.6 4.5-8.9 1.5-11 9.7-5.4 20.5 2.9 5.5 3 6.3 2.7 16.8-.3 13.3 1.4 17.4 8.4 21.2 3.8 2 5.3 2.3 11.1 1.9 3.6-.3 8-1.3 9.7-2.1 4.3-2.3 9.7-8.1 12.2-13.3 5.9-12.1-2.6-32.5-17.5-41.9-2.7-1.7-5.1-4.3-6.4-6.9-2.1-4.4-11.2-14.9-14.3-16.6-1.6-.8-1.9-.6-1.9 1.8zm1038.6 11.2c-1.1 1.7.1 5.7 2.5 9 1.1 1.5 2.4 4.4 2.9 6.4l.8 3.6-5.3 1.6c-9.1 2.6-11 9.5-5.5 19.9 2.9 5.4 3 6.1 2.8 16.9-.1 8.8.2 11.9 1.5 14.3 2.3 4.4 7.1 8.2 11.3 9 4.6.9 13.8-.2 17.3-2.1 3.6-1.8 8.5-7.4 11.2-12.7 3.1-6.1 2.4-17.3-1.7-24.8-3.7-6.8-10.2-14.1-15.8-17.6-2.8-1.8-5-4.2-6.1-6.7-2.3-5.3-14.9-18.5-15.9-16.8zm-228.7 2.2c-7.6 1.1-14.9 3.6-31.4 10.9-16.3 7.3-20.5 8-32.5 5.4-11.7-2.4-22.3-2.4-28 .2-5.2 2.4-13 9.6-15.6 14.5-6 11.2 2.9 31 23.5 52.3 11.5 11.7 19.7 18.1 31.1 24 9.6 5 18.1 7.1 24.3 6.1 15.8-2.6 33.5-20.8 46.8-48 13.7-28.3 16.7-50.6 7.8-59.5-4.9-4.9-15.9-7.4-26-5.9zm-862.6 2.1c-.4.7-.9 6.9-1 13.7-.2 6.8-.7 12.9-1.1 13.5-2.7 3.4-4.7 12.6-4.6 21.6.1 8.2.4 10.3 2.8 15.3 7.1 14.8 25.5 19.3 38.8 9.4 7.9-5.8 9-16.4 2.7-25.2-7.8-10.8-8.9-12.9-8.9-16.8 0-5.5-1.9-11.3-4.7-14.4-2.2-2.3-3-2.5-7.6-2-2.9.2-5.9.7-6.8 1.1-2 .9-4.9-5.1-4.9-10.4 0-2.1-.3-4.5-.6-5.4-.7-1.9-3-2.1-4.1-.4zM384 274.6c-16.1 3.1-32 14.3-37.2 26.1-3.1 7-2.3 16.9 1.8 22 8.8 10.9 27.2 13.1 45.6 5.3 20.2-8.4 31.3-26.6 24.9-40.5-3.8-8.3-11.9-12.6-24.5-13-4.5-.2-9.2-.1-10.6.1zm712.9 1.5c-.9 1.6-1.4 6.4-1.5 13.9-.2 9.2-.6 12.5-2.3 16.3-6.6 15.3-3.6 35.5 6.5 43.2 4.6 3.5 10.9 5.7 16.9 5.8 6.2.1 13.8-3.6 18.4-8.9 3.2-3.5 3.3-4 2.9-10.5-.3-5.8-.8-7.4-3.6-11.1-7.7-10.2-8.4-11.6-9.2-18.5-.8-7.7-3-12.7-6.2-14.4-2-1.1-7.8-.8-12.4.6-1.7.5-2.4 0-3.4-2.6-.8-1.8-1.4-5.4-1.5-8.1-.1-3-.7-5.5-1.7-6.4-1.5-1.5-1.7-1.4-2.9.7zm-450 6.1c.4 1.3 2.4 3.4 4.4 4.8 2 1.4 4.4 3.5 5.2 4.7 1.5 2.1 1.4 2.3-.9 3.8-4.9 3.3-5.6 11.5-1.7 19.5 1 1.9 3 8 4.5 13.5 3.5 12.9 5.2 16.7 8.7 20.1 6.3 6 23.5 3.5 29.4-4.1 6.3-8.4 8.1-17.7 5-26.5-3.5-9.9-15.2-21.1-25.7-24.6-2.9-.9-7.3-3.2-9.8-5-5.1-3.6-15.3-8.4-18.1-8.4-1.5 0-1.7.4-1 2.2zm-451.5 9.2c-.4 1.6-.2 4.3.5 6.1.6 1.7 1.1 4.6 1.1 6.3 0 3.1-.2 3.2-3.9 3.2-6.7 0-10.2 4.1-14.1 16.5-.7 2.2-3.5 8.9-6.3 14.9-4.2 9.3-4.9 11.4-4.4 15.3.6 5.3 2.9 8.8 8.3 12.5 7.9 5.4 17.2 6.1 25.1 1.7 10.1-5.6 14.3-13.6 14.3-27.3 0-9.6-1.7-16.2-6-22.9-1.6-2.6-3-5.7-3-6.8 0-3-5.9-16.7-8.6-19.8l-2.2-2.6-.8 2.9zm358.7 9.5c-2.3 1.5.1 3.5 6.8 6 3.2 1.1 6.5 2.9 7.4 3.9 1.6 1.7 1.5 2.1-.8 5.1-6 8.2-3.6 14.1 8 19.6 6.6 3.1 8.1 4.4 13.2 11.1 3.2 4.3 7.4 8.5 9.3 9.6 13.6 7.2 30.5-7.4 28.7-24.8-1.7-16.2-19-27.6-39.5-26.1-5.8.4-8.3.2-11.6-1.3-2.4-1-7.5-2.3-11.4-2.9-8.4-1.3-8.3-1.3-10.1-.2zm679.7 3.6c-.8 1.9-.8 3.1 0 5 .7 1.4 1.2 4.5 1.2 6.9 0 4.1-.1 4.2-2.9 3.8-4.7-.7-9 2.3-11.7 8.1-1.3 2.9-2.4 5.7-2.4 6.2 0 1.2-5.9 15.4-8.8 21.1-2.7 5.4-3.4 10-2.2 14.4 1.9 7.2 12.7 14 22 14 6.6 0 16.4-5.1 20.2-10.5 7.7-11.2 7.2-30.7-1.2-43-1.5-2.2-3-5.9-3.4-8.3-.6-4-8-20.2-9.1-20.2-.3 0-1.1 1.1-1.7 2.5zm-955.5 6c-4 1.7-8.8 8.9-11 16.4-2.4 8.4-1.3 20.5 3.7 40.6 4.9 20 4.9 22.6-.6 36.5-5.1 13-5.7 22.4-2.1 30.3 2.8 6.1 8.7 13.1 12.8 15.3 6.9 3.5 20.9 1 36.4-6.7 24-11.8 46.5-32.6 53.2-49 2.3-5.6 2.2-14.9-.1-21.6-6-17.7-31.6-42.3-56.8-54.8-16.6-8.1-27.9-10.4-35.5-7zm154.1 16.4c-20 5.4-33.4 17.7-33.4 30.7 0 9.4 7.4 17.3 19.9 21.2 8.7 2.7 27.4 2.4 37.1-.6 13-4.1 22.9-11 27.3-19.1 7.2-13.1.1-26.4-16.6-31.7-8.2-2.6-25.7-2.8-34.3-.5zm522.1 8.7c-8.2 4.5-12 11.6-12 22.4 0 12.8 6.1 26.6 16 36.6 17.6 17.8 39.4 16.2 45.1-3.3 5.2-17.9-7.1-43.6-25.6-53.7-6.8-3.7-18.6-4.7-23.5-2zm-146.3 10.9c-8.8 3.8-17.2 14.1-21.3 26.2-1.9 5.4-2.4 8.9-2.4 17.3 0 12.8 2 19.1 8.3 26.1 4.9 5.5 9.4 7.3 16.1 6.7 26.1-2.5 41.1-47.4 23.5-70.5-5.1-6.7-16.1-9.3-24.2-5.8zm-285.2 0c0 2.2 5.9 11.3 10.4 16.2 3.6 3.9 5.8 7.3 6.6 10.3 2.9 10.8 12.5 23.1 21.5 27.5 5.7 2.8 17.5 2.7 23-.2 11.5-6.1 17.2-21.5 11.2-30.4-2.6-3.9-8.6-7.6-13.7-8.5-8.4-1.4-11.5-2.8-15.9-6.8-6.9-6.3-9.1-7.6-13.6-7.6-4.3 0-7.8 2.6-10.4 7.8-1.1 2.1-1.3 2.2-4.4.6-1.8-.9-4.8-3.4-6.8-5.5-2-2.2-4.6-3.9-5.8-3.9-1.1 0-2.1.2-2.1.5zM12.3 356.9c.3 4.9 1.3 9.7 2.7 12.7 1.2 2.7 2.6 7.8 3.1 11.4 1.3 8.8 5.2 16.4 11.8 23.1 6.4 6.3 12 8.5 19.9 7.7 10.5-1 19.7-8.6 22.1-18.3 2.1-8.5-1.2-13.2-16.1-23-5.7-3.8-12.3-8.5-14.7-10.6-6.7-5.9-12.1-6.3-18.1-1.3-3.6 3.1-4.6 2.6-6.1-2.9-1.4-4.7-2.6-6.7-4.2-6.7-.6 0-.8 2.8-.4 7.9zm1037.1 5.5c-.9 2.3 1.4 16.3 3.5 21.4 1.1 2.6 2.2 6.8 2.5 9.3 1.3 11.2 9.3 24.3 18 29.4 15.5 9.1 37.6-2.3 37.6-19.4 0-7.8-3-11.3-18.5-21.3-5.5-3.6-10.9-7.5-12-8.7-5.2-6-13.4-6.9-18.9-2l-3.5 3-1.5-3c-.9-1.6-1.6-3.9-1.6-4.9 0-1.8-2.9-5.2-4.4-5.2-.3 0-.9.6-1.2 1.4zm-926.6 7.1c-15.5 4.3-21 7.6-25.6 15.4-2.5 4.3-2.7 5.5-2.7 16.1-.1 13.7-1.6 17.4-9.6 24.2-2.7 2.4-5.7 5.5-6.5 7-5.4 10.1 6.1 30.2 19.6 34.2 6.6 2 10.8 2 23 .2 26.1-4 59.3-15.7 69.4-24.7 5.2-4.5 9.6-14 9.6-20.5 0-15.6-6.3-24.4-17.5-24.4-8.3 0-15.8-5.3-20.4-14.4-3.7-7.4-9.6-13.1-15-14.6-5.8-1.6-15-1-24.3 1.5zm584.6.2c-10.2 6.9-16.8 7.8-26.5 3.7-16.4-6.9-27-3-39.2 14.4-8 11.4-9.9 15.7-10.5 23.3-.6 8.5 1.6 13.6 9.6 22.2 7.4 7.9 8.8 12.9 7 23.5-.6 3.7-.8 7.9-.5 9.4 1.1 4.4 5.5 8.6 12.5 12 5.7 2.8 7.7 3.3 14.2 3.3 10.3 0 16.6-3.2 25.6-12.8 22-23.7 41.4-57.5 41.4-72.1 0-7.3-3.5-15-9.3-20.7-9.4-9.3-17-11.2-24.3-6.2zm454.6 12.2c-16.9 4.5-24 9.1-28 18.3-1.9 4.4-2.2 6.5-1.8 13.8.7 12.3-2.6 20-10.8 25.3-5 3.3-6.8 7.3-6.2 13.9.9 10.7 8.6 21.6 18.3 25.9 6.6 2.9 12.1 3.3 24.1 1.5 21-3.1 40.9-9 58-17.1 18-8.7 24.3-17.7 23.1-33-.8-8.5-2.5-13-6.5-16.8-2.4-2.3-4.4-3-10.1-3.8-11.2-1.4-16.5-5-21.8-15.1-4.2-8.1-8.8-12.3-15.7-14.3-6.8-2-10.4-1.8-22.6 1.4zm-746.3 13.2c-12.5 2.9-20.9 13-19.3 23.1 1.4 8.7 7 16 17.4 22.8 11.5 7.5 20.9 10.3 35.2 10.4 13 0 17.8-1 24.6-5.7 20-13.5 4.2-41.4-28.2-49.7-8.2-2.1-22.7-2.6-29.7-.9zm502.4 2.1c-4.8 2.4-9.4 8.5-11.3 15.3-1.7 5.9-1.4 21 .5 28.5 2.8 10.8 9.1 22.4 15.9 29.2 7.1 7.1 12.9 9.9 20.3 9.9 10.6 0 17.6-6.9 20.4-19.9 3.8-18.3-3.2-40.7-17.3-54.8-10.3-10.2-19.2-12.8-28.5-8.2zm-58.7 8.2c-6.1 2.8-11.1 8.7-15.4 17.7-11.4 24.5-5.5 58.3 11.5 66 5.5 2.6 10.2 2.3 16.3-.7 12.9-6.4 21.5-24.7 21.5-45.9 0-28.9-15.4-45.7-33.9-37.1zm-270.9 27c-6 .8-12.7 1.1-14.8.8-4.7-.6-12 2.1-14.1 5.3-.9 1.3-1.6 3.8-1.6 5.5 0 4.2-2.3 4.8-6.9 1.5-2.6-1.7-4.9-2.5-6.8-2.3l-2.8.3 5.8 6.1c3.1 3.3 8.1 7.4 11 8.9 2.8 1.6 7.1 4.6 9.5 6.7 6.8 6.2 16.1 10.1 25.4 10.6 6.9.4 8.4.2 13.2-2.2 12.8-6.3 18.1-20.6 12.2-33.3-4.1-8.7-10.1-10.2-30.1-7.9zM349.3 436c-11.6 2.3-19.2 10.6-19.3 21 0 9.7 9.5 23.2 21.2 29.8 14.1 8 32.8 9.6 43.7 3.7 7.9-4.3 10.6-8.9 10.6-17.9 0-9.1-2.8-14.7-11-22.4-7.6-7.1-14.1-10.7-24.1-13.2-8.1-2.1-14-2.3-21.1-1zm555.2 71.9c-10.2 4.6-16.5 18.1-16.5 35.4.1 28.8 19 54.6 36.4 49.7 23.8-6.6 26.8-54.6 4.8-78.3-7.8-8.4-16.2-10.7-24.7-6.8zm224.8 22.3c-4 1.7-8.9 4.5-11 6.2-2.1 1.8-5.8 3.8-8.3 4.5-6.7 1.9-11.9 5.3-17.8 11.5-7 7.4-10.2 14.3-10.2 22.1 0 11.4 6.8 20.9 17.2 24 6.6 1.9 11.1 1.9 15.4-.1 5.1-2.4 6.9-5.7 11.2-20.5 2.2-7.4 4.6-14.8 5.5-16.5 3.7-7.3 2.9-14.6-2.1-18.3l-2.7-2 2.9-3c1.6-1.7 3.8-3.3 4.8-3.7 3.1-.9 5.7-7.6 2.9-7.4-.3.1-3.8 1.5-7.8 3.2zm-769.9-.8c-8.6 3.8-14.4 13.3-17.1 27.9-3.3 18.3 2.1 38.7 13.4 50.8 13.7 14.7 31.8 8.3 38.5-13.5 2.7-8.5 3.1-25.8.9-34.6-3.4-13.6-12-26.2-20.6-30.1-4.7-2.2-10.8-2.4-15.1-.5zm292.6 6.2c0 1.4 1.1 4.4 2.4 6.7 3.3 5.7 4.3 10.7 2.2 10.7-.9 0-3.4.7-5.6 1.6-7.6 3.1-8.7 9.6-3.2 19.9 2.5 4.7 2.6 5.8 2.4 15.9-.2 9.3 0 11.4 1.8 15.2 3.7 7.6 11 10.4 21.8 8.3 6-1.1 7.2-1.7 11.9-6.4 6.1-6.2 8.9-13.7 7.9-21.4-1.3-9.9-10.1-23.1-19.1-28.8-3-1.8-5.3-4.3-6.7-7.2-2.1-4.3-13.2-17.1-14.9-17.1-.5 0-.9 1.2-.9 2.6zm175.9 3.7c-18.5 9.8-9.9 49 14.9 67.7 21.7 16.3 42.1 9.8 42.2-13.5 0-12.2-4.6-24.6-13.5-36.4-12.8-16.8-31.2-24.3-43.6-17.8zm-387.6.1c-10.8 3.5-21.5 15.8-27.4 31.4-3.2 8.2-3.3 9.4-3.4 22.2 0 12.2.2 14 2.4 18.2 12.6 25.5 44.8 9.5 54.1-26.8 3.6-14.1 2.3-28.8-3.3-37.1-5.2-7.6-13.8-10.7-22.4-7.9zM146 547.5c0 1.2 2.4 5.5 3.1 5.5 1.3 0 7.9 6.1 7.9 7.3 0 .6-1.2 2.4-2.7 4-2.3 2.4-2.8 3.7-2.8 8 0 3.2.9 7 2.2 9.7 1.1 2.5 3.5 9.7 5.3 16 1.8 6.3 4.2 13 5.3 14.9 2.7 4.5 9.5 7.5 15.1 6.7 12-1.9 16.7-5.3 21.4-15.5 2-4.4 2.4-6.4 2-11.5-.7-7.8-3.5-13.4-10.6-20.8-5.3-5.6-15.5-11.8-19.2-11.8-1 0-3.7-1.6-6.1-3.5-5.5-4.4-20.9-11-20.9-9zm1070.3 2c-3.4.7-7.1 1.9-8.3 2.5-1.2.6-7.2 1.2-13.3 1.4-12.6.2-19.5 2.3-26.9 7.9-8.2 6.3-12 19.6-8.4 29 3.1 8.2 12.4 15.7 19.5 15.7 6.7 0 10.7-2.9 17.7-12.5 3.6-4.9 5.8-6.7 12.1-10 11.9-6.2 14.3-11.4 9-19.4-1.5-2.2-2.7-4.3-2.7-4.5 0-.9 8.6-5.6 10.2-5.6 1.8 0 6.8-3.7 6.8-5.1 0-1.3-8.4-1-15.7.6zm-617.5 2.2c-.6 1.6-1.2 8-1.3 14.3-.2 9.5-.7 12.4-2.5 16.5-3.1 6.7-3.9 20-1.7 27.6 3.4 11.4 12 18.6 23.6 19.6 11.9 1 24.2-8.4 24.1-18.4-.1-4.7-2.4-9.6-7.7-16.4-4.5-6-5-7.2-5.6-13.3-.8-8.4-3.1-13.3-7.2-15.3-2.9-1.4-3.8-1.4-8.4 0l-5.3 1.5-1.4-3.4c-.8-1.8-1.4-5.2-1.4-7.4 0-4.4-1.4-8-3.1-8-.5 0-1.5 1.2-2.1 2.7zm377.2 6.8c-11.1 5-19 20.3-19 37 .1 31.2 23.4 51.2 41.4 35.4 5.9-5.2 11.2-15.9 12.7-25.6 2.6-17.4-4.5-37.3-16.2-45-5.1-3.3-13.6-4.1-18.9-1.8zM53 568.7c0 1.6 3.2 3.8 8 5.7 2.5.9 5.5 2.5 6.8 3.6l2.3 1.9-2.5 3.4c-6.7 8.8-3.1 15.1 12.2 21.5 2 .9 5 3.8 7.8 7.8 8 11.2 14.6 14.9 22.5 12.5 4.6-1.4 10.8-6.6 14.1-11.9 3.3-5.4 3.2-16.9-.3-23.7-5.4-10.6-18-16.5-36-16.9-7.1-.2-11.8-.8-14.9-2-5.1-2-20-3.4-20-1.9zm683.4 9.7c-.4.9-.3 3.4.1 5.4.4 2 .8 5.3.9 7.2.1 3.4 0 3.5-4.5 4-6.9.8-9.4 3.6-12.6 14.2-.8 2.8-3.7 10-6.5 16-4.5 9.9-5 11.5-4.6 16.4.4 4.3 1.1 6.1 3.4 8.5 13.9 14.6 37.1 9 42.9-10.4 3.1-10.6 1-26-4.8-34.5-1.4-2-3.2-6.6-4.1-10.1-1.7-6.5-5.8-15.2-8.3-17.2-.9-.9-1.4-.7-1.9.5zm491.6 16.7c-1.4.6-4.5 3-7 5.4-4.9 4.8-9.1 6.9-16 8-6.1 1-11.1 3.7-14.8 8-4.3 4.8-4.6 11.4-1.1 19.5 2.6 5.8 5.3 8.6 11.4 11.8 6.8 3.5 16 3.7 22.6.4 9.3-4.5 18.9-16.9 21.9-28 .7-2.7 2.4-5.5 4.4-7.3 4-3.4 11.6-14.8 11.6-17.2 0-2.8-3.4-1.9-7.1 1.9-3.2 3.4-7.8 6.4-9.6 6.4-.4 0-1.9-1.8-3.2-3.9-3.4-5.6-7.5-7.2-13.1-5zm-925.7 2.5c-15.3 7.6-19.6 35.1-8.8 56.4 5.9 11.6 17.1 20 26.8 20 20.4 0 29.9-30.5 17.6-56.6-7.8-16.6-23.9-25.5-35.6-19.8zm175.5 15.8c-10.4 3.7-21 14-26.7 25.9-3.8 8-5 13.4-5.1 22.3 0 9 3.3 16.3 9.3 20.2 3.5 2.3 5.1 2.7 11.6 2.7 9.7 0 16.9-3.3 25.1-11.5 11-11 16.6-24.9 15.8-39.2-.6-9.7-4-15.9-10.7-19.5-5.1-2.6-13.3-3-19.3-.9zM24 616.6c1.6 4.2 7.9 13.1 11.5 16.2 2.3 2.1 3.8 4.7 5 8.8 2.3 7.8 5.3 12.8 11.7 19.1 6.6 6.5 13.2 9.5 20.7 9.5 10.5-.1 18.1-4.7 22.3-13.9 2.5-5.3 3-7.3 2.6-11.7-.7-8.7-6-13.5-17.6-16.2-9.4-2.1-11.9-3.2-14.8-6.8-3.7-4.3-9.3-7.6-13.2-7.6-3.4 0-6.9 2.7-10.3 7.9-1.4 2.3-1.6 2.3-4.4.8-1.7-.8-4.5-3.1-6.3-5.1-2-2.3-4.2-3.6-5.7-3.6-2.2 0-2.4.2-1.5 2.6zm1042.4-1.6c-4.8 1.1-9.8 4.5-14.8 10.2-5 5.4-7.6 12.2-7.6 19.5 0 13.6 17.4 44.6 38.3 68.4 10.6 12 17.8 16.2 28.4 16.2 8.5.1 17.6-3.7 22.8-9.4 4.5-5 5.1-7.7 3.5-15.9-1.9-10.3-.3-15.9 6.8-23 13.2-13.2 13.4-25.4.7-43.6-7-10-11.3-14.3-17-17-6.6-3.1-13.7-3.1-21.8 0-8.5 3.3-9.7 3.5-15.8 2.5-3.3-.5-7.2-2.1-10.3-4.3-5.8-3.8-8.8-4.7-13.2-3.6zm-258.5 5.8c-9.7 5-12.9 15.1-9.1 27.9 5.9 19.2 24.4 34.9 42.7 36.1 5.6.3 8.7 0 12-1.2 16.8-6.5 16.7-30.4-.3-48.8-14.1-15.2-32.3-20.8-45.3-14zm104.9 4.5c-11.9 3.4-21.1 14.2-29.2 34.4-12.3 30.9-13.6 70.8-2.5 82 7 7.3 20.3 7 34.7-.7 3.3-1.7 12.3-8.1 19.9-14.2 7.6-6.1 15.7-11.9 18-13 2.7-1.2 8.5-2.2 15.5-2.9 6.2-.5 13.1-1.4 15.3-2 9.3-2.5 16.3-8.8 20.6-18.7 4.3-9.9 1.1-19.1-11.1-31.2-22.3-22.4-62.3-39-81.2-33.7zm-707.2 12.9c-5.8 3.5-7.9 4.3-13.3 4.6-5.3.4-7.4 0-12.2-2.2-9.9-4.4-20.5-3.4-28.7 2.9-4.3 3.3-16.2 20.5-18.6 26.9-2.4 6.1-2.1 15.2.6 20.8 1 2 4.1 6.1 7 9 7.6 7.7 8.8 12.2 7.1 27.6l-.8 7.3 5 4.8c8.7 8.4 21.4 11.3 32.9 7.5 14-4.7 45.6-47.3 54.4-73.4 2.4-7.2 2.3-15-.4-21.5-2.1-5-10.9-14-16.2-16.4-6.3-3-9-2.6-16.8 2.1zm346.6 5c.3 4.6 1.3 10.1 2.3 12.3.9 2.2 2.3 7.5 3.1 11.8 2.5 13.6 10.6 26.2 19.8 30.7 4.8 2.3 14.2 2.7 19.7.9 7.5-2.5 14.9-10.9 16.3-18.4 1-5-.9-10.6-4.6-14.2-1.8-1.7-7.8-6-13.3-9.5-5.5-3.6-10.9-7.5-12-8.8-5.7-6.4-14.3-7.4-19.7-2.3-2.9 2.7-3 2.8-4.4.9-.8-1.1-1.4-3-1.4-4.2 0-2.4-3.5-7.4-5.2-7.4-.7 0-.9 2.7-.6 8.2zM383 645.4c-13 3.8-26.3 12.7-41 27.5-17.1 17.3-26 31.8-26.8 43.7-.5 7.5 1.6 12.1 8.3 18.3 9.2 8.5 18.2 10.2 35.5 6.6 13-2.7 17.9-1.9 35 5.8 21.5 9.5 23.8 10.2 36 10.2 9.3 0 11.1-.3 15.5-2.5 3.8-1.9 5.5-3.6 7.3-7 11-21.8-19.4-86.4-47.3-100.1-7.3-3.6-15.6-4.5-22.5-2.5zm278.4 11.9c-14.7 4.4-20.3 8-24.7 16.2-1.9 3.4-2.2 5.7-2.2 15.5 0 10.8-.2 11.8-2.8 16.3-1.5 2.6-4.8 6.2-7.2 8-2.4 1.7-5.2 4.7-6.1 6.6-5.1 10.5 6.1 30.1 19.8 34.7 18.3 6.1 81.1-11.3 94.9-26.3 5.8-6.4 7.9-11.4 7.9-19.9 0-13.7-5.5-23.4-13.3-23.4-9.6 0-20.6-6-23.4-12.9-7.2-17.1-20-21.6-42.9-14.8zm510.6 23.9c-7.1 4.7-10.2 17.5-6.6 26.3 2.4 5.6 10.1 13.2 15.3 14.9 11.1 3.8 26.4-.3 37-9.8 2.7-2.4 6.8-5.3 9.1-6.5 4.8-2.4 15.2-12 15.2-13.9 0-2.1-4.9-1.3-8.8 1.3-4.8 3.3-6.2 3.2-6.2-.4 0-8.9-3.7-11.3-18.9-12.3-35.5-2.2-32.3-2.2-36.1.4zm-1077 18c-4.1.5-12.8 1.2-19.3 1.6-10.9.8-12 1-14.4 3.5-1.7 1.6-2.9 4.2-3.2 6.9-.7 5-2.1 5.2-8 1.2-3.7-2.5-8.1-3.2-8.1-1.3 0 1.8 10.3 11.4 15.5 14.4 2.8 1.6 7 4.7 9.5 6.8 9.9 8.7 25.3 13.2 35.2 10.3 6.5-1.9 11.9-6.2 15.6-12.4 2.3-4 2.7-5.8 2.7-12.2-.1-15.4-7.2-20.6-25.5-18.8zm1099.7 70.2c-15.8 5.7-26.3 29.9-23.5 54.8 2.6 24.5 17 37.1 33.4 29.4 16.1-7.5 25.5-37.2 19.4-61.1-4.8-18.8-16.1-27.8-29.3-23.1zM658.5 775c-12.5 2.9-19.9 15.5-21.1 36-1.7 26.8 12.9 51.2 30.5 51.2 6 0 9.8-1.9 15-7.8 12.9-14.7 13-46.9 0-66.3-6.8-10.2-16-15.1-24.4-13.1zm454 5.2c-15 8.2-17.8 33.8-6.4 57.5 4.7 9.8 13.4 19.7 20.6 23.3 6.8 3.5 15.5 3.5 20.9-.1 10.6-7.1 14.2-28.5 7.8-47.5-4.7-14-15.6-28.3-24.7-32.5-4.7-2.1-15-2.5-18.2-.7zM939 785.9c0 1.4 1.7 3.4 4.9 5.6 6.4 4.6 6.9 6.2 3.1 9.6-2.6 2.4-3 3.5-3 7.8 0 3.1 1.1 7.6 2.9 12.3 1.6 4 4.1 11.5 5.4 16.7 2.7 10.2 4.5 13.3 9.8 16.9 2.9 2 4.3 2.3 9 1.9 6.5-.6 13.6-3.4 16.8-6.8 6.6-7 9.2-18.4 6.2-27.1-3.3-9.8-16.3-22.1-26.4-25-2.3-.6-5.8-2.4-7.9-4-3.5-2.7-13.9-7.9-18.5-9.3-1.9-.5-2.3-.2-2.3 1.4zm-206.5 1.5c-27.7 13.1-38.4 68.9-15.5 80.6 21.4 10.9 49.3-23.3 46.7-57.2-1.6-20.9-15.1-31-31.2-23.4zM416 790.2c0 1.2 1.1 3.8 2.5 5.9 1.4 2 2.8 5.2 3.2 7.2.5 3.6.5 3.6-4 4.8-2.5.6-5.5 2.2-6.7 3.4-1.9 2.1-2.2 3.2-1.7 7.7.6 6.6 1.1 8.5 3.1 12.4 1.3 2.5 1.6 5.7 1.4 14-.4 13.1 1.2 17.3 7.3 20.4 4.3 2.2 17.7 2.8 22.4 1 3.9-1.5 11.1-9.5 13-14.5 4.9-12.8-3.4-32-17.9-41.1-2.8-1.8-5-4.2-6.1-6.7-2-4.4-13-16.7-15.1-16.7-.8 0-1.4 1-1.4 2.2zm-284.8 14.9c-10.2 1.7-17.9 7.8-20.3 16-3.5 11.6 6.4 27.5 22 35.4 10.8 5.4 25.5 7.8 34.9 5.6 12.4-3 20.1-12.5 18.9-23.3-1.8-15.2-20.3-30.6-40.4-33.7-8-1.2-7.7-1.2-15.1 0zm232.1.1c-.4.7-.9 6.7-1 13.3-.2 10.5-.6 12.8-3 18.5-2.2 5.3-2.7 8.1-2.7 15-.1 10.3 1.4 16 5.9 22.1 4.8 6.6 10.9 9.4 20.6 9.4 6.7 0 8.1-.4 12.5-3 7.4-4.6 9.7-8.6 9.2-16.2-.3-5.1-1-7-3.6-10.5-7.5-9.9-8.5-11.8-8.9-17.1-.6-7.2-3.1-13.3-6.1-15.3-2.5-1.6-9.4-1.6-13.3 0-2.1.9-4.9-5.8-4.7-11.2 0-2.2-.2-4.4-.6-5-.9-1.6-3.3-1.5-4.3 0zm481.7.6c0 1.7 4.7 4.9 8.2 5.6 1.8.3 4.6 1.7 6.3 3l2.9 2.4-2.7 3.9c-5.6 8.1-2 15.8 9.4 19.9 4.7 1.7 6.1 2.9 11.4 9.9 9 11.9 16 14.8 25.1 10.4 4.4-2.1 10.7-8.8 12.4-13.4 1.8-4.9 1.2-14.6-1.4-20.1-5.4-11.7-21.8-19.1-38.7-17.7-4.3.4-7.1 0-11.4-1.6-6.5-2.5-21.5-4.1-21.5-2.3zm-344.6 27.7c-.4.9-.2 3.4.5 5.4.6 2.1 1.1 5.2 1.1 7 0 3-.2 3.1-4.1 3.1-5.7 0-10.1 4.5-12.5 12.6-.9 3.2-3.9 10.7-6.5 16.5-4.2 9.1-4.9 11.5-4.9 16.9 0 6.2.1 6.5 4.3 10.4 13.1 12.5 33 8.4 40.6-8.4 3.1-6.7 2.9-22.4-.3-30.1-1.2-3.1-3.2-6.9-4.3-8.5-1.1-1.6-2.3-4.7-2.6-6.9-.8-4.7-7.6-18.8-9.4-19.3-.7-.2-1.6.4-1.9 1.3zm749.1 3.7c-23.2 8.3-33.7 48.8-17.9 69.5 5.1 6.7 15.7 9.3 24 5.8 8.9-3.7 17.4-14 21.5-26.2 3.1-8.9 3.3-25.1.6-33-2.1-6.1-8.8-14-13.4-15.9-3.8-1.6-10.5-1.7-14.8-.2zM234.2 841c-15.9 4.2-37.5 17.6-53.2 33-20.3 20.1-26.5 37-19.2 52.5 10.9 23 47.5 49.8 74.4 54.5 11.7 2.1 19.4-2.1 25.5-13.7 5.6-10.5 5.3-17.5-1.5-34.7-4.6-11.9-4.6-16.8.3-35.6 4.2-16.4 5.6-30.7 3.6-39.5-1.7-7.6-6.2-14.2-11.4-16.5-5.2-2.4-9.2-2.4-18.5 0zm365.4 2.4c-14.4 5.4-20.8 29.3-13.3 49.9 10 27.6 34.8 36.4 47.2 16.7 9.8-15.6 5.9-44.1-7.9-58.4-7.9-8-17.8-11.2-26-8.2zm216.4 9c0 2.3 9.8 16.3 12.9 18.5 1.9 1.4 3 3.3 3.5 5.8 1.7 10.3 11.5 23.2 21.4 28 14.2 7 30.7.1 35.6-14.9 2-6.3 2-7.8 0-12.9-2.4-5.8-7.8-9.4-17.2-11.5-8.1-1.7-11.8-3.5-14.1-6.7-2.2-3.1-10.2-7.7-13.4-7.7-2.9 0-8.1 4.2-10.4 8.4-1 1.7-1.4 1.8-4.1.7-1.7-.7-4.6-3-6.5-5.2-3.5-3.9-7.7-5.2-7.7-2.5zm255.5 1.4c-10 4.7-14.3 16.4-11.5 31.3 2.6 14.2 14.7 30.6 27.2 36.8 13.3 6.7 27.3 2.7 32.2-9 7.5-17.9-5.5-47.3-25.4-57.4-7.3-3.7-16.8-4.4-22.5-1.7zM69.9 856.4c-20.3 4.3-29.6 17.8-22.3 32.5 4.6 9.2 17.4 17.4 32.2 20.7 10.4 2.3 27.4 1.5 35.7-1.6 11.2-4.3 18.8-14.7 16.9-23.3-3.3-15.6-23.4-28.1-46.9-29.2-5.5-.3-11.6.1-15.6.9zm704.1 3.3c-15.2 5.3-27.7 20.8-31.6 39.3-2.9 14 1.3 25.5 11.1 30.8 5 2.6 14.9 2.1 22-1.3 12.2-5.8 24.5-22.1 27.4-36.3 4.9-23.6-9.2-39.4-28.9-32.5zm229 12.6c-1.4.7-4.5 2.6-6.9 4.3-6.2 4-16.7 4.7-23.2 1.4-2.7-1.4-6.9-2.5-10.9-2.8-12-.8-19.1 4-30.3 20.6-11.6 17-11.5 28 .4 40.7 8.4 9 10.3 15.3 7.8 26.3-.7 2.7-.9 6.1-.5 7.6 2.3 9.2 19.8 17.8 31.6 15.6 8-1.5 12-3.8 19.5-11.4 16.1-16.2 34.9-45.2 40.9-62.9 2.4-7.1 2.1-16.1-.8-22.2-5.6-12-20.3-21.2-27.6-17.2zm164.5 13.4c-19.9 6.1-43.2 38.3-52.6 72.8-3.1 11.1-3.2 24.5-.3 30 3.2 6.1 9.5 8.9 21.1 9.3 11.1.5 17.2-1.2 38.6-10.7 7.6-3.4 15.8-6.4 18.2-6.8 2.8-.3 9.5.3 17.7 1.7 11.5 1.9 14.1 2.1 19 1.1 13.7-2.9 24.8-15.9 23.3-27.4-.9-6.1-7.8-20.1-14.4-28.7-6.3-8.4-22.9-24.5-30.6-29.7-12-8.1-25.3-13.5-32.8-13.2-1.2 0-4.4.7-7.2 1.6zm-850.3 12c.3 3.8 1.5 9.5 2.7 12.8 1.2 3.3 2.6 8.8 3.2 12.3 1.1 7.5 5.2 16 10.8 22.3 13.1 14.9 37.1 10.1 42.6-8.5 2.8-9.3 0-13.5-16.3-24.6-6.4-4.4-13.3-9.4-15.3-11.1-2.2-1.8-5.2-3.3-7.6-3.6-3.4-.4-4.5-.1-7.6 2.7-2.1 1.8-4.3 3-5.1 2.7-.8-.3-2-2.5-2.7-4.9-2.7-9.3-5.4-9.3-4.7-.1zM675 893c-15.9 5.8-37.7 23.4-51 41.5-8.9 12.1-14.8 26.4-13.4 33 1.5 7.3 8.3 15.4 16.6 19.6 6.4 3.2 13.1 3.5 27.3.9 15.2-2.8 16.5-2.6 35.7 5.9 19 8.4 26.6 10.6 36.3 10.6 6.9 0 8.9-.4 14-3 7-3.5 9.4-7 10.2-14.9 2.9-27.8-25.9-81.2-49.7-92.5-8-3.8-17.3-4.2-26-1.1zm-244 17c-.8.5-4 1.5-7 2.1-6.9 1.4-12 4-17.2 8.7-6.3 5.7-7.8 9.8-7.8 22.5 0 14.2-1.4 17.1-13.4 27-2.6 2.1-3 3.2-3.4 9-.4 5.4 0 7.5 2.1 12 4.8 10.5 13.8 17.6 24.1 19.3 9.2 1.4 45.5-6.3 63.5-13.6 18.9-7.6 25.3-12 30.1-20.3 2.7-4.8 3-6 3-14.7-.1-15.5-4-21.6-15.2-23-11.4-1.5-17.3-5.2-21.8-14.1-6.6-12.9-11.4-15.9-25.7-15.9-5.4 0-10.5.5-11.3 1zM88.5 925.6c-27.2 6-45.7 27.3-37.6 43.2 2.5 4.9 4.5 6.6 11.6 9.8 4.8 2.2 7.8 2.8 16 3.2 17.6.8 34-4.8 45.7-15.6 9.6-8.9 13-18.9 9.4-27.5-1.8-4.4-8.7-10.2-14.5-12.2-6.6-2.4-21.9-2.8-30.6-.9zm792 11.4c-2.7.5-8.5.9-12.8.9-4.3.1-9.3.7-11.2 1.5-3.8 1.6-6.5 6-6.5 10.6 0 1.6-.3 3-.7 3-.5 0-3-1.4-5.8-3-5.5-3.3-8.5-3.8-8.5-1.5 0 2 10.3 11.8 14.8 14.1 2 1 6 3.8 8.7 6.2 10.5 9 24.7 13.6 35.1 11.3 6.8-1.6 13.2-6.5 16.7-12.9 5.5-10.1 2.8-25-5.3-29.3-3.7-2-14.6-2.4-24.5-.9zM167 966c-11.9 1.6-23.4 7.2-31.6 15.6-7.2 7.3-9.9 13.2-9.9 21.6 0 5.8.4 7.2 3 10.9 10.7 15.3 42 13.3 60.5-3.7 13.9-12.9 16.1-29.4 5.2-38.4-6.2-5.1-16.6-7.3-27.2-6zm196 64.3c-9.3 3-20.2 20-23.6 36.7-3 14.8-.1 32 7 41.3 3.2 4.1 11.6 8.7 16 8.7 8.7 0 19.4-9.1 25.1-21.3 4.9-10.4 6.6-17.7 6.6-29.5.1-21.6-8.8-36.1-22.4-36.8-2.9-.2-6.8.2-8.7.9zm577.5-.1c-12.5 4.4-25.2 19.1-31.3 36-2.2 6.2-2.6 9-2.7 18.3 0 9.9.3 11.6 2.5 15.9 3.8 7.4 8.7 10.9 16 11.4 8.6.6 16.5-3.4 25.3-12.7 11.9-12.7 18.1-27.5 18.2-43.6 0-9.6-1.1-13.7-5.2-19.3-4.7-6.3-14.5-8.9-22.8-6zm241.2 9.6c-1 1.5 1.3 5.2 4.2 6.6 1.6.9 3.9 2.8 5 4.2l2.1 2.7-3 2.6c-4 3.3-4.9 8.7-2.5 15.1 2.1 5.5 6.6 19.4 8.9 27.1 3.6 12.4 11.2 16.3 24.4 12.4 13.9-4.2 20.6-19.2 15.2-33.8-3-7.9-11.4-16.8-20.2-21.2-3.9-1.9-7.9-3.5-8.8-3.5-1 0-2.3-.6-2.9-1.4-3.4-4.1-21.3-12.7-22.4-10.8zM115 1042.3c0 1.2 1.2 4 2.6 6.1 1.4 2.1 2.8 5.5 3.1 7.5.5 3.8.5 3.8-4.1 5.1-9 2.5-10.8 8.9-5.6 19.9 2.9 6 3 7 2.8 17.5-.2 12.2.8 15.5 5.8 19.5 5.5 4.3 15 5 23 1.6 4.3-1.8 10.2-7.9 12.5-12.9 2.8-6.2 2.5-15.7-.7-22.6-3.7-8-9.6-15.3-15.4-19.1-3.4-2.2-6-4.9-8-8.6-3.3-5.8-12.8-16.3-14.8-16.3-.7 0-1.2 1-1.2 2.3zm520.9 1c-6.2 1.8-13.3 6.1-16.3 10-5.9 7.7-8.9 19.6-6.5 25.4.8 1.8 4.1 5.4 7.4 8 8.3 6.7 10.5 11.3 10.5 22.3 0 19.3 6.5 26.3 30.5 32.4 11.5 3 15.2 3.2 22.4 1 7.2-2.1 12.4-7.1 16.5-15.9 4.7-9.8 12.8-15.5 22-15.5 4.5 0 9.2-3.3 11.8-8.2 1.8-3.6 2.2-5.9 2.3-13.8 0-8.7-.3-10-2.9-14.8-1.7-2.9-4.6-6.7-6.5-8.4-14.2-12.4-74.1-27.2-91.2-22.5zm221.4 10.8c-5.8 2.9-13.9 11.8-17.4 19.2-12.4 26.7-2.9 56.6 18.2 56.7 16.5.1 32.1-22.1 32.1-45.5 0-14.5-4.9-25.2-13.7-30.2-5.3-3-13.4-3.1-19.2-.2zM62 1061.5c-.6 3-1 9.2-.9 13.7.1 6.6-.3 9.2-1.9 12.8-4.6 9.9-4.7 24.5-.4 34.2 2.6 5.9 8.9 11.3 15.3 13.2 7.8 2.4 11.8 2 19-1.7 8.2-4.1 10.9-8 10.9-15.4 0-5.9-1.5-9.6-6.5-15.8-4.8-5.9-5.7-8.2-6.5-15.8-.9-7.5-2.9-11.3-7.3-13.5-2.5-1.2-6.5-.8-12.2 1.4-1.7.7-4.6-8.4-3.8-11.5.5-2.1-2-7.1-3.7-7.1-.5 0-1.4 2.5-2 5.5zm371.9.4c-24.6 9.6-43.9 47.5-34 66.9 5.5 10.8 18.1 13.3 32.1 6.2 9.6-4.8 20.6-16.3 25.9-27.1 4-8.1 7-19.1 7.1-25.5 0-4.4-2.7-12.7-5.1-15.8-5-6.4-16.4-8.5-26-4.7zm654.1-1c0 1.8 3.1 4.1 7 5.1 2.1.6 5.3 2.2 6.9 3.6l3.1 2.6-2.6 3.3c-1.4 1.8-2.8 4.9-3.1 6.9-.5 3.4-.2 4 4 8 2.5 2.4 5.9 4.7 7.6 5.1 4.2.9 8.1 4.3 13.5 11.9 6.5 9.1 14.4 12.5 22 9.6 3.4-1.2 11.4-8.6 13.2-12.1.7-1.5 1.6-5.1 2-8.1 2.2-18.8-14.1-32.4-38.1-31.7-6.6.2-10-.2-12.8-1.4-6.9-3-22.7-4.9-22.7-2.8zm-89.9 18.7c-9.7 2.6-19 8.3-27.7 16.9-16.2 16.1-20.8 34.2-11.3 44.9 4.4 5.1 10.2 7 19.6 6.4 19-1.2 39-15.5 48.6-34.8 2.8-5.7 3.2-7.4 3.2-14.6 0-6.9-.3-8.6-2.5-11.7-5.3-7.9-16.9-10.6-29.9-7.1zm-707.6 2.3c-2.2 1-6.1 4.1-8.7 7-7.6 8.4-11.3 20.8-10.6 35 .8 14.8 6.7 26.7 16.2 32.6 13.9 8.6 30.6-2.1 36.1-23.2 1.8-6.8 2.1-20.8.6-27.6-2.5-10.8-8.8-19.7-16.6-23.3-6-2.8-11.6-3-17-.5zm-91 5c-.3 1.6-.2 3.9.4 5 .6 1.1 1.1 3.8 1.1 6v4.1h-4.1c-5.6 0-10 4.4-12.4 12.5-.9 3.3-3.8 10.7-6.5 16.5-6.1 13.4-6.7 16.7-4.1 22.4 3.2 7.4 14.5 13.3 23.1 12.1 5.5-.8 12.6-4.4 16.2-8.2 5.3-5.5 7.3-11.8 7.2-22.3-.1-10.3-1.5-15.2-6.3-23-1.6-2.5-3.1-6.3-3.5-8.5-.6-4.5-7.5-18.8-9.3-19.3-.6-.2-1.4 1-1.8 2.7zm380.3 16.6c-5.8 2.2-10.4 6.1-14.7 12.6-4.9 7.4-7.3 15.4-7.4 24.4 0 3.8-.6 8.5-1.4 10.4-1.8 4.4-3 20.6-1.5 21.5 1.3.8 5.2-4.1 5.2-6.6 0-2.7 2.8-7.8 4.3-7.8.6 0 2.1.7 3.1 1.5 4.3 3.3 10.7 1.1 18.9-6.3 3.1-2.8 9.1-7.5 13.4-10.6 4.3-3 8.6-6.3 9.5-7.3 3-3.3 4.9-9.1 4.2-12.9-1-5.3-7.6-14.6-12.3-17.2-5.2-3-16-3.8-21.3-1.7zm478.2 3.3c0 1.9 7.4 13 11.5 17.2 3 3.2 4.8 6.1 5.9 10.1 3.5 12.3 14.6 24.4 25.3 27.5 15.8 4.6 32.3-7.2 32.3-23.3 0-7.6-5.2-14.2-12.8-16.2-2-.6-6.3-1.7-9.4-2.6-4.4-1.2-7.3-2.9-11.8-6.9-9.2-8.3-16.1-8.3-20.5-.2-1.1 2-2.4 3.6-3 3.6-1.8 0-7.7-4-10.2-7.1-2.3-2.7-7.3-4.1-7.3-2.1zm189 19.9c-.8.3-3.9 2.2-6.9 4.2-4.6 3.1-6.2 3.6-12.5 3.9-6 .3-8.2 0-13.4-2.2-11.2-4.7-21.3-3.1-29.4 4.8-5 4.9-14.9 19.3-17 24.8-2.4 6.3-2.3 15.1.2 20.6 1.1 2.3 4.2 6.5 7 9.2 7.8 7.6 9.3 12.9 7.5 27.2-.7 6.3-.6 7 1.8 10.7 2 2.9 4.6 4.9 10.3 7.7 6.6 3.3 8.5 3.8 14.4 3.8 12.2-.2 20.3-5.7 35.3-24.4 11.5-14.4 21-29.6 27.3-44 3.3-7.4 3.7-9.5 3.8-16.5 0-7-.3-8.6-2.9-13.4-2.9-5.3-9.7-12.1-14.5-14.6-3.2-1.6-9-2.6-11-1.8zm-524.5 12.6c-5.8 2.8-11 8.2-12 12.5-.9 4.3.9 10.1 7 22.2 2.9 5.8 5.8 12.5 6.5 14.9.6 2.3 2.6 5.9 4.4 7.8 3.5 3.8 7 4.6 13 3 2.9-.8 2.9-.8 2.3 3-.4 2.1-.9 4.9-1.2 6.3-.4 1.5 0 3.3.9 4.5 1.4 1.9 1.6 1.6 5.1-5.6 2-4.2 4-10.3 4.5-13.5.4-3.3 1.8-8.1 3-10.8 5.1-11.3 3.3-29.3-3.7-37.6-7.3-8.5-20.1-11.4-29.8-6.7zm165-.2c-17.4 1.7-34.6 6.8-50.9 15.2-17.5 8.9-28.6 19.8-28.6 28 0 8.1 7.7 19 18.3 25.8 3.2 2.1 13.4 6.8 22.7 10.4 9.3 3.6 18.6 7.9 20.7 9.4 2.1 1.5 6.7 6.9 10.1 11.8 7.1 10.5 14.8 17.9 20 19.2 11.6 3.1 21 2 26.8-3.1 14.3-12.6 19.1-60.2 9-89.7-4.6-13.3-10.1-20.3-19.3-24.2-3.8-1.6-6.6-2.2-17.8-3.3-1.6-.2-6.6 0-11 .5zm-436 3.6c-13.3 4.8-24.6 14.9-31 27.8-3.5 7.1-3.9 8.8-4 15.6 0 6.7.3 8.1 3 12.4 4.5 7.4 9.7 9.7 20.5 9.2 11.4-.4 19.4-4.2 29.5-13.8 9.8-9.3 14.7-18.9 15.2-29.8.4-6.5.1-8.3-1.9-12.1-1.3-2.5-4.1-5.7-6.5-7.4-3.6-2.5-5.4-3-12-3.3-5.7-.3-9.1.1-12.8 1.4zm-435.9 1.5c-.8 3.3 1.1 15.2 3.3 20.6 1.1 2.6 2.2 7.2 2.6 10.3 1.2 11.3 11 25.9 20 30 5.9 2.7 15.7 2.5 22.1-.5 11.1-5.2 16.8-19.4 11.3-28.2-1.2-2-6.3-6.3-12.7-10.5-5.9-3.9-12.4-8.7-14.6-10.6-7.5-6.8-14.9-7.9-19.6-2.8-3.5 3.7-4.8 3.1-6.5-3-1.8-6.2-4.9-8.9-5.9-5.3zm334.9 4.2c-21.6 4.2-47.9 18.8-63.7 35.4-7.1 7.6-11.8 15.6-11.8 20.4 0 5.7 4.1 14 9.9 19.9 6.7 6.9 11.2 8.5 27.7 9.8 14.2 1.1 17.5 2.6 32.2 14.5 24.1 19.3 35.5 24.1 49.8 20.5 5.7-1.5 9.5-5.9 12-14.2 2.6-8.4 2.6-32.3 0-45.2-5.8-29.5-19-53.6-32.6-59.4-6.4-2.8-14.8-3.4-23.5-1.7zm-224 15.5c-12.5 3.4-17 5.7-22.2 11.4-5.3 5.7-6.7 10.8-6 21.3.5 7 .3 8.7-1.7 13.1-2.2 4.7-8.9 12.3-10.8 12.3-.4 0-1.7 1.5-2.8 3.2-3.2 5.3-2.7 12.2 1.5 20.6 4 8 7.5 11.4 15.4 15 5.1 2.3 6.1 2.4 16.5 1.9 19.1-1.1 48.4-9 66.4-18.1 11-5.5 14.9-8.8 18.8-15.8 2.6-4.7 2.9-6.3 2.9-13.8 0-15.8-3.9-21.5-15.6-23.2-11.6-1.7-17.7-5.9-22.3-15.3-3.2-6.4-9.9-12.7-15.4-14.3-6-1.8-13.7-1.3-24.7 1.7zm861.1 1.6c-14.4 3.7-28.7 14.7-34.4 26.6-5.5 11.6-5.1 19.7 1.4 26.9 4.9 5.4 11 7.5 20.9 7.4 18-.4 36.2-12 44.3-28.4 3.8-7.8 3.9-17.9.1-23.6-5.6-8.4-19.2-12.2-32.3-8.9zm-372.6 6.4c-14.6 4.8-20.8 14.8-19.8 32.2.4 7 1.2 10.1 3.7 15.4 2.5 5.4 3.1 8 3.1 13.4 0 6.7 2.3 17.8 4.1 19.6 1.7 1.7 3.2-1.3 3.1-6.2 0-2.6.4-6.5.9-8.6.9-3.3 1.3-3.8 3.2-3.3 12.2 3.3 17.1-.7 18.1-14.8.4-6.2 1-7.7 5-13.5 5.5-8.1 6.6-10.9 6.6-17 0-6.3-3-10.8-9.8-14.4-5.5-3-13.8-4.3-18.2-2.8zm49.8 12.2c-4.7 1.4-9.4 6.6-10.9 12.1-.9 3.3-.8 6.2.1 12.5 1.2 8 1.1 8.4-1.4 13.9-6.1 13.3-4.1 20.1 6.5 22.3 2.9.6 3.4 1.1 3.7 3.9.2 2.1-.6 4.9-2.4 8.1-2.2 3.8-2.6 5.4-1.8 7 .8 2 1.1 2 3.1.6 2.8-2 10.9-14.2 11.8-17.8.5-1.7 2.2-3.8 4.4-5.1 5.6-3.6 13-12.1 15.9-18.4 3-6.6 4.1-17 2.3-22.5-1.8-5.4-6.6-11.3-11.4-14.1-5-3-14.1-4.1-19.9-2.5zm459.2 8c-2.5.4-8.2.8-12.8.8-12.6.1-18.2 3.5-18.2 10.8 0 4.2-1.2 4.8-5.1 2.6-7.5-4.3-7.9-4.4-9.6-3.5-1.4.8-.9 1.7 3.6 6.5 2.8 3 7.7 6.8 10.9 8.5 3.1 1.7 7.1 4.5 8.7 6.2 6.3 6.6 19.7 12 29.6 12 9.3 0 19.7-7.8 23.4-17.3 3.4-9 .4-20.8-6.5-25.5-2.8-1.9-4.5-2.2-11.4-2.1-4.5.1-10.1.5-12.6 1z"/></svg>