<?xml version="1.0" standalone="no"?>
<!DOCTYPE svg PUBLIC "-//W3C//DTD SVG 20010904//EN"
 "http://www.w3.org/TR/2001/REC-SVG-20010904/DTD/svg10.dtd">
<svg version="1.0" xmlns="http://www.w3.org/2000/svg"
 width="1237.000000pt" height="1280.000000pt" viewBox="0 0 1237.000000 1280.000000"
 preserveAspectRatio="xMidYMid meet">
<metadata>
Created by potrace 1.15, written by Peter Selinger 2001-2017
</metadata>
<g transform="translate(0.000000,1280.000000) scale(0.100000,-0.100000)"
fill="#000000" stroke="none">
<path d="M5237 12785 c-162 -31 -305 -112 -392 -222 -60 -76 -157 -275 -190
-388 -45 -156 -58 -264 -58 -465 0 -119 6 -223 16 -293 84 -555 347 -1158 762
-1747 169 -240 395 -514 486 -590 160 -133 385 -224 709 -287 181 -35 423 -37
541 -5 166 45 335 155 509 331 204 206 336 450 402 742 20 91 23 130 23 314
-1 231 -13 312 -75 497 -67 200 -152 344 -338 578 -710 889 -1384 1408 -1983
1525 -119 23 -315 28 -412 10z"/>
<path d="M2152 11650 c-103 -27 -182 -73 -256 -146 -173 -171 -289 -445 -355
-834 -59 -346 -55 -791 10 -1129 155 -810 591 -1425 1227 -1733 141 -68 341
-137 492 -170 90 -19 134 -22 305 -22 171 0 213 3 291 22 474 113 842 442
1040 930 146 360 158 721 34 1022 -194 470 -632 1004 -1161 1416 -431 336
-802 542 -1128 626 -98 26 -139 31 -271 34 -132 4 -166 1 -228 -16z"/>
<path d="M9127 9816 c-127 -29 -309 -146 -393 -252 -199 -253 -338 -630 -429
-1167 -46 -274 -59 -427 -60 -702 0 -242 2 -266 24 -350 130 -495 537 -924
1034 -1090 138 -46 258 -65 407 -65 210 0 354 32 525 115 123 59 218 127 317
226 166 166 329 440 423 711 111 318 132 547 67 743 -150 455 -453 937 -842
1338 -254 263 -486 415 -726 478 -101 26 -268 33 -347 15z"/>
<path d="M1230 6274 c-14 -2 -65 -9 -115 -15 -269 -32 -543 -129 -754 -266
-141 -91 -221 -178 -282 -304 -74 -152 -99 -504 -54 -756 79 -444 307 -857
695 -1257 446 -460 1064 -850 1584 -1001 183 -53 347 -54 529 -3 284 78 579
323 758 629 168 289 298 631 346 914 27 155 24 410 -6 544 -78 352 -277 647
-582 863 -369 261 -813 468 -1229 572 -227 57 -383 77 -640 81 -124 2 -236 2
-250 -1z"/>
<path d="M7505 5416 c-294 -43 -609 -195 -896 -434 -229 -190 -388 -430 -420
-631 -13 -89 -9 -118 46 -341 139 -555 211 -973 237 -1367 20 -306 -1 -426
-121 -698 -53 -118 -63 -138 -252 -490 -64 -121 -126 -247 -136 -280 -23 -79
-23 -288 1 -394 48 -214 164 -446 289 -578 70 -75 184 -148 270 -175 94 -30
262 -32 352 -5 59 18 248 108 2655 1262 674 323 1520 729 1880 902 360 172
680 330 710 350 30 20 81 63 112 96 298 307 79 814 -392 911 -164 33 -449 49
-950 51 l-485 3 -90 30 c-178 60 -402 179 -680 360 -199 129 -334 235 -520
407 -218 202 -519 469 -810 719 -248 213 -316 256 -456 290 -93 23 -237 28
-344 12z"/>
</g>
</svg>
