<?xml version="1.0" standalone="no"?>
<!DOCTYPE svg PUBLIC "-//W3C//DTD SVG 20010904//EN"
 "http://www.w3.org/TR/2001/REC-SVG-20010904/DTD/svg10.dtd">
<svg version="1.0" xmlns="http://www.w3.org/2000/svg"
 width="1280.000000pt" height="1280.000000pt" viewBox="0 0 1280.000000 1280.000000"
 preserveAspectRatio="xMidYMid meet">
<metadata>
Created by potrace 1.15, written by Peter Selinger 2001-2017
</metadata>
<g transform="translate(0.000000,1280.000000) scale(0.100000,-0.100000)"
fill="#000000" stroke="none">
<path d="M6259 12553 c-18 -21 -18 -165 0 -256 13 -66 17 -72 90 -146 117
-120 187 -251 237 -449 13 -53 27 -125 30 -162 l7 -67 -50 -7 c-66 -8 -306
-62 -368 -83 -204 -66 -347 -208 -384 -381 -25 -119 -8 -280 45 -442 37 -112
128 -289 174 -340 53 -57 86 -122 113 -218 19 -69 21 -102 21 -327 0 -193 -4
-274 -18 -355 -26 -157 -30 -226 -16 -340 44 -385 213 -657 496 -798 281 -141
681 -154 1143 -36 121 31 142 40 230 97 345 227 577 497 685 797 186 517 -6
1155 -521 1725 -144 159 -308 302 -475 414 -87 58 -260 150 -328 175 -41 15
-47 22 -64 69 -56 159 -185 369 -339 552 -152 180 -496 500 -617 574 -42 25
-73 27 -91 4z"/>
<path d="M3152 11703 c-22 -9 -41 -58 -77 -199 -116 -459 -136 -916 -53 -1209
l23 -79 -64 -96 c-220 -326 -342 -794 -328 -1260 20 -696 307 -1197 832 -1450
237 -114 484 -173 790 -186 131 -6 146 -5 237 20 493 135 853 369 993 645 62
124 80 201 79 341 0 145 -22 252 -81 390 -66 154 -137 268 -240 380 -197 215
-331 399 -408 561 -56 119 -69 181 -61 284 14 193 -68 502 -179 670 -131 197
-330 287 -568 257 -95 -12 -378 -95 -477 -140 -4 -1 -30 39 -58 90 -129 234
-177 454 -138 637 l13 65 -46 90 c-27 54 -66 112 -97 144 -48 49 -63 57 -92
45z"/>
<path d="M11356 10131 c-29 -32 -56 -117 -68 -216 -12 -92 -11 -96 11 -132 35
-60 68 -136 86 -199 23 -83 30 -262 15 -367 -11 -81 -14 -87 -34 -82 -100 21
-140 25 -228 25 -157 0 -265 -36 -393 -133 -162 -122 -301 -368 -374 -663 -39
-158 -119 -338 -393 -884 -271 -539 -302 -627 -301 -855 1 -78 7 -133 21 -186
92 -345 428 -606 967 -749 202 -54 256 -60 391 -45 584 68 994 285 1245 658
298 444 351 1106 139 1747 -89 272 -212 489 -380 673 -51 56 -51 57 -60 144
-24 232 -97 458 -241 744 -101 203 -280 488 -328 526 -23 18 -56 16 -75 -6z"/>
<path d="M288 6933 c-35 -8 -41 -56 -35 -246 17 -490 122 -916 291 -1186 19
-30 24 -57 30 -155 36 -608 392 -1288 870 -1661 517 -403 1135 -453 1811 -147
105 48 200 126 330 272 108 122 154 184 221 296 99 168 143 304 151 467 12
238 -66 420 -266 617 -113 112 -204 176 -478 333 -497 287 -872 526 -968 616
-182 172 -388 302 -585 367 -77 25 -98 28 -230 28 -133 0 -151 -2 -212 -25
-130 -50 -262 -150 -369 -276 -61 -73 -58 -74 -129 32 -87 129 -127 235 -137
359 -6 78 -6 79 -64 146 -94 109 -185 173 -231 163z"/>
<path d="M7655 5889 c-212 -20 -485 -78 -674 -143 -41 -14 -115 -33 -165 -42
-348 -60 -712 -200 -975 -375 -434 -288 -651 -678 -651 -1169 0 -158 11 -262
46 -417 24 -109 24 -113 9 -190 -58 -281 -199 -546 -400 -749 -113 -113 -201
-182 -325 -251 -155 -87 -254 -209 -317 -388 -26 -75 -28 -90 -28 -250 0 -155
3 -179 28 -269 36 -130 93 -264 171 -401 35 -60 78 -137 96 -170 114 -209 336
-421 593 -567 244 -139 646 -248 915 -248 323 0 1031 84 1572 186 341 64 1108
255 1483 368 505 153 1065 374 1573 620 230 112 282 144 425 265 280 234 478
539 554 855 45 181 50 301 25 536 -26 246 -42 333 -82 454 -90 270 -240 458
-460 575 -122 66 -189 81 -352 81 -295 1 -527 57 -786 191 -148 77 -281 172
-389 279 -82 81 -89 90 -130 192 -156 389 -455 719 -793 878 -274 128 -617
181 -963 149z"/>
</g>
</svg>
