<?xml version="1.0" standalone="no"?>
<!DOCTYPE svg PUBLIC "-//W3C//DTD SVG 20010904//EN"
 "http://www.w3.org/TR/2001/REC-SVG-20010904/DTD/svg10.dtd">
<svg version="1.0" xmlns="http://www.w3.org/2000/svg"
 width="1280.000000pt" height="922.000000pt" viewBox="0 0 1280.000000 922.000000"
 preserveAspectRatio="xMidYMid meet">
<metadata>
Created by potrace 1.15, written by Peter Selinger 2001-2017
</metadata>
<g transform="translate(0.000000,922.000000) scale(0.100000,-0.100000)"
fill="#c7c7c7" stroke="none">
<path d="M2148 9200 c-13 -10 -62 -36 -109 -57 -129 -60 -170 -119 -138 -200
18 -47 19 -182 1 -235 -27 -80 12 -126 65 -76 l23 21 24 -24 c13 -13 34 -31
47 -40 23 -16 24 -21 23 -140 0 -80 -8 -170 -23 -253 -26 -153 -28 -226 -7
-298 42 -147 56 -254 56 -432 0 -168 -21 -390 -39 -425 -5 -9 -26 -22 -48 -30
-52 -19 -63 -29 -63 -61 0 -19 7 -30 25 -38 38 -17 115 -15 155 6 32 15 36 22
43 72 4 30 18 78 32 105 16 34 26 76 30 130 7 87 16 152 46 320 29 159 21 146
82 123 29 -11 84 -23 122 -27 l70 -6 21 -75 c33 -114 54 -251 61 -396 5 -110
3 -144 -12 -203 -18 -68 -18 -72 -2 -89 13 -12 34 -17 78 -17 50 1 63 5 84 26
l26 25 -15 90 c-22 128 -36 345 -36 535 l0 165 55 27 c50 24 55 25 55 9 0 -10
7 -43 16 -72 13 -45 29 -66 94 -129 47 -46 82 -90 89 -110 6 -19 11 -79 11
-135 l0 -101 -37 -20 c-44 -23 -64 -65 -43 -90 10 -12 28 -15 73 -13 86 4 95
19 108 183 5 72 14 157 19 190 9 58 9 60 -20 90 -34 35 -60 93 -60 132 0 29
51 146 68 156 15 10 48 -35 66 -90 16 -48 27 -60 129 -142 62 -49 126 -109
144 -133 60 -84 104 -278 69 -307 -23 -19 -21 -68 3 -81 25 -13 82 -13 115 0
20 7 26 16 26 40 0 17 5 51 11 75 10 40 8 48 -24 116 -19 41 -44 105 -56 143
-13 44 -30 75 -46 88 -14 11 -38 39 -55 63 -28 40 -30 51 -39 191 -14 202 -45
319 -128 487 -21 43 -32 76 -28 88 10 30 112 110 200 156 101 52 180 79 274
92 72 9 110 29 97 49 -19 31 -204 19 -366 -23 -54 -15 -148 -51 -219 -86
l-124 -61 -46 14 c-53 15 -188 17 -351 4 l-114 -9 34 44 c19 24 69 80 111 124
42 44 82 90 88 102 14 28 3 59 -40 107 -42 49 -249 230 -264 232 -7 1 -36 18
-65 38 -29 20 -62 36 -74 36 -11 0 -45 9 -75 20 -39 15 -85 22 -166 25 -100 3
-117 2 -137 -15z"/>
<path d="M10376 9078 c-2 -7 -9 -49 -16 -93 -31 -205 -149 -394 -320 -511 -88
-60 -124 -64 -250 -30 -123 33 -187 33 -521 -1 -261 -26 -267 -26 -340 -9 -41
10 -126 42 -189 72 l-115 55 54 18 c96 33 142 83 162 179 13 65 7 175 -11 197
-18 22 -52 18 -91 -11 -61 -46 -104 -62 -180 -69 -40 -4 -89 -11 -108 -15 -31
-8 -33 -8 -26 13 14 48 18 167 5 182 -19 23 -34 18 -90 -29 -28 -24 -72 -52
-98 -61 -68 -26 -157 -72 -176 -91 -13 -12 -17 -31 -15 -75 2 -58 2 -59 -44
-102 -31 -28 -47 -52 -47 -68 -1 -21 -15 -31 -101 -72 l-100 -48 -107 30 c-59
17 -172 51 -251 75 -80 25 -148 43 -153 40 -15 -10 -8 -25 17 -34 21 -8 24
-14 19 -34 -7 -27 10 -43 30 -27 9 8 28 7 67 -5 68 -19 271 -85 282 -91 4 -3
-4 -14 -18 -25 -57 -45 -9 -74 54 -33 57 38 75 31 79 -30 4 -76 10 -95 32 -95
11 0 20 5 20 10 0 24 18 7 24 -23 10 -54 33 -79 71 -75 21 1 41 -4 53 -15 22
-21 41 -21 66 -2 13 10 24 11 37 5 27 -15 37 -12 61 16 17 18 29 23 46 19 19
-5 25 0 35 25 18 48 34 36 51 -39 22 -96 20 -169 -5 -238 -51 -137 -140 -222
-457 -434 -119 -80 -137 -89 -166 -83 -72 13 -92 -67 -25 -101 44 -23 77 -18
131 21 27 20 131 74 231 119 214 96 262 120 302 151 33 25 144 78 150 72 9 -9
-42 -131 -91 -217 -62 -109 -211 -321 -266 -379 -21 -22 -54 -43 -77 -51 -29
-8 -42 -18 -47 -36 -9 -37 -1 -59 29 -73 50 -24 87 -2 200 121 56 61 143 154
192 207 50 52 138 154 196 225 l106 130 111 -3 c219 -8 352 31 645 187 65 35
119 62 121 60 1 -2 17 -40 35 -84 43 -103 80 -166 197 -334 53 -75 105 -153
115 -173 20 -39 42 -135 54 -230 6 -56 6 -56 -34 -96 -41 -40 -47 -55 -35 -86
9 -23 106 -22 129 1 29 29 32 54 30 268 -1 177 -4 216 -19 250 -22 50 -45 173
-46 244 l0 54 54 -51 c64 -61 160 -124 276 -182 109 -54 189 -112 269 -193
l64 -65 -5 -51 c-6 -58 3 -71 50 -71 45 0 68 14 80 48 9 26 3 42 -69 163 -57
97 -89 140 -115 157 -51 33 -188 167 -231 224 -20 27 -62 113 -95 191 -33 78
-74 169 -93 202 -36 65 -60 141 -70 222 -9 67 4 92 106 213 82 97 137 195 179
320 29 86 50 205 41 238 -8 29 -38 42 -45 20z"/>
<path d="M5190 8463 c-8 -3 -44 -27 -80 -54 -36 -26 -91 -57 -123 -69 -32 -12
-62 -31 -68 -43 -12 -21 -7 -205 6 -239 5 -13 -3 -22 -34 -37 -22 -12 -47 -31
-55 -43 -18 -25 -22 -123 -6 -133 5 -3 -6 -26 -25 -50 -56 -74 -78 -146 -78
-255 0 -74 4 -107 21 -150 12 -30 22 -58 22 -62 0 -5 -17 -8 -37 -8 -121 0
-225 -96 -168 -154 8 -8 40 -20 70 -27 54 -12 59 -11 151 24 l95 36 41 -29
c47 -34 153 -70 206 -70 54 0 28 -13 -87 -45 -113 -31 -166 -66 -191 -125 -28
-68 9 -101 118 -108 l74 -5 44 51 c25 28 59 55 77 61 17 6 106 20 197 31 179
22 317 45 366 61 30 9 46 30 59 76 5 17 16 23 58 28 91 12 180 67 292 180 55
56 126 121 157 144 l57 43 35 -28 35 -28 -82 -23 c-66 -18 -88 -29 -114 -57
-50 -54 -42 -82 27 -97 58 -13 100 -3 204 47 49 24 104 46 122 50 19 3 34 11
34 17 0 5 9 41 20 78 20 67 21 68 47 58 40 -15 121 -13 193 6 87 23 157 16
210 -19 72 -47 100 -3 34 52 -53 44 -107 55 -232 49 -82 -3 -115 -1 -139 10
-48 22 -53 33 -42 82 25 113 -66 308 -169 360 -81 40 -289 74 -539 87 l-132 6
-26 44 c-36 61 -130 160 -179 189 -61 35 -178 65 -291 75 -55 4 -113 11 -130
14 -16 3 -37 2 -45 -1z m385 -83 c12 -5 -1 -6 -35 -3 -30 3 -57 7 -59 9 -9 8
75 2 94 -6z"/>
<path d="M9137 6222 c-29 -32 -67 -127 -67 -168 0 -44 -17 -104 -29 -104 -4 0
-13 12 -20 26 -6 15 -27 45 -46 69 -38 46 -65 102 -65 136 0 30 -22 19 -43
-22 -18 -34 -19 -86 -1 -222 5 -42 2 -54 -27 -102 -36 -60 -41 -62 -184 -100
-132 -35 -326 -124 -342 -158 -21 -41 0 -82 55 -108 26 -12 62 -38 81 -57 31
-31 37 -33 75 -28 36 6 45 3 66 -19 21 -23 31 -25 102 -25 126 0 167 -31 175
-134 4 -45 10 -66 20 -68 10 -2 15 -23 18 -74 3 -59 20 -148 32 -163 1 -2 9 2
18 9 13 11 15 7 15 -32 0 -41 3 -45 37 -62 37 -17 38 -17 54 3 17 21 18 20 29
-36 17 -79 38 -120 75 -142 27 -16 33 -27 48 -100 26 -117 45 -280 49 -401 3
-100 1 -109 -31 -187 -28 -71 -37 -83 -56 -83 -65 0 -106 -51 -81 -101 10 -22
19 -24 87 -27 l75 -3 39 82 c22 45 57 106 78 136 37 53 37 55 38 156 1 56 4
134 8 172 l7 70 14 -45 c9 -32 14 -103 14 -242 1 -184 0 -198 -20 -225 -11
-15 -36 -33 -55 -39 -48 -16 -76 -56 -63 -91 9 -28 10 -28 98 -28 l89 0 57
126 57 127 6 133 c6 153 29 257 81 364 51 106 46 102 175 115 62 6 141 17 176
24 l63 13 16 -61 c27 -98 68 -149 177 -222 85 -57 99 -71 118 -114 12 -27 21
-53 21 -59 0 -5 -23 -44 -51 -86 -42 -62 -54 -75 -71 -69 -11 3 -33 0 -49 -6
-32 -13 -45 -45 -35 -84 5 -19 14 -24 53 -30 84 -10 100 0 193 121 47 61 103
132 124 158 37 43 39 48 26 68 -36 54 -70 132 -70 158 0 16 2 29 4 29 3 0 41
-18 86 -39 44 -22 122 -49 173 -61 131 -31 213 -83 244 -158 17 -40 29 -158
19 -195 -3 -14 -18 -29 -35 -37 -17 -7 -35 -25 -42 -42 -12 -29 -11 -33 15
-54 42 -37 120 -34 176 7 36 26 41 34 36 57 -4 15 -9 118 -13 229 l-6 201 -77
52 c-43 28 -96 70 -118 94 -42 45 -42 47 -78 236 -13 71 -32 129 -71 219 -5
11 -2 11 17 1 12 -6 42 -12 67 -13 35 0 48 4 56 19 10 17 12 16 17 -11 4 -22
11 -31 29 -33 13 -2 28 1 34 7 17 17 27 13 27 -9 0 -16 7 -20 30 -20 21 0 30
5 30 17 0 15 1 15 18 0 24 -22 42 -22 42 1 1 16 1 16 11 0 19 -33 79 -19 79
18 0 29 7 30 36 3 l22 -21 47 21 c41 18 45 22 35 41 -12 23 -8 25 20 8 15 -10
26 -9 56 5 30 15 35 22 31 42 -5 29 -4 29 23 13 15 -10 23 -9 40 7 13 12 18
25 14 37 -4 13 6 32 31 60 21 22 46 60 56 83 24 53 35 130 21 139 -6 3 -47 -7
-92 -24 -100 -37 -278 -84 -380 -101 -246 -40 -635 18 -857 129 -255 128 -616
222 -851 222 -48 0 -53 2 -47 20 9 27 -21 68 -56 75 -26 6 -28 9 -14 18 14 11
13 16 -5 52 -11 21 -20 56 -20 76 0 32 -3 37 -28 42 -44 9 -77 50 -111 140
-18 48 -47 102 -71 131 -22 27 -42 59 -45 72 -3 13 -7 35 -10 49 -6 29 -25 32
-48 7z"/>
<path d="M5227 6212 c-17 -19 -72 -181 -82 -244 -5 -31 -10 -38 -37 -44 -27
-5 -36 -2 -54 19 -21 24 -50 100 -74 195 -15 58 -34 55 -26 -5 3 -27 8 -93 12
-148 l6 -100 -31 -18 c-30 -18 -47 -53 -39 -79 3 -8 -30 -30 -90 -60 -105 -53
-182 -110 -182 -137 0 -23 28 -48 86 -76 36 -18 54 -21 76 -14 15 5 42 13 59
19 21 6 38 6 50 -1 11 -5 49 -12 86 -14 73 -5 100 -18 136 -67 63 -86 88 -210
86 -427 l-2 -166 41 -135 c51 -170 60 -215 72 -370 11 -142 13 -462 4 -562 -6
-63 -8 -66 -35 -72 -18 -3 -34 -16 -45 -38 -16 -31 -16 -32 6 -50 29 -24 87
-23 127 1 28 18 32 26 37 78 4 32 10 101 16 153 5 52 12 156 15 230 6 158 24
356 35 385 6 17 9 14 19 -20 8 -26 14 -170 18 -403 l6 -363 -37 -30 c-46 -39
-47 -65 -2 -84 42 -18 88 -10 114 19 19 19 21 45 31 333 13 339 26 517 41 557
6 16 17 26 29 26 32 0 169 45 331 108 224 87 202 87 245 3 19 -39 45 -97 57
-129 29 -81 92 -164 197 -264 l90 -86 -9 -124 c-4 -68 -12 -131 -15 -141 -4
-10 -23 -24 -41 -32 -19 -8 -39 -26 -46 -41 -11 -24 -10 -29 17 -51 23 -20 36
-24 64 -19 20 3 47 14 61 24 22 17 26 30 37 131 13 128 38 253 60 294 13 26
12 30 -20 70 -47 58 -92 141 -111 206 -17 56 -22 161 -8 161 4 0 32 -16 62
-37 175 -116 489 -435 555 -562 24 -47 54 -137 65 -191 8 -42 7 -47 -21 -72
-38 -35 -39 -75 -3 -88 36 -14 97 -12 119 4 15 11 45 87 46 121 1 6 -22 60
-49 120 -28 61 -62 148 -77 194 -24 73 -38 97 -107 180 -87 106 -183 242 -218
310 -12 24 -51 119 -87 210 -35 91 -87 208 -114 260 l-49 94 20 22 c46 49 11
82 -43 41 -46 -35 -77 -34 -259 13 -209 54 -358 103 -523 173 -299 128 -455
223 -567 347 -47 52 -59 73 -68 118 -21 99 -30 177 -30 265 0 48 -4 89 -9 92
-4 3 -16 -2 -24 -12z m-247 -442 c0 -21 -24 -28 -35 -10 -8 14 3 30 21 30 8 0
14 -9 14 -20z m73 6 c7 -17 -18 -40 -33 -31 -5 3 -10 15 -10 26 0 23 35 27 43
5z"/>
<path d="M1280 6060 c-19 -4 -56 -11 -82 -14 -72 -11 -87 -29 -103 -121 -8
-44 -12 -97 -8 -117 6 -41 13 -37 -102 -52 -51 -7 -68 -29 -60 -79 3 -21 0
-56 -6 -77 -24 -81 24 -169 104 -192 23 -6 51 -20 63 -30 11 -10 34 -18 51
-18 l30 0 -8 -42 c-12 -62 -11 -284 2 -354 17 -100 59 -224 106 -317 25 -50
55 -132 68 -186 45 -181 84 -453 85 -583 0 -54 -2 -57 -35 -78 -35 -22 -50
-52 -43 -87 5 -30 97 -41 148 -18 25 11 42 27 45 39 8 44 17 244 14 326 -7
148 -4 468 3 475 18 19 105 -29 140 -76 25 -33 35 -139 43 -449 l6 -235 -33
-20 c-28 -18 -33 -26 -33 -60 0 -40 0 -40 48 -49 41 -8 55 -6 91 11 l43 21 6
109 c3 59 10 176 16 258 6 83 15 236 22 340 6 105 15 197 19 206 10 17 163 96
252 129 60 22 78 20 78 -8 0 -37 91 -200 148 -263 78 -88 96 -149 90 -308 -3
-110 -3 -111 -36 -140 -35 -32 -43 -75 -16 -85 56 -21 152 19 146 62 -6 41 18
208 38 266 l20 58 -21 80 c-23 88 -23 228 -1 281 l12 29 68 -53 c183 -143 345
-315 400 -424 17 -33 40 -93 52 -132 l22 -73 -21 -26 c-28 -35 -28 -80 0 -95
26 -13 103 -7 124 11 27 22 20 127 -14 201 -16 36 -45 109 -64 164 -19 55 -62
146 -95 202 -32 57 -92 173 -132 259 -70 149 -74 161 -82 255 -8 106 -34 198
-74 266 l-25 42 28 7 c16 4 34 11 40 16 18 14 27 73 14 96 -15 27 -100 61
-211 84 -52 10 -119 26 -149 35 -79 23 -274 14 -416 -20 -60 -14 -133 -28
-160 -32 l-51 -6 -17 58 c-27 89 -87 232 -124 295 -28 47 -31 61 -23 82 12 33
1 63 -36 97 -59 54 -89 62 -234 65 -74 1 -151 -2 -170 -6z m-51 -233 c15 -19
-9 -50 -32 -41 -17 6 -23 35 -10 47 10 11 30 8 42 -6z m-105 -12 c-4 -8 -8
-15 -10 -15 -2 0 -4 7 -4 15 0 8 4 15 10 15 5 0 7 -7 4 -15z"/>
<path d="M1200 5810 c0 -5 5 -10 10 -10 6 0 10 5 10 10 0 6 -4 10 -10 10 -5 0
-10 -4 -10 -10z"/>
<path d="M10301 3220 c-48 -67 -92 -183 -98 -263 -3 -40 -11 -75 -17 -79 -21
-14 -34 -8 -41 20 -6 28 -34 69 -98 145 -20 24 -50 68 -66 97 -25 46 -29 49
-34 28 -11 -48 13 -138 50 -179 7 -9 18 -51 22 -94 5 -42 14 -82 20 -88 7 -7
3 -19 -14 -39 -25 -30 -29 -50 -26 -124 l3 -41 -103 -73 c-180 -129 -247 -211
-205 -252 18 -18 23 -35 41 -141 20 -113 38 -157 64 -157 11 0 27 10 36 23 16
21 16 22 27 3 28 -50 59 -66 122 -66 96 0 122 19 176 127 50 99 128 210 139
196 14 -16 52 -118 72 -192 23 -91 24 -145 3 -247 -28 -134 -21 -166 87 -384
l94 -193 -1 -276 c-2 -268 -19 -525 -45 -653 -11 -54 -13 -57 -55 -73 -55 -21
-114 -75 -114 -104 0 -48 114 -56 200 -13 l55 27 11 75 c7 41 22 102 34 135
15 40 27 108 37 205 22 238 103 635 124 613 21 -23 39 -111 39 -196 0 -171
-31 -599 -56 -775 -6 -41 -9 -45 -63 -68 -92 -41 -133 -93 -97 -123 19 -16
114 -26 160 -17 19 4 48 18 64 31 25 21 30 33 36 96 7 74 36 201 61 267 7 21
18 108 24 195 13 187 39 325 88 462 37 104 43 142 30 187 -6 21 -3 28 12 33
11 3 70 51 133 106 179 159 303 233 438 263 l25 5 0 -147 c0 -140 1 -150 28
-206 39 -85 109 -178 212 -285 l90 -93 0 -157 c0 -195 -3 -207 -56 -222 -101
-31 -92 -129 12 -129 38 0 89 33 109 70 5 10 28 123 50 250 l40 232 -36 42
c-20 22 -58 86 -85 141 -45 92 -49 106 -48 170 1 114 9 117 54 24 74 -152 172
-279 296 -384 68 -57 80 -72 108 -139 37 -90 58 -182 67 -303 l7 -90 -34 -24
c-81 -56 -76 -96 13 -120 34 -9 48 -8 79 7 59 26 69 42 59 89 -9 43 -35 270
-49 430 -8 98 -10 102 -66 195 -99 161 -172 342 -194 475 -17 106 -23 177 -14
173 116 -57 128 -61 192 -61 78 0 123 17 181 69 45 41 95 112 86 122 -3 3 -31
-18 -61 -47 -66 -63 -107 -81 -181 -81 -42 0 -69 7 -105 27 -27 14 -49 32 -49
40 0 7 -6 13 -14 13 -33 0 -71 65 -90 150 -23 108 -42 144 -105 203 -61 57
-151 102 -247 122 -97 20 -126 19 -335 -16 -387 -65 -555 -48 -751 77 -36 23
-95 71 -131 106 -58 56 -73 82 -151 241 -70 143 -93 181 -120 199 -25 16 -36
32 -40 58 -3 19 -24 73 -47 120 -39 80 -41 89 -35 150 3 36 8 77 12 93 9 40
-11 34 -45 -13z m-91 -1015 c-24 -25 -46 -45 -49 -45 -3 0 15 20 39 45 24 25
46 45 49 45 3 0 -15 -20 -39 -45z m-50 -58 c0 -2 -12 -14 -27 -28 l-28 -24 24
28 c23 25 31 32 31 24z m1608 -504 c-10 -2 -28 -2 -40 0 -13 2 -5 4 17 4 22 1
32 -1 23 -4z"/>
<path d="M6920 2533 l-32 -38 -15 23 c-19 27 -33 28 -33 2 0 -21 -15 -27 -25
-10 -8 12 -85 13 -85 1 0 -5 7 -14 15 -21 19 -16 19 -30 1 -30 -23 0 -29 -20
-12 -39 19 -21 11 -90 -13 -108 -11 -8 -12 -12 -3 -13 6 0 12 -12 12 -26 0
-20 -32 -59 -138 -168 -107 -110 -145 -155 -170 -207 -60 -125 -40 -162 94
-168 77 -3 88 -1 131 25 27 15 64 41 85 57 31 25 39 27 58 17 13 -7 38 -10 57
-7 l35 6 -4 -115 -3 -115 23 6 c23 6 24 4 17 -37 -7 -42 -7 -43 12 -25 11 9
22 17 25 17 2 0 -1 -44 -9 -97 -27 -200 -28 -355 -3 -507 12 -77 23 -170 23
-208 1 -37 6 -68 11 -68 13 0 -1 -167 -23 -269 -23 -105 -39 -139 -81 -174
-35 -30 -36 -34 -12 -39 12 -3 5 -11 -28 -30 l-44 -27 45 -20 c71 -32 178 -53
249 -50 55 3 74 -1 125 -26 56 -28 69 -30 193 -33 l132 -4 1 29 c0 27 1 27 9
5 8 -18 17 -22 49 -22 58 0 92 15 84 37 -5 15 -3 16 8 5 18 -17 64 -15 105 4
40 19 40 22 13 76 -24 48 -84 201 -93 239 -5 23 -2 27 19 31 14 3 30 -1 36 -8
8 -9 45 -13 137 -13 147 -1 202 10 202 39 0 20 0 20 20 0 24 -24 70 -26 153
-6 l59 14 14 -35 c19 -45 34 -125 34 -183 0 -54 12 -64 66 -54 23 4 34 12 37
28 l4 21 2 -21 c2 -41 24 -48 122 -38 84 9 90 8 85 -8 -8 -35 30 -43 206 -43
91 0 169 3 172 6 4 3 -1 22 -9 42 -22 53 -19 55 15 9 34 -48 58 -52 108 -22
l32 20 -16 37 c-80 181 -149 389 -168 504 -5 29 -13 40 -36 49 -42 17 -138
113 -187 185 -83 124 -120 216 -143 363 -22 136 -128 307 -239 384 -123 86
-200 100 -561 102 -258 2 -293 5 -365 24 -44 12 -91 30 -104 40 -22 16 -24 25
-23 83 2 35 -2 110 -7 167 -11 119 -40 194 -113 283 -39 48 -43 57 -30 66 14
8 12 12 -13 29 -23 15 -49 19 -130 20 l-100 2 -9 36 c-5 20 -13 36 -17 36 -4
0 -22 -17 -39 -37z m17 -2359 c-3 -3 -12 -4 -19 -1 -8 3 -5 6 6 6 11 1 17 -2
13 -5z"/>
<path d="M3502 2447 c-6 -7 -18 -42 -28 -77 -10 -39 -28 -77 -45 -95 -15 -16
-31 -43 -35 -60 -4 -16 -20 -45 -36 -63 -15 -18 -28 -39 -28 -48 0 -8 -7 -17
-15 -20 -8 -4 -15 -14 -15 -24 0 -10 -7 -20 -15 -24 -10 -4 -15 -20 -15 -50 0
-25 -4 -48 -10 -51 -16 -10 -12 -55 5 -61 10 -4 13 -13 9 -26 -8 -25 24 -98
43 -98 10 0 11 -5 4 -18 -10 -19 -5 -33 35 -101 10 -16 25 -31 33 -34 28 -7
54 -112 61 -242 4 -66 13 -133 19 -150 l13 -30 19 23 19 24 -2 -45 c-2 -42 2
-49 54 -106 69 -74 127 -174 144 -250 36 -151 39 -568 5 -579 -33 -11 -71 -55
-71 -83 0 -24 7 -32 43 -50 56 -29 113 -30 158 -1 36 22 37 25 49 110 7 48 16
107 22 132 5 25 9 68 9 95 -1 70 20 459 25 464 6 7 73 -71 93 -110 23 -41 47
-130 67 -244 14 -78 19 -310 8 -350 -3 -11 -26 -32 -52 -45 -45 -24 -47 -27
-47 -70 l0 -45 58 -23 c65 -26 73 -24 140 18 45 28 47 31 47 77 0 27 10 86 21
133 33 138 38 178 38 321 1 194 7 226 43 245 16 8 33 26 38 39 6 16 17 25 31
25 12 0 37 11 56 26 27 20 33 32 33 61 0 34 1 35 18 20 16 -15 21 -15 38 -2
28 21 44 18 44 -8 0 -53 66 -161 152 -249 47 -48 94 -104 104 -125 44 -91 2
-259 -78 -309 -40 -26 -62 -63 -52 -89 17 -42 119 -49 174 -11 30 20 39 37 69
127 18 57 52 142 75 189 34 67 41 91 35 115 -9 39 -11 125 -3 125 12 0 159
-133 192 -173 17 -22 39 -63 47 -91 20 -65 32 -246 17 -246 -25 0 -72 -52 -72
-81 0 -34 21 -48 91 -56 43 -5 53 -3 75 18 57 54 62 71 59 234 -2 110 -7 162
-20 195 -19 52 -34 167 -28 225 2 22 13 94 25 160 13 75 21 165 21 240 1 144
-19 218 -89 340 -122 213 -136 263 -140 515 -2 102 -3 188 -4 191 0 4 -10 18
-21 33 l-21 27 -27 -31 -26 -32 3 49 c4 47 2 50 -35 75 -21 15 -50 30 -65 33
-23 6 -28 4 -29 -11 0 -14 -3 -11 -10 8 -11 29 -52 48 -102 48 -22 0 -28 -4
-23 -15 4 -12 -6 -15 -63 -15 -80 0 -102 -6 -94 -26 3 -9 -1 -14 -12 -14 -39
0 -133 -57 -192 -116 -72 -71 -82 -98 -31 -83 52 15 53 11 7 -29 l-43 -39 1
-69 c0 -38 8 -89 16 -114 9 -24 15 -46 13 -48 -2 -1 -34 -8 -70 -13 -53 -8
-88 -7 -168 5 -55 9 -104 18 -108 21 -4 2 -9 38 -12 78 -4 56 -12 86 -31 122
-35 61 -35 108 1 242 26 100 26 105 9 118 -27 19 -68 4 -147 -54 l-68 -49 -39
19 c-76 38 -177 46 -290 23 -30 -6 -32 -4 -53 45 -24 53 -31 59 -48 38z"/>
<path d="M166 2420 c-22 -11 -61 -27 -88 -36 -67 -22 -85 -50 -69 -112 43
-173 48 -187 70 -190 19 -3 21 2 22 40 l1 43 14 -33 c13 -30 13 -35 -6 -60
-30 -41 -62 -168 -54 -217 9 -58 18 -64 89 -64 35 1 69 -2 74 -6 6 -3 18 -31
27 -62 14 -50 15 -80 4 -289 -14 -267 -15 -261 71 -459 61 -144 69 -196 69
-501 0 -230 -4 -273 -29 -281 -39 -12 -60 -27 -71 -51 -10 -23 -9 -29 10 -44
14 -11 39 -18 64 -18 57 0 89 34 111 120 9 36 28 91 41 124 13 32 22 62 19 65
-8 13 30 489 40 499 2 2 30 -14 63 -37 55 -37 63 -47 92 -118 77 -183 117
-345 127 -506 l6 -98 -36 -30 c-59 -49 -46 -84 35 -95 41 -6 48 -3 82 26 37
33 37 33 31 94 -3 34 -2 94 4 134 8 63 7 82 -9 128 -23 64 -58 266 -66 379
l-7 82 37 7 c20 4 118 48 217 97 100 50 193 91 206 92 23 2 26 -4 43 -70 40
-153 93 -229 231 -328 176 -127 203 -170 197 -312 -3 -64 -5 -69 -33 -82 -36
-17 -45 -28 -45 -59 0 -25 32 -42 81 -42 96 0 113 67 88 343 l-11 121 -44 39
c-44 39 -64 69 -79 116 -5 18 8 8 48 -35 38 -41 91 -81 164 -125 137 -81 205
-149 261 -259 53 -105 63 -157 33 -184 -26 -24 -27 -62 -2 -75 32 -17 97 -24
119 -12 11 6 30 24 41 40 l21 28 -31 63 c-16 34 -55 138 -86 229 l-56 167 -46
19 c-57 24 -122 88 -156 155 -14 28 -48 135 -76 238 -56 213 -87 284 -158 363
l-49 55 55 75 c69 94 74 104 67 123 -9 24 -19 20 -86 -34 -34 -27 -81 -57
-105 -66 -41 -16 -45 -16 -93 5 -30 13 -128 34 -242 52 -433 67 -531 100 -643
213 -33 33 -73 84 -88 113 l-27 51 48 49 c62 65 112 159 119 226 7 70 -17 101
-95 123 -31 8 -79 24 -106 35 -54 21 -97 24 -126 9 -13 -7 -29 -5 -55 6 -24
10 -62 14 -113 13 -42 -2 -86 0 -97 4 -13 4 -36 -1 -59 -13z"/>
</g>
</svg>
