<?xml version="1.0" standalone="no"?>
<!DOCTYPE svg PUBLIC "-//W3C//DTD SVG 20010904//EN"
 "http://www.w3.org/TR/2001/REC-SVG-20010904/DTD/svg10.dtd">
<svg version="1.0" xmlns="http://www.w3.org/2000/svg"
 width="1280.000000pt" height="1270.000000pt" viewBox="0 0 1280.000000 1270.000000"
 preserveAspectRatio="xMidYMid meet">
<metadata>
Created by potrace 1.15, written by Peter Selinger 2001-2017
</metadata>
<g transform="translate(0.000000,1270.000000) scale(0.100000,-0.100000)"
fill="#000000" stroke="none">
<path d="M1302 12680 c-41 -11 -146 -52 -235 -91 -149 -66 -167 -72 -227 -72
-36 1 -98 8 -138 17 -94 21 -176 20 -238 -1 -67 -22 -168 -122 -184 -182 -31
-116 69 -309 263 -505 226 -228 439 -325 598 -271 223 77 508 536 535 863 7
87 -5 145 -38 187 -52 66 -204 91 -336 55z"/>
<path d="M6325 12596 c-46 -20 -110 -96 -135 -162 -31 -82 -39 -243 -16 -346
35 -155 118 -282 219 -333 57 -28 82 -30 138 -14 161 49 236 329 154 576 -74
220 -226 338 -360 279z"/>
<path d="M11470 12575 c-255 -57 -433 -282 -351 -443 45 -88 125 -127 261
-127 155 0 299 61 393 165 66 74 82 112 82 201 0 68 -3 79 -29 113 -32 43 -75
71 -126 86 -63 18 -162 20 -230 5z"/>
<path d="M8930 12540 c0 -11 9 -27 19 -36 10 -9 36 -32 57 -51 l37 -34 -31
-28 c-39 -37 -48 -83 -27 -141 24 -66 70 -206 90 -275 39 -135 112 -172 253
-128 136 43 202 209 138 348 -45 99 -158 198 -256 226 -25 7 -56 22 -70 34
-40 35 -70 52 -142 79 -66 25 -68 25 -68 6z"/>
<path d="M3602 12365 c-41 -19 -89 -48 -108 -65 -19 -16 -43 -30 -53 -30 -41
0 -141 -62 -199 -125 -126 -134 -135 -280 -23 -396 93 -95 253 -99 309 -7 11
18 34 83 51 143 17 61 43 136 56 168 39 90 32 148 -22 192 l-25 21 43 37 c24
20 52 44 62 52 9 8 17 22 17 30 0 23 -28 18 -108 -20z"/>
<path d="M7990 12342 c0 -17 46 -50 78 -57 18 -4 46 -18 62 -31 l29 -25 -26
-40 c-53 -80 -28 -132 90 -194 63 -33 85 -51 121 -100 71 -99 110 -125 183
-125 79 0 186 100 199 187 22 148 -44 255 -195 315 -45 18 -78 23 -167 24 -64
1 -120 6 -133 13 -52 28 -241 54 -241 33z"/>
<path d="M5562 12279 c-265 -134 7 -740 344 -767 80 -6 126 10 167 59 81 94
75 247 -15 423 -54 104 -175 229 -263 272 -81 39 -172 44 -233 13z"/>
<path d="M10444 12226 c-17 -8 -45 -31 -62 -52 -83 -100 -89 -244 -23 -513 52
-206 51 -239 -5 -381 -50 -129 -57 -215 -21 -293 28 -62 87 -131 130 -154 69
-35 217 -8 368 67 243 123 456 321 525 488 57 139 6 283 -166 465 -167 176
-382 317 -562 367 -84 23 -140 25 -184 6z"/>
<path d="M4483 12180 c-23 -5 -56 -16 -73 -25 -24 -13 -46 -15 -99 -9 -79 7
-163 -7 -239 -43 -72 -34 -108 -67 -139 -127 -22 -42 -27 -64 -26 -122 1 -78
13 -109 66 -166 45 -48 90 -70 143 -70 58 0 99 25 151 92 72 92 98 115 141
128 23 7 60 30 82 51 49 47 52 79 11 143 l-29 46 36 25 c20 14 51 28 67 32 31
7 65 31 65 47 0 10 -100 9 -157 -2z"/>
<path d="M7019 12072 c-106 -55 -169 -189 -169 -356 1 -442 404 -571 524 -167
34 114 15 289 -41 393 -77 142 -197 191 -314 130z"/>
<path d="M12021 12069 c-232 -45 -392 -186 -379 -331 13 -132 161 -218 374
-218 352 0 610 253 453 444 -74 88 -283 138 -448 105z"/>
<path d="M1701 11943 c-42 -22 -60 -39 -84 -82 -27 -47 -31 -64 -31 -130 -1
-245 205 -495 408 -495 114 1 184 61 208 178 47 235 -164 533 -390 553 -49 4
-65 1 -111 -24z"/>
<path d="M7700 11873 c0 -24 72 -131 120 -178 22 -21 40 -48 40 -60 0 -11 11
-44 25 -73 80 -173 221 -264 358 -233 98 22 163 86 193 187 12 41 13 62 4 92
-13 49 -74 107 -127 121 -21 6 -64 17 -96 26 -43 12 -72 28 -113 66 -87 79
-128 87 -178 37 -18 -18 -37 -42 -43 -52 -10 -17 -14 -18 -41 -7 -17 7 -47 30
-67 52 -37 41 -75 52 -75 22z"/>
<path d="M268 11850 c-76 -23 -159 -103 -208 -199 -117 -232 -51 -528 128
-570 43 -11 60 -10 108 4 107 31 209 159 249 311 69 266 -82 513 -277 454z"/>
<path d="M4896 11728 c-10 -6 -32 -25 -48 -43 -16 -18 -42 -38 -58 -44 -26 -9
-31 -7 -41 12 -53 103 -138 102 -237 -2 -24 -25 -52 -42 -77 -48 -22 -6 -62
-15 -90 -22 -64 -15 -109 -46 -134 -92 -26 -46 -26 -94 -1 -162 36 -97 125
-156 235 -157 81 0 145 31 216 107 62 64 92 116 109 186 8 31 27 60 60 95 70
73 129 182 98 182 -7 0 -22 -6 -32 -12z"/>
<path d="M9540 11659 c-83 -67 -177 -81 -270 -40 -30 13 -82 26 -115 29 -114
9 -188 -42 -298 -206 -89 -130 -107 -223 -63 -319 14 -29 45 -71 69 -95 79
-77 94 -137 73 -289 l-9 -57 42 -44 c86 -94 241 -128 355 -79 140 61 423 444
522 709 56 149 5 295 -135 384 -56 35 -132 39 -171 7z"/>
<path d="M2952 11515 c-53 -23 -138 -110 -162 -168 -46 -105 -23 -223 77 -407
82 -151 261 -390 354 -474 124 -111 300 -113 424 -4 53 47 71 92 56 145 -29
103 -8 188 65 262 71 73 94 121 94 198 0 82 -18 127 -95 238 -80 114 -132 161
-203 181 -65 19 -116 13 -191 -21 -90 -42 -171 -32 -265 32 -54 37 -98 42
-154 18z"/>
<path d="M5365 11467 c-58 -28 -78 -48 -100 -100 -32 -76 -8 -208 55 -307 47
-73 149 -164 227 -201 56 -27 83 -33 153 -37 75 -3 90 -1 130 20 25 14 59 44
75 67 27 39 30 50 30 125 0 75 -3 89 -39 161 -52 106 -144 198 -250 250 -64
32 -89 39 -154 42 -66 3 -84 1 -127 -20z"/>
<path d="M6410 11417 c-135 -38 -243 -175 -319 -403 -53 -160 -74 -283 -75
-449 -1 -163 12 -229 57 -296 34 -51 69 -64 168 -64 80 0 91 3 170 42 53 26
136 83 224 154 77 62 159 121 183 131 27 12 84 22 158 28 132 11 155 16 206
41 82 42 168 169 168 250 0 245 -663 644 -940 566z"/>
<path d="M11809 11377 c-67 -19 -135 -63 -164 -105 -32 -47 -34 -136 -5 -200
41 -90 170 -186 315 -234 57 -19 92 -23 190 -23 140 0 199 16 263 70 162 139
29 375 -268 475 -81 27 -262 37 -331 17z"/>
<path d="M1344 11336 c-42 -18 -90 -80 -111 -141 -22 -67 -22 -218 1 -305 40
-149 141 -297 242 -356 64 -38 145 -42 204 -12 233 121 126 675 -156 807 -51
24 -133 27 -180 7z"/>
<path d="M800 11271 c-77 -24 -150 -93 -195 -185 -110 -227 -71 -551 79 -653
40 -27 58 -33 103 -33 68 0 115 23 174 87 86 91 132 227 132 388 0 196 -63
333 -178 386 -42 20 -74 22 -115 10z"/>
<path d="M8355 11030 c-27 -5 -88 -9 -133 -9 -127 -1 -182 -38 -182 -121 0
-37 -14 -38 -63 -4 -26 17 -48 24 -70 22 l-32 -3 60 -61 c34 -34 81 -72 105
-84 25 -13 67 -42 93 -66 113 -102 294 -142 396 -90 45 24 101 83 122 130 42
93 13 225 -60 273 -28 19 -46 23 -110 22 -42 -1 -98 -5 -126 -9z"/>
<path d="M11153 10970 c-180 -38 -250 -184 -162 -339 85 -148 258 -243 443
-243 131 0 234 52 265 135 17 45 13 137 -9 185 -24 53 -107 141 -171 183 -101
64 -266 100 -366 79z"/>
<path d="M4074 10879 c-71 -20 -125 -134 -109 -229 11 -66 64 -141 125 -178
53 -32 58 -33 145 -30 75 3 101 9 155 34 36 17 88 51 115 75 28 24 68 53 89
64 45 23 156 124 156 143 0 15 -56 16 -65 2 -4 -6 -24 -19 -45 -30 l-38 -19
-7 46 c-4 27 -16 55 -30 69 -27 27 -91 46 -131 38 -16 -3 -85 2 -154 10 -138
18 -161 18 -206 5z"/>
<path d="M1110 10223 c0 -16 11 -45 25 -65 16 -24 25 -51 25 -76 0 -38 -2 -40
-36 -45 -89 -15 -110 -97 -54 -205 29 -55 30 -63 27 -168 -3 -133 14 -174 84
-212 38 -20 53 -23 111 -19 36 3 80 13 97 21 43 23 97 81 122 133 59 121 -26
325 -175 419 -27 17 -51 43 -64 69 -21 44 -112 149 -143 166 -16 8 -19 6 -19
-18z"/>
<path d="M11496 10111 c-11 -17 1 -57 25 -90 11 -15 24 -44 29 -64 l8 -36 -53
-16 c-91 -26 -110 -95 -55 -199 29 -54 30 -61 28 -169 -1 -88 2 -119 15 -143
23 -44 71 -82 113 -90 46 -9 138 2 173 21 36 18 85 74 112 127 31 61 24 173
-17 248 -37 68 -102 141 -158 176 -28 18 -50 42 -61 67 -23 53 -149 185 -159
168z"/>
<path d="M9209 10089 c-76 -11 -149 -36 -314 -109 -163 -73 -205 -80 -325 -54
-117 24 -223 24 -280 -2 -52 -24 -130 -96 -156 -145 -60 -112 29 -310 235
-523 115 -117 197 -181 311 -240 96 -50 181 -71 243 -61 158 26 335 208 468
480 137 283 167 506 78 595 -49 49 -159 74 -260 59z"/>
<path d="M583 10068 c-4 -7 -9 -69 -10 -137 -2 -68 -7 -129 -11 -135 -27 -34
-47 -126 -46 -216 1 -82 4 -103 28 -153 71 -148 255 -193 388 -94 79 58 90
164 27 252 -78 108 -89 129 -89 168 0 55 -19 113 -47 144 -22 23 -30 25 -76
20 -29 -2 -59 -7 -68 -11 -20 -9 -49 51 -49 104 0 21 -3 45 -6 54 -7 19 -30
21 -41 4z"/>
<path d="M3840 9954 c-161 -31 -320 -143 -372 -261 -31 -70 -23 -169 18 -220
88 -109 272 -131 456 -53 202 84 313 266 249 405 -38 83 -119 126 -245 130
-45 2 -92 1 -106 -1z"/>
<path d="M10969 9939 c-9 -16 -14 -64 -15 -139 -2 -92 -6 -125 -23 -163 -66
-153 -36 -355 65 -432 46 -35 109 -57 169 -58 62 -1 138 36 184 89 32 35 33
40 29 105 -3 58 -8 74 -36 111 -77 102 -84 116 -92 185 -8 77 -30 127 -62 144
-20 11 -78 8 -124 -6 -17 -5 -24 0 -34 26 -8 18 -14 54 -15 81 -1 30 -7 55
-17 64 -15 15 -17 14 -29 -7z"/>
<path d="M6469 9878 c4 -13 24 -34 44 -48 20 -14 44 -35 52 -47 15 -21 14 -23
-9 -38 -49 -33 -56 -115 -17 -195 10 -19 30 -80 45 -135 35 -129 52 -167 87
-201 63 -60 235 -35 294 41 63 84 81 177 50 265 -35 99 -152 211 -257 246 -29
9 -73 32 -98 50 -51 36 -153 84 -181 84 -15 0 -17 -4 -10 -22z"/>
<path d="M1954 9786 c-4 -16 -2 -43 5 -61 6 -17 11 -46 11 -63 0 -31 -2 -32
-39 -32 -67 0 -102 -41 -141 -165 -7 -22 -35 -89 -63 -149 -42 -93 -49 -114
-44 -153 6 -53 29 -88 83 -125 79 -54 172 -61 251 -17 101 56 143 136 143 273
0 96 -17 162 -60 229 -16 26 -30 57 -30 68 0 30 -59 167 -86 198 l-22 26 -8
-29z"/>
<path d="M5541 9691 c-23 -15 1 -35 68 -60 32 -11 65 -29 74 -39 16 -17 15
-21 -8 -51 -60 -82 -36 -141 80 -196 66 -31 81 -44 132 -111 32 -43 74 -85 93
-96 136 -72 305 74 287 248 -17 162 -190 276 -395 261 -58 -4 -83 -2 -116 13
-24 10 -75 23 -114 29 -84 13 -83 13 -101 2z"/>
<path d="M12338 9655 c-8 -19 -8 -31 0 -50 7 -14 12 -45 12 -69 0 -41 -1 -42
-29 -38 -47 7 -90 -23 -117 -81 -13 -29 -24 -57 -24 -62 0 -12 -59 -154 -88
-211 -27 -54 -34 -100 -22 -144 19 -72 127 -140 220 -140 66 0 164 51 202 105
77 112 72 307 -12 430 -15 22 -30 59 -34 83 -6 40 -80 202 -91 202 -3 0 -11
-11 -17 -25z"/>
<path d="M2783 9595 c-40 -17 -88 -89 -110 -164 -24 -84 -13 -205 37 -406 49
-200 49 -226 -6 -365 -51 -130 -57 -224 -21 -303 28 -61 87 -131 128 -153 69
-35 209 -10 364 67 240 118 465 326 532 490 23 56 22 149 -1 216 -60 177 -316
423 -568 548 -166 81 -279 104 -355 70z"/>
<path d="M4324 9431 c-200 -54 -334 -177 -334 -307 0 -94 74 -173 199 -212 87
-27 274 -24 371 6 130 41 229 110 273 191 72 131 1 264 -166 317 -82 26 -257
28 -343 5z"/>
<path d="M9545 9344 c-82 -45 -120 -116 -120 -224 0 -128 61 -266 160 -366
176 -178 394 -162 451 33 52 179 -71 436 -256 537 -68 37 -186 47 -235 20z"/>
<path d="M8082 9235 c-88 -38 -172 -141 -213 -262 -19 -54 -24 -89 -24 -173 0
-128 20 -191 83 -261 49 -55 94 -73 161 -67 261 25 411 474 235 705 -51 67
-161 93 -242 58z"/>
<path d="M5230 9235 c0 -22 59 -113 104 -162 36 -39 58 -73 66 -103 29 -108
125 -231 215 -275 57 -28 175 -27 230 2 115 61 172 215 112 304 -26 39 -86 76
-137 85 -84 14 -115 28 -159 68 -69 63 -91 76 -136 76 -43 0 -78 -26 -104 -78
-11 -21 -13 -22 -44 -6 -18 9 -48 34 -68 55 -20 22 -46 39 -58 39 -11 0 -21
-2 -21 -5z"/>
<path d="M123 9131 c3 -49 13 -97 27 -127 12 -27 26 -78 31 -114 13 -88 52
-164 118 -231 64 -63 120 -85 199 -77 105 10 197 86 221 183 21 85 -12 132
-161 230 -57 38 -123 85 -147 106 -67 59 -121 63 -181 13 -36 -31 -46 -26 -61
29 -14 47 -26 67 -42 67 -6 0 -8 -28 -4 -79z"/>
<path d="M10494 9076 c-9 -23 14 -163 35 -214 11 -26 22 -68 25 -93 13 -112
93 -243 180 -294 155 -91 376 23 376 194 0 78 -30 113 -185 213 -55 36 -109
75 -120 87 -52 60 -134 69 -189 20 l-35 -30 -15 30 c-9 16 -16 39 -16 49 0 18
-29 52 -44 52 -3 0 -9 -6 -12 -14z"/>
<path d="M1228 9005 c-155 -43 -210 -76 -256 -154 -25 -43 -27 -55 -27 -161
-1 -137 -16 -174 -96 -242 -27 -24 -57 -55 -65 -70 -54 -101 61 -302 196 -342
66 -20 108 -20 230 -2 261 40 593 157 694 247 52 45 96 140 96 205 0 156 -63
244 -175 244 -83 0 -158 53 -204 144 -37 74 -96 131 -150 146 -58 16 -150 10
-243 -15z"/>
<path d="M7074 9003 c-102 -69 -168 -78 -265 -37 -164 69 -270 30 -392 -144
-80 -114 -99 -157 -105 -233 -6 -85 16 -136 96 -222 74 -79 88 -129 70 -235
-6 -37 -8 -79 -5 -94 11 -44 55 -86 125 -120 57 -28 77 -33 142 -33 103 0 166
32 256 128 220 237 414 575 414 721 0 73 -35 150 -93 207 -94 93 -170 112
-243 62z"/>
<path d="M11620 8881 c-169 -45 -240 -91 -280 -183 -19 -44 -22 -65 -18 -138
7 -123 -26 -200 -108 -253 -50 -33 -68 -73 -62 -139 9 -107 86 -216 183 -259
66 -29 121 -33 241 -15 210 31 409 90 580 171 180 87 243 177 231 330 -8 85
-25 130 -65 168 -24 23 -44 30 -101 38 -112 14 -165 50 -218 151 -42 81 -88
123 -157 143 -68 20 -104 18 -226 -14z"/>
<path d="M4157 8749 c-125 -29 -209 -130 -193 -231 14 -87 70 -160 174 -228
115 -75 209 -103 352 -104 130 0 178 10 246 57 200 135 42 414 -282 497 -82
21 -227 26 -297 9z"/>
<path d="M9181 8728 c-48 -24 -94 -85 -113 -153 -17 -59 -14 -210 5 -285 28
-108 91 -224 159 -292 71 -71 129 -99 203 -99 106 0 176 69 204 199 38 183
-32 407 -173 548 -103 102 -192 128 -285 82z"/>
<path d="M8594 8646 c-61 -28 -111 -87 -154 -177 -114 -245 -55 -583 115 -660
55 -26 102 -23 163 7 129 64 215 247 215 459 0 289 -154 457 -339 371z"/>
<path d="M5885 8376 c-60 -8 -127 -11 -148 -8 -47 6 -120 -21 -141 -53 -9 -13
-16 -38 -16 -55 0 -42 -23 -48 -69 -15 -26 17 -49 25 -68 23 l-28 -3 58 -61
c31 -33 81 -74 110 -89 28 -16 71 -46 95 -67 68 -62 161 -101 254 -106 69 -4
84 -2 132 22 128 63 181 206 122 333 -41 87 -101 102 -301 79z"/>
<path d="M3493 8340 c-116 -23 -192 -106 -193 -210 0 -97 95 -232 212 -298
141 -80 328 -96 437 -37 79 43 106 89 106 179 0 91 -28 147 -110 224 -76 71
-141 107 -241 132 -81 21 -140 23 -211 10z"/>
<path d="M9045 7621 c-102 -46 -165 -181 -165 -354 1 -288 190 -546 364 -497
238 66 268 546 48 783 -78 84 -162 107 -247 68z"/>
<path d="M11293 7398 c-40 -17 -89 -45 -110 -62 -21 -18 -58 -38 -83 -45 -67
-19 -119 -53 -178 -115 -70 -74 -102 -143 -102 -221 0 -114 68 -209 172 -240
66 -19 111 -19 154 1 51 24 69 57 112 205 22 74 46 148 55 165 37 73 29 146
-21 183 l-27 20 29 30 c16 17 38 33 48 37 31 9 57 76 29 74 -3 -1 -38 -15 -78
-32z"/>
<path d="M3594 7406 c-86 -38 -144 -133 -171 -279 -33 -183 21 -387 134 -508
137 -147 318 -83 385 135 27 85 31 258 9 346 -34 136 -120 262 -206 301 -47
22 -108 24 -151 5z"/>
<path d="M6520 7344 c0 -14 11 -44 24 -67 33 -57 43 -107 22 -107 -9 0 -34 -7
-56 -16 -76 -31 -87 -96 -32 -199 25 -47 26 -58 24 -159 -2 -93 0 -114 18
-152 37 -76 110 -104 218 -83 60 11 72 17 119 64 61 62 89 137 79 214 -13 99
-101 231 -191 288 -30 18 -53 43 -67 72 -21 43 -132 171 -149 171 -5 0 -9 -12
-9 -26z"/>
<path d="M8279 7307 c-185 -98 -99 -490 149 -677 217 -163 421 -98 422 135 0
122 -46 246 -135 364 -128 168 -312 243 -436 178z"/>
<path d="M4403 7306 c-108 -35 -215 -158 -274 -314 -32 -82 -33 -94 -34 -222
0 -122 2 -140 24 -182 126 -255 448 -95 541 268 36 141 23 288 -33 371 -52 76
-138 107 -224 79z"/>
<path d="M1460 7225 c0 -12 24 -55 31 -55 13 0 79 -61 79 -73 0 -6 -12 -24
-27 -40 -23 -24 -28 -37 -28 -80 0 -32 9 -70 22 -97 11 -25 35 -97 53 -160 18
-63 42 -130 53 -149 27 -45 95 -75 151 -67 120 19 167 53 214 155 20 44 24 64
20 115 -7 78 -35 134 -106 208 -53 56 -155 118 -192 118 -10 0 -37 16 -61 35
-55 44 -209 110 -209 90z"/>
<path d="M12163 7205 c-34 -7 -71 -19 -83 -25 -12 -6 -72 -12 -133 -14 -126
-2 -195 -23 -269 -79 -82 -63 -120 -196 -84 -290 31 -82 124 -157 195 -157 67
0 107 29 177 125 36 49 58 67 121 100 119 62 143 114 90 194 -15 22 -27 43
-27 45 0 9 86 56 102 56 18 0 68 37 68 51 0 13 -84 10 -157 -6z"/>
<path d="M5988 7183 c-6 -16 -12 -80 -13 -143 -2 -95 -7 -124 -25 -165 -31
-67 -39 -200 -17 -276 34 -114 120 -186 236 -196 119 -10 242 84 241 184 -1
47 -24 96 -77 164 -45 60 -50 72 -56 133 -8 84 -31 133 -72 153 -29 14 -38 14
-84 0 l-53 -15 -14 34 c-8 18 -14 52 -14 74 0 44 -14 80 -31 80 -5 0 -15 -12
-21 -27z"/>
<path d="M9760 7115 c-111 -50 -190 -203 -190 -370 1 -312 234 -512 414 -354
59 52 112 159 127 256 26 174 -45 373 -162 450 -51 33 -136 41 -189 18z"/>
<path d="M530 7013 c0 -16 32 -38 80 -57 25 -9 55 -25 68 -36 l23 -19 -25 -34
c-67 -88 -31 -151 122 -215 20 -9 50 -38 78 -78 80 -112 146 -149 225 -125 46
14 108 66 141 119 33 54 32 169 -3 237 -54 106 -180 165 -360 169 -71 2 -118
8 -149 20 -51 20 -200 34 -200 19z"/>
<path d="M7364 6916 c-4 -9 -3 -34 1 -54 4 -20 8 -53 9 -72 1 -34 0 -35 -45
-40 -69 -8 -94 -36 -126 -142 -8 -28 -37 -100 -65 -160 -45 -99 -50 -115 -46
-164 4 -43 11 -61 34 -85 139 -146 371 -90 429 104 31 106 10 260 -48 345 -14
20 -32 66 -41 101 -17 65 -58 152 -83 172 -9 9 -14 7 -19 -5z"/>
<path d="M12280 6749 c-14 -6 -45 -30 -70 -54 -49 -48 -91 -69 -160 -80 -61
-10 -111 -37 -148 -80 -43 -48 -46 -114 -11 -195 26 -58 53 -86 114 -118 68
-35 160 -37 226 -4 93 45 189 169 219 280 7 27 24 55 44 73 40 34 116 148 116
172 0 28 -34 19 -71 -19 -32 -34 -78 -64 -96 -64 -4 0 -19 18 -32 39 -34 56
-75 72 -131 50z"/>
<path d="M3023 6724 c-153 -76 -196 -351 -88 -564 59 -116 171 -200 268 -200
204 0 299 305 176 566 -78 166 -239 255 -356 198z"/>
<path d="M4778 6566 c-104 -37 -210 -140 -267 -259 -38 -80 -50 -134 -51 -223
0 -90 33 -163 93 -202 35 -23 51 -27 116 -27 97 0 169 33 251 115 110 110 166
249 158 392 -6 97 -40 159 -107 195 -51 26 -133 30 -193 9z"/>
<path d="M240 6534 c16 -42 79 -131 115 -162 23 -21 38 -47 50 -88 23 -78 53
-128 117 -191 66 -65 132 -95 207 -95 105 1 181 47 223 139 25 53 30 73 26
117 -7 87 -60 135 -176 162 -94 21 -119 32 -148 68 -37 43 -93 76 -132 76 -34
0 -69 -27 -103 -79 -14 -23 -16 -23 -44 -8 -17 8 -45 31 -63 51 -20 23 -42 36
-57 36 -22 0 -24 -2 -15 -26z"/>
<path d="M10664 6550 c-48 -11 -98 -45 -148 -102 -50 -54 -76 -122 -76 -195 0
-136 174 -446 383 -684 106 -120 178 -162 284 -162 85 -1 176 37 228 94 45 50
51 77 35 159 -19 103 -3 159 68 230 132 132 134 254 7 436 -70 100 -113 143
-170 170 -66 31 -137 31 -218 0 -85 -33 -97 -35 -158 -25 -33 5 -72 21 -103
43 -58 38 -88 47 -132 36z"/>
<path d="M8079 6492 c-97 -50 -129 -151 -91 -279 59 -192 244 -349 427 -361
56 -3 87 0 120 12 168 65 167 304 -3 488 -141 152 -323 208 -453 140z"/>
<path d="M9128 6447 c-119 -34 -211 -142 -292 -344 -123 -309 -136 -708 -25
-820 70 -73 203 -70 347 7 33 17 123 81 199 142 76 61 157 119 180 130 27 12
85 22 155 29 62 5 131 14 153 20 93 25 163 88 206 187 43 99 11 191 -111 312
-223 224 -623 390 -812 337z"/>
<path d="M2056 6318 c-58 -35 -79 -43 -133 -46 -53 -4 -74 0 -122 22 -99 44
-205 34 -287 -29 -43 -33 -162 -205 -186 -269 -24 -61 -21 -152 6 -208 10 -20
41 -61 70 -90 76 -77 88 -122 71 -276 l-8 -73 50 -48 c87 -84 214 -113 329
-75 140 47 456 473 544 734 24 72 23 150 -4 215 -21 50 -109 140 -162 164 -63
30 -90 26 -168 -21z"/>
<path d="M5522 6268 c3 -46 13 -101 23 -123 9 -22 23 -75 31 -118 25 -136 106
-262 198 -307 48 -23 142 -27 197 -9 75 25 149 109 163 184 10 50 -9 106 -46
142 -18 17 -78 60 -133 95 -55 36 -109 75 -120 88 -57 64 -143 74 -197 23 -29
-27 -30 -28 -44 -9 -8 11 -14 30 -14 42 0 24 -35 74 -52 74 -7 0 -9 -27 -6
-82z"/>
<path d="M3830 6246 c-130 -38 -263 -127 -410 -275 -171 -173 -260 -318 -268
-437 -5 -75 16 -121 83 -183 92 -85 182 -102 355 -66 130 27 179 19 350 -58
215 -95 238 -102 360 -102 93 0 111 3 155 25 38 19 55 36 73 70 110 218 -194
864 -473 1001 -73 36 -156 45 -225 25z"/>
<path d="M6614 6127 c-147 -44 -203 -80 -247 -162 -19 -34 -22 -57 -22 -155 0
-108 -2 -118 -28 -163 -15 -26 -48 -62 -72 -80 -24 -17 -52 -47 -61 -66 -51
-105 61 -301 198 -347 183 -61 811 113 949 263 58 64 79 114 79 199 0 137 -55
234 -133 234 -96 0 -206 60 -234 129 -72 171 -200 216 -429 148z"/>
<path d="M11720 5888 c-71 -47 -102 -175 -66 -263 24 -56 101 -132 153 -149
111 -38 264 3 370 98 27 24 68 53 91 65 48 24 152 120 152 139 0 21 -49 13
-88 -13 -48 -33 -62 -32 -62 4 0 89 -37 113 -189 123 -355 22 -323 22 -361 -4z"/>
<path d="M950 5708 c-41 -5 -128 -12 -193 -16 -109 -8 -120 -10 -144 -35 -17
-16 -29 -42 -32 -69 -7 -50 -21 -52 -80 -12 -37 25 -81 32 -81 13 0 -18 103
-114 155 -144 28 -16 70 -47 95 -68 99 -87 253 -132 352 -103 65 19 119 62
156 124 23 40 27 58 27 122 -1 154 -72 206 -255 188z"/>
<path d="M11947 5006 c-158 -57 -263 -299 -235 -548 26 -245 170 -371 334
-294 161 75 255 372 194 611 -48 188 -161 278 -293 231z"/>
<path d="M6585 4950 c-125 -29 -199 -155 -211 -360 -17 -268 129 -512 305
-512 60 0 98 19 150 78 129 147 130 469 0 663 -68 102 -160 151 -244 131z"/>
<path d="M11125 4898 c-150 -82 -178 -338 -64 -575 47 -98 134 -197 206 -233
68 -35 155 -35 209 1 106 71 142 285 78 475 -47 140 -156 283 -247 325 -47 21
-150 25 -182 7z"/>
<path d="M9390 4841 c0 -14 17 -34 49 -56 64 -46 69 -62 31 -96 -26 -24 -30
-35 -30 -78 0 -31 11 -76 29 -123 16 -40 41 -115 54 -167 27 -102 45 -133 98
-169 29 -20 43 -23 90 -19 65 6 136 34 168 68 66 70 92 184 62 271 -33 98
-163 221 -264 250 -23 6 -58 24 -79 40 -35 27 -139 79 -185 93 -19 5 -23 2
-23 -14z"/>
<path d="M7325 4826 c-277 -131 -384 -689 -155 -806 214 -109 493 233 467 572
-16 209 -151 310 -312 234z"/>
<path d="M4160 4798 c0 -12 11 -38 25 -59 14 -20 28 -52 32 -72 5 -36 5 -36
-40 -48 -25 -6 -55 -22 -67 -34 -19 -21 -22 -32 -17 -77 6 -66 11 -85 31 -124
13 -25 16 -57 14 -140 -4 -131 12 -173 73 -204 43 -22 177 -28 224 -10 39 15
111 95 130 145 49 128 -34 320 -179 411 -28 18 -50 42 -61 67 -20 44 -130 167
-151 167 -8 0 -14 -10 -14 -22z"/>
<path d="M1312 4649 c-102 -17 -179 -78 -203 -160 -35 -116 64 -275 220 -354
108 -54 255 -78 349 -56 124 30 201 125 189 233 -18 152 -203 306 -404 337
-80 12 -77 12 -151 0z"/>
<path d="M3633 4648 c-4 -7 -9 -67 -10 -133 -2 -105 -6 -128 -30 -185 -22 -53
-27 -81 -27 -150 -1 -103 14 -160 59 -221 48 -66 109 -94 206 -94 67 0 81 4
125 30 74 46 97 86 92 162 -3 51 -10 70 -36 105 -75 99 -85 118 -89 171 -6 72
-31 133 -61 153 -25 16 -94 16 -133 0 -21 -9 -49 58 -47 112 0 22 -2 44 -6 50
-9 16 -33 15 -43 0z"/>
<path d="M8450 4642 c0 -17 47 -49 82 -56 18 -3 46 -17 63 -30 l29 -24 -27
-39 c-56 -81 -20 -158 94 -199 47 -17 61 -29 114 -99 90 -119 160 -148 251
-104 44 21 107 88 124 134 18 49 12 146 -14 201 -54 117 -218 191 -387 177
-43 -4 -71 0 -114 16 -65 25 -215 41 -215 23z"/>
<path d="M5004 4365 c-4 -9 -2 -34 5 -54 6 -21 11 -52 11 -70 0 -30 -2 -31
-41 -31 -57 0 -101 -45 -125 -126 -9 -32 -39 -107 -65 -165 -42 -91 -49 -115
-49 -169 0 -62 1 -65 43 -104 131 -125 330 -84 406 84 31 67 29 224 -3 301
-12 31 -32 69 -43 85 -11 16 -23 47 -26 69 -8 47 -76 188 -94 193 -7 2 -16 -4
-19 -13z"/>
<path d="M12495 4328 c-232 -83 -337 -488 -179 -695 51 -67 157 -93 240 -58
89 37 174 140 215 262 31 89 33 251 6 330 -21 61 -88 140 -134 159 -38 16
-105 17 -148 2z"/>
<path d="M2342 4290 c-159 -42 -375 -176 -532 -330 -203 -201 -265 -370 -192
-525 109 -230 475 -498 744 -545 117 -21 194 21 255 137 56 105 53 175 -15
347 -46 119 -46 168 3 356 42 164 56 307 36 395 -17 76 -62 142 -114 165 -52
24 -92 24 -185 0z"/>
<path d="M5996 4266 c-144 -54 -208 -293 -133 -499 100 -276 348 -364 472
-167 98 156 59 441 -79 584 -79 80 -178 112 -260 82z"/>
<path d="M8160 4176 c0 -23 98 -163 129 -185 19 -14 30 -33 35 -58 17 -103
115 -232 214 -280 142 -70 307 -1 356 149 20 63 20 78 0 129 -24 58 -78 94
-172 115 -81 17 -118 35 -141 67 -22 31 -102 77 -134 77 -29 0 -81 -42 -104
-84 -10 -17 -14 -18 -41 -7 -17 7 -46 30 -65 52 -35 39 -77 52 -77 25z"/>
<path d="M10715 4162 c-100 -47 -143 -164 -115 -313 26 -142 147 -306 272
-368 133 -67 273 -27 322 90 75 179 -55 473 -254 574 -73 37 -168 44 -225 17z"/>
<path d="M699 4136 c-203 -43 -296 -178 -223 -325 46 -92 174 -174 322 -207
104 -23 274 -15 357 16 112 43 188 147 169 233 -33 156 -234 281 -469 292 -55
3 -116 -1 -156 -9z"/>
<path d="M7740 4103 c-152 -53 -277 -208 -316 -393 -29 -140 13 -255 111 -308
50 -26 149 -21 220 13 122 58 245 221 274 363 49 236 -92 394 -289 325z"/>
<path d="M10030 3977 c-14 -7 -45 -26 -69 -43 -62 -40 -167 -47 -232 -14 -27
14 -69 25 -109 28 -120 8 -191 -40 -303 -206 -116 -170 -115 -280 4 -407 84
-90 103 -153 78 -263 -7 -27 -9 -61 -5 -76 23 -92 198 -178 316 -156 80 15
120 38 195 114 161 162 349 452 409 629 24 71 21 161 -8 222 -56 120 -203 212
-276 172z"/>
<path d="M11675 3843 c-199 -61 -432 -383 -526 -728 -31 -111 -32 -245 -3
-300 32 -61 95 -89 211 -93 111 -5 172 12 386 107 76 34 158 64 182 68 28 3
95 -3 177 -17 115 -19 141 -21 190 -11 137 29 248 159 233 274 -9 61 -78 201
-144 287 -63 84 -229 245 -306 297 -120 81 -253 135 -328 132 -12 0 -44 -7
-72 -16z"/>
<path d="M3172 3723 c3 -38 15 -95 27 -128 12 -33 26 -88 32 -123 11 -75 52
-160 108 -223 131 -149 371 -101 426 85 28 93 0 135 -163 246 -64 44 -133 94
-153 111 -22 18 -52 33 -76 36 -34 4 -45 1 -76 -27 -21 -18 -43 -30 -51 -27
-8 3 -20 25 -27 49 -27 93 -54 93 -47 1z"/>
<path d="M6750 3770 c-159 -58 -377 -234 -510 -415 -89 -121 -148 -264 -134
-330 15 -73 83 -154 166 -196 64 -32 131 -35 273 -9 152 28 165 26 357 -59
190 -84 266 -106 363 -106 69 0 89 4 140 30 70 35 94 70 102 149 29 278 -259
812 -497 925 -80 38 -173 42 -260 11z"/>
<path d="M4310 3600 c-8 -5 -40 -15 -70 -21 -69 -14 -120 -40 -172 -87 -63
-57 -78 -98 -78 -225 0 -142 -14 -171 -134 -270 -26 -21 -30 -32 -34 -90 -4
-54 0 -75 21 -120 48 -105 138 -176 241 -193 92 -14 455 63 635 136 189 76
253 120 301 203 27 48 30 60 30 147 -1 155 -40 216 -152 230 -114 15 -173 52
-218 141 -66 129 -114 159 -257 159 -54 0 -105 -5 -113 -10z"/>
<path d="M885 3444 c-272 -60 -457 -273 -376 -432 25 -49 45 -66 116 -98 48
-22 78 -28 160 -32 176 -8 340 48 457 156 96 89 130 189 94 275 -18 44 -87
102 -145 122 -66 24 -219 28 -306 9z"/>
<path d="M8805 3330 c-27 -5 -85 -9 -128 -9 -43 -1 -93 -7 -112 -15 -38 -16
-65 -60 -65 -106 0 -16 -3 -30 -7 -30 -5 0 -30 14 -58 30 -55 33 -85 38 -85
15 0 -20 103 -118 148 -141 20 -10 60 -38 87 -62 105 -90 247 -136 351 -113
68 16 132 65 167 129 55 101 28 250 -53 293 -37 20 -146 24 -245 9z"/>
<path d="M1670 3040 c-119 -16 -234 -72 -316 -156 -72 -73 -99 -132 -99 -216
0 -58 4 -72 30 -109 107 -153 420 -133 605 37 139 129 161 294 52 384 -62 51
-166 73 -272 60z"/>
<path d="M3630 2397 c-93 -30 -202 -200 -236 -367 -30 -148 -1 -320 70 -413
32 -41 116 -87 160 -87 87 0 194 91 251 213 49 104 66 177 66 295 1 216 -88
361 -224 368 -29 2 -68 -2 -87 -9z"/>
<path d="M9405 2398 c-125 -44 -252 -191 -313 -360 -22 -62 -26 -90 -27 -183
0 -99 3 -116 25 -159 38 -74 87 -109 160 -114 86 -6 165 34 253 127 119 127
181 275 182 436 0 96 -11 137 -52 193 -47 63 -145 89 -228 60z"/>
<path d="M11817 2302 c-10 -15 13 -52 42 -66 16 -9 39 -28 50 -42 l21 -27 -30
-26 c-40 -33 -49 -87 -25 -151 21 -55 66 -194 89 -271 36 -124 112 -163 244
-124 139 42 206 192 152 338 -30 79 -114 168 -202 212 -39 19 -79 35 -88 35
-10 0 -23 6 -29 14 -34 41 -213 127 -224 108z"/>
<path d="M1150 2277 c0 -12 12 -40 26 -61 14 -21 28 -55 31 -75 5 -38 5 -38
-41 -51 -90 -25 -108 -89 -56 -199 29 -60 30 -70 28 -175 -2 -122 8 -155 58
-195 55 -43 150 -50 230 -16 43 18 102 79 125 129 28 62 25 157 -7 226 -37 80
-96 153 -154 191 -34 22 -60 49 -80 86 -33 58 -128 163 -148 163 -7 0 -12 -10
-12 -23z"/>
<path d="M6359 2267 c-62 -18 -133 -61 -163 -100 -59 -77 -89 -196 -65 -254 8
-18 41 -54 74 -80 83 -67 105 -113 105 -223 0 -193 65 -263 305 -324 115 -30
152 -32 224 -10 72 21 124 71 165 159 47 98 128 155 220 155 45 0 92 33 118
82 18 36 22 59 23 138 0 87 -3 100 -29 148 -17 29 -46 67 -65 84 -142 124
-741 272 -912 225z"/>
<path d="M8573 2159 c-58 -29 -139 -118 -174 -192 -124 -267 -29 -566 182
-567 165 -1 321 221 321 455 0 145 -49 252 -137 302 -53 30 -134 31 -192 2z"/>
<path d="M620 2085 c-6 -30 -10 -92 -9 -137 1 -66 -3 -92 -19 -128 -46 -99
-47 -245 -4 -342 26 -59 89 -113 153 -132 78 -24 118 -20 190 17 82 41 109 80
109 154 0 59 -15 96 -65 158 -48 59 -57 82 -65 158 -9 75 -29 113 -73 135 -25
12 -65 8 -122 -14 -17 -7 -46 84 -38 115 5 21 -20 71 -37 71 -5 0 -14 -25 -20
-55z"/>
<path d="M4339 2081 c-246 -96 -439 -475 -340 -669 55 -108 181 -133 321 -62
96 48 206 163 259 271 40 81 70 191 71 255 0 44 -27 127 -51 158 -50 64 -164
85 -260 47z"/>
<path d="M10880 2091 c0 -18 31 -41 70 -51 21 -6 53 -22 69 -36 l31 -26 -26
-33 c-14 -18 -28 -49 -31 -69 -5 -34 -2 -40 40 -80 25 -24 59 -47 76 -51 42
-9 81 -43 135 -119 65 -91 144 -125 220 -96 34 12 114 86 132 121 7 15 16 51
20 81 22 188 -141 324 -381 317 -66 -2 -100 2 -128 14 -69 30 -227 49 -227 28z"/>
<path d="M9981 1904 c-97 -26 -190 -83 -277 -169 -162 -161 -208 -342 -113
-449 44 -51 102 -70 196 -64 190 12 390 155 486 348 28 57 32 74 32 146 0 69
-3 86 -25 117 -53 79 -169 106 -299 71z"/>
<path d="M2905 1881 c-22 -10 -61 -41 -87 -70 -76 -84 -113 -208 -106 -350 8
-148 67 -267 162 -326 139 -86 306 21 361 232 18 68 21 208 6 276 -25 108 -88
197 -166 233 -60 28 -116 30 -170 5z"/>
<path d="M1995 1831 c-3 -16 -2 -39 4 -50 6 -11 11 -38 11 -60 l0 -41 -41 0
c-56 0 -100 -44 -124 -125 -9 -33 -38 -107 -65 -165 -61 -134 -67 -167 -41
-224 32 -74 145 -133 231 -121 55 8 126 44 162 82 53 55 73 118 72 223 -1 103
-15 152 -63 230 -16 25 -31 63 -35 85 -6 45 -75 188 -93 193 -6 2 -14 -10 -18
-27z"/>
<path d="M5798 1665 c-58 -22 -104 -61 -147 -126 -49 -74 -73 -154 -74 -244 0
-38 -6 -85 -14 -104 -18 -44 -30 -206 -15 -215 13 -8 52 41 52 66 0 27 28 78
43 78 6 0 21 -7 31 -15 43 -33 107 -11 189 63 31 28 91 75 134 106 43 30 86
63 95 73 30 33 49 91 42 129 -10 53 -76 146 -123 172 -52 30 -160 38 -213 17z"/>
<path d="M10580 1632 c0 -19 74 -130 115 -172 30 -32 48 -61 59 -101 35 -123
146 -244 253 -275 158 -46 323 72 323 233 0 76 -52 142 -128 162 -20 6 -63 17
-94 26 -44 12 -73 29 -118 69 -92 83 -161 83 -205 2 -11 -20 -24 -36 -30 -36
-18 0 -77 40 -102 71 -23 27 -73 41 -73 21z"/>
<path d="M12470 1433 c-8 -3 -39 -22 -69 -42 -46 -31 -62 -36 -125 -39 -60 -3
-82 0 -134 22 -112 47 -213 31 -294 -48 -50 -49 -149 -193 -170 -248 -24 -63
-23 -151 2 -206 11 -23 42 -65 70 -92 78 -76 93 -129 75 -272 -7 -63 -6 -70
18 -107 20 -29 46 -49 103 -77 66 -33 85 -38 144 -38 122 2 203 57 353 244
115 144 210 296 273 440 33 74 37 95 38 165 0 70 -3 86 -29 134 -29 53 -97
121 -145 146 -32 16 -90 26 -110 18z"/>
<path d="M7225 1307 c-58 -28 -110 -82 -120 -125 -9 -43 9 -101 70 -222 29
-58 58 -125 65 -149 6 -23 26 -59 44 -78 35 -38 70 -46 130 -30 29 8 29 8 23
-30 -4 -21 -9 -49 -12 -63 -4 -15 0 -33 9 -45 14 -19 16 -16 51 56 20 42 40
103 45 135 4 33 18 81 30 108 51 113 33 293 -37 376 -73 85 -201 114 -298 67z"/>
<path d="M8875 1309 c-174 -17 -346 -68 -509 -152 -175 -89 -286 -198 -286
-280 0 -81 77 -190 183 -258 32 -21 134 -68 227 -104 93 -36 186 -79 207 -94
21 -15 67 -69 101 -118 71 -105 148 -179 200 -192 116 -31 210 -20 268 31 143
126 191 602 90 897 -46 133 -101 203 -193 242 -38 16 -66 22 -178 33 -16 2
-66 0 -110 -5z"/>
<path d="M4515 1273 c-133 -48 -246 -149 -310 -278 -35 -71 -39 -88 -40 -156
0 -67 3 -81 30 -124 45 -74 97 -97 205 -92 114 4 194 42 295 138 98 93 147
189 152 298 4 65 1 83 -19 121 -13 25 -41 57 -65 74 -36 25 -54 30 -120 33
-57 3 -91 -1 -128 -14z"/>
<path d="M156 1258 c-8 -33 11 -152 33 -206 11 -26 22 -72 26 -103 12 -113
110 -259 200 -300 59 -27 157 -25 221 5 111 52 168 194 113 282 -12 20 -63 63
-127 105 -59 39 -124 87 -146 106 -75 68 -149 79 -196 28 -35 -37 -48 -31 -65
30 -18 62 -49 89 -59 53z"/>
<path d="M3505 1216 c-216 -42 -479 -188 -637 -354 -71 -76 -118 -156 -118
-204 0 -57 41 -140 99 -199 67 -69 112 -85 277 -98 142 -11 175 -26 322 -145
241 -193 355 -241 498 -205 57 15 95 59 120 142 26 84 26 323 0 452 -58 295
-190 536 -326 594 -64 28 -148 34 -235 17z"/>
<path d="M1265 1061 c-125 -34 -170 -57 -222 -114 -53 -57 -67 -108 -60 -213
5 -70 3 -87 -17 -131 -22 -47 -89 -123 -108 -123 -4 0 -17 -15 -28 -32 -32
-53 -27 -122 15 -206 40 -80 75 -114 154 -150 51 -23 61 -24 165 -19 191 11
484 90 664 181 110 55 149 88 188 158 26 47 29 63 29 138 0 158 -39 215 -156
232 -116 17 -177 59 -223 153 -32 64 -99 127 -154 143 -60 18 -137 13 -247
-17z"/>
<path d="M9876 1045 c-144 -37 -287 -147 -344 -266 -55 -116 -51 -197 14 -269
49 -54 110 -75 209 -74 180 4 362 120 443 284 38 78 39 179 1 236 -56 84 -192
122 -323 89z"/>
<path d="M6150 981 c-146 -48 -208 -148 -198 -322 4 -70 12 -101 37 -154 25
-54 31 -80 31 -134 0 -67 23 -178 41 -196 17 -17 32 13 31 62 0 26 4 65 9 86
9 33 13 38 32 33 122 -33 171 7 181 148 4 62 10 77 50 135 55 81 66 109 66
170 0 63 -30 108 -98 144 -55 30 -138 43 -182 28z"/>
<path d="M6648 859 c-47 -14 -94 -66 -109 -121 -9 -33 -8 -62 1 -125 12 -80
11 -84 -14 -139 -61 -133 -41 -201 65 -223 29 -6 34 -11 37 -39 2 -21 -6 -49
-24 -81 -22 -38 -26 -54 -18 -70 8 -20 11 -20 31 -6 28 20 109 142 118 178 5
17 22 38 44 51 56 36 130 121 159 184 30 66 41 170 23 225 -18 54 -66 113
-114 141 -50 30 -141 41 -199 25z"/>
<path d="M11240 779 c-25 -4 -82 -8 -128 -8 -126 -1 -182 -35 -182 -108 0 -42
-12 -48 -51 -26 -75 43 -79 44 -96 35 -14 -8 -9 -17 36 -65 28 -30 77 -68 109
-85 31 -17 71 -45 87 -62 63 -66 197 -120 296 -120 93 0 197 78 234 173 34 90
4 208 -65 255 -28 19 -45 22 -114 21 -45 -1 -101 -5 -126 -10z"/>
</g>
</svg>
