<svg xmlns="http://www.w3.org/2000/svg" width="201.032" height="47.168"><defs><style>.a{fill:#fff}</style></defs><path class="a" d="M66.084 19.043c1.3.4 2.777-.68 3.344-2.437s-.057-3.457-1.3-3.911c-1.3-.4-2.777.68-3.344 2.437s-.004 3.514 1.3 3.911zm-3.684.113c1.19-.34 1.7-2.1 1.133-3.911-.623-1.814-2.1-2.947-3.287-2.55-1.19.34-1.7 2.1-1.134 3.911.624 1.757 2.098 2.95 3.288 2.55zm-3.117.454c-.567-1.7-1.984-2.777-3.117-2.437s-1.644 1.984-1.077 3.684 1.984 2.777 3.117 2.437c1.19-.34 1.644-1.984 1.077-3.684zm5.044-.057h-.283a6.2 6.2 0 00-4.931 6.518c0 3.344 2.777 1.927 2.777 1.927a4.144 4.144 0 012.154-1.19h.227a4.144 4.144 0 012.154 1.19s2.777 1.474 2.777-1.87c.056-5.782-4.875-6.575-4.875-6.575zm7.934-2.267c-1.133-.4-2.55.68-3.06 2.324s0 3.287 1.133 3.684 2.55-.68 3.06-2.324c.511-1.7.001-3.344-1.133-3.684zm16.606 23.747l-.174-.227-4.7 4.591.113.113 1.19 1.247c.793.793 2.494.4 3.741-.85 1.3-1.247 1.7-2.947.907-3.741z"/><path class="a" d="M78.892 31.002a18.128 18.128 0 10-14.622 7.424 17.862 17.862 0 009.862-2.947l8.785 8.785 4.7-4.591zm-14.679 2.38a13.035 13.035 0 1113.035-13.035 13.037 13.037 0 01-13.035 13.035zM23.18 2.211A19.36 19.36 0 0015.416.737H0v32.022h10.825v-7.878h4.647a18.886 18.886 0 007.708-1.474 11.378 11.378 0 005.1-4.194 11.434 11.434 0 001.757-6.4 11.908 11.908 0 00-1.757-6.4 12.02 12.02 0 00-5.1-4.202zm-5.157 13.375a4.656 4.656 0 01-3.287.963h-3.911V9.068h3.911a4.945 4.945 0 013.287.963 3.549 3.549 0 011.077 2.778 3.549 3.549 0 01-1.077 2.777zM142.426.737h-24.994v32.022h26.638v-8.1h-16.038v-4.256h13.545v-7.766h-13.545V8.898h23.69l.057.227v23.634h10.823V9.125h9.352V.737h-29.528zm56.788 16.492a10.534 10.534 0 00-4.364-2.89 43.868 43.868 0 00-6.178-1.587 29.7 29.7 0 01-4.081-1.02c-.85-.283-1.247-.793-1.247-1.417 0-1.36 1.36-2.04 4.137-2.04a19.588 19.588 0 018.9 2.38l3.23-7.821A22.62 22.62 0 00194 .734a26.422 26.422 0 00-6.4-.737 20.447 20.447 0 00-8.161 1.417 11.219 11.219 0 00-5.044 3.911 9.422 9.422 0 00-1.7 5.5 8.032 8.032 0 001.814 5.5 11.065 11.065 0 004.307 2.947 49.439 49.439 0 006.178 1.644 27.232 27.232 0 014.137 1.077c.85.34 1.247.85 1.247 1.53a1.428 1.428 0 01-.964 1.3 8.465 8.465 0 01-3.23.453 20.714 20.714 0 01-5.441-.793 19.741 19.741 0 01-5.1-2.154l-3.463 7.879a20.084 20.084 0 006.178 2.38 35.067 35.067 0 007.765.907 20.447 20.447 0 008.161-1.417 11.219 11.219 0 005.044-3.911 9.422 9.422 0 001.7-5.5 7.374 7.374 0 00-1.814-5.438z"/><path class="a" d="M42.733 8.671a7.915 7.915 0 00-3.457 2.72v-3.23h-6.801v24.654h7.141V21.14a6.857 6.857 0 011.759-5.158 5.292 5.292 0 012.777-1.474 20.594 20.594 0 013.342-6.687 12.113 12.113 0 00-4.761.85zm64.327-6.46A19.078 19.078 0 0099.352.737H83.88v12.242a20.9 20.9 0 011.3 7.311 20.664 20.664 0 01-1.3 7.311v5.1h10.825v-7.82h4.647a18.886 18.886 0 007.708-1.474 11.1 11.1 0 006.914-10.6 11.031 11.031 0 00-1.814-6.4 12.02 12.02 0 00-5.1-4.196zm-5.157 13.375a4.656 4.656 0 01-3.287.963h-3.911V9.068h3.911a4.945 4.945 0 013.287.963 3.549 3.549 0 011.077 2.777 3.549 3.549 0 01-1.077 2.778z"/></svg>