<svg xmlns="http://www.w3.org/2000/svg" width="141.833" height="33.278"><defs><style>.a{fill:#06b2bbcc}</style></defs><path class="a" d="M46.624 13.435c.92.28 1.959-.48 2.359-1.719a2.136 2.136 0 00-.92-2.759c-.92-.28-1.959.48-2.359 1.719s0 2.48.92 2.759zm-2.599.081c.84-.24 1.2-1.479.8-2.759-.44-1.28-1.479-2.079-2.319-1.8-.84.24-1.2 1.479-.8 2.759.44 1.24 1.479 2.08 2.319 1.8zm-2.2.319c-.4-1.2-1.4-1.959-2.2-1.719s-1.16 1.4-.76 2.6 1.4 1.959 2.2 1.719c.84-.241 1.16-1.4.76-2.6zm3.559-.04h-.2a4.377 4.377 0 00-3.479 4.6c0 2.359 1.959 1.36 1.959 1.36a2.924 2.924 0 011.519-.84h.16a2.924 2.924 0 011.519.84s1.959 1.04 1.959-1.32a4.346 4.346 0 00-3.437-4.64zm5.599-1.599c-.8-.28-1.8.48-2.159 1.639s0 2.319.8 2.6 1.8-.48 2.159-1.639c.359-1.201-.001-2.36-.8-2.6zM62.698 28.95l-.12-.16-3.319 3.239.08.08.84.88c.56.56 1.759.28 2.639-.6.92-.88 1.2-2.079.64-2.639z"/><path class="a" d="M55.661 21.872a12.918 12.918 0 10-3.359 3.159l6.2 6.2 3.319-3.239zm-10.356 1.679a9.2 9.2 0 119.2-9.2 9.2 9.2 0 01-9.2 9.2zM16.354 1.56A13.659 13.659 0 0010.876.52H0v22.592h7.637v-5.558h3.279a13.325 13.325 0 005.438-1.04 8.028 8.028 0 003.6-2.959 8.067 8.067 0 001.24-4.518 8.4 8.4 0 00-1.241-4.517 8.481 8.481 0 00-3.599-2.96zm-3.639 9.437a3.285 3.285 0 01-2.319.68H7.637V6.398H10.4a3.489 3.489 0 012.319.68 2.5 2.5 0 01.76 1.959 2.5 2.5 0 01-.763 1.959zM100.485.52H82.851v22.592h18.793v-5.718H90.328v-3h9.557V8.92h-9.557V6.278h16.714l.04.16v16.674h7.637V6.438h6.6V.52h-20.834zm40.066 11.636a7.432 7.432 0 00-3.079-2.039A30.95 30.95 0 00133.114 9a20.957 20.957 0 01-2.879-.72c-.6-.2-.88-.56-.88-1 0-.96.96-1.439 2.919-1.439a13.82 13.82 0 016.278 1.679L140.831 2a15.959 15.959 0 00-3.958-1.48 18.641 18.641 0 00-4.519-.52 14.426 14.426 0 00-5.758 1 7.915 7.915 0 00-3.559 2.759 6.647 6.647 0 00-1.2 3.879 5.667 5.667 0 001.28 3.879 7.807 7.807 0 003.039 2.079 34.88 34.88 0 004.358 1.16 19.213 19.213 0 012.919.76c.6.24.88.6.88 1.08a1.008 1.008 0 01-.68.92 5.972 5.972 0 01-2.279.32 14.613 14.613 0 01-3.839-.56 13.927 13.927 0 01-3.6-1.519l-2.437 5.556a14.169 14.169 0 004.358 1.679 24.741 24.741 0 005.478.64 14.426 14.426 0 005.758-1 7.915 7.915 0 003.559-2.759 6.647 6.647 0 001.2-3.879 5.2 5.2 0 00-1.28-3.838z"/><path class="a" d="M30.149 6.118a5.584 5.584 0 00-2.437 1.919V5.758h-4.8v17.394h5.038v-8.234a4.838 4.838 0 011.24-3.639 3.733 3.733 0 011.959-1.04 14.53 14.53 0 012.363-4.721 8.546 8.546 0 00-3.363.6zM75.533 1.56A13.46 13.46 0 0070.095.52H59.179v8.637a14.743 14.743 0 01.92 5.158 14.579 14.579 0 01-.92 5.158v3.6h7.637v-5.519h3.279a13.325 13.325 0 005.438-1.04 7.829 7.829 0 004.878-7.477 7.783 7.783 0 00-1.28-4.518 8.481 8.481 0 00-3.598-2.959zm-3.639 9.437a3.285 3.285 0 01-2.319.68h-2.759V6.398h2.763a3.489 3.489 0 012.319.68 2.5 2.5 0 01.76 1.959 2.5 2.5 0 01-.763 1.959z"/></svg>